<?xml version="1.0" encoding="utf-8"?>
<!-- Generator: Adobe Illustrator 25.0.1, SVG Export Plug-In . SVG Version: 6.00 Build 0)  -->
<svg version="1.1" xmlns="http://www.w3.org/2000/svg" xmlns:xlink="http://www.w3.org/1999/xlink" x="0px" y="0px"
	 viewBox="0 0 1920 992.9" style="enable-background:new 0 0 1920 992.9;" xml:space="preserve">
<style type="text/css">
	.st0{display:none;opacity:0.37;}
	.st1{fill:#9B4A34;}
	.st2{fill:#AF6351;}
	.st3{fill:#70392E;}
	.st4{fill:#FFFFFF;}
	.st5{fill:none;stroke:#000000;stroke-miterlimit:10;}
	.st6{display:none;}
	.st7{display:inline;}
    .st8{fill:#754303;stroke:#754303;stroke-linecap:round;stroke-miterlimit:10;}
	.st9{display:none;fill:#96492D;}
	.st10{display:none;fill:#63190F;}
    .stx{fill: #754303 !important;stroke: #754303 !important;}
</style>
<g id="Lager_1" class="st0">

		<image style="display:inline;overflow:visible;" width="2048" height="2732" xlink:href="../../136157718_312347060141557_709909983923417993_n.jpg"  transform="matrix(0.3477 0 0 0.3477 192.75 -1207.0973)">
	</image>
</g>
<g id="Lager_2">
	<g>
		<g>
			<path class="st1" d="M1720.5-939.7C1720.5-939.7,1720.5-939.7,1720.5-939.7c-0.1-0.7-0.2-1.4-0.4-2c-0.1-0.3-0.2-0.6-0.3-0.8
				c-0.1-0.3-0.2-0.5-0.3-0.7c-0.1-0.3-0.3-0.5-0.4-0.7c0-0.1-0.2-0.3-0.3-0.4l-0.3-0.5c-0.9-1.3-1.7-2.6-2.4-3.8
				c-0.7-1.2-1.4-2.1-2.2-2.8c-0.2-0.2-0.4-0.4-0.7-0.5c-0.2-0.2-0.4-0.4-0.7-0.5c-0.6-0.3-1.1-0.7-1.7-0.9
				c-2.4-1.2-5.1-2.1-7.8-2.9c-5.5-1.7-11.1-3.1-16.7-4.5l-1.2-0.3l-0.6-1.1l0,0c-2.4-4.2-5-8.4-7.7-12.5c-2.7-4.1-5.5-8.1-8.5-11.9
				c-0.9-1.1-1.7-2.2-2.6-3.2c0,0,0,0-0.1-0.1c-0.5-0.6-1.1-1.3-1.6-1.9c-0.5-0.6-1-1.2-1.6-1.7c-0.1-0.1-0.1-0.2-0.2-0.2
				c-0.5-0.5-1-1-1.5-1.5c-0.2-0.2-0.3-0.3-0.5-0.5c-0.5-0.5-1.1-1.1-1.6-1.6c-1.8-1.6-3.6-3.2-5.5-4.5c-1.9-1.4-3.9-2.3-5.9-3.3
				l-1.6-2v0c-0.2-5.2-1.4-10.3-2.5-15.5c-1.1-5.1-2.4-10.2-3.9-15.2c-2.9-10-6.5-19.9-11.1-29.1c-0.3-0.7-0.7-1.4-1.1-2.1
				c-0.2-0.4-0.4-0.7-0.6-1.1c-0.1-0.1-0.1-0.2-0.2-0.3c-0.4-0.7-0.7-1.3-1.1-2c-0.5-0.9-1-1.8-1.5-2.6c-0.5-0.9-1.1-1.7-1.6-2.6
				c-0.4-0.6-0.8-1.2-1.1-1.7c-0.1-0.2-0.2-0.3-0.3-0.4c-0.1-0.1-0.2-0.3-0.3-0.4c-0.3-0.4-0.6-0.8-0.9-1.3
				c-0.4-0.5-0.8-1.1-1.2-1.6c-0.6-0.7-1.1-1.5-1.7-2.2c-0.4-0.5-0.9-1.1-1.3-1.6c-0.4-0.5-0.9-1-1.4-1.5c-0.1-0.1-0.2-0.3-0.4-0.4
				c-0.4-0.4-0.7-0.8-1.1-1.2c-0.1-0.1-0.2-0.2-0.3-0.3c-0.5-0.5-1-1-1.5-1.5c-3.6-3.4-7.7-6.2-12-8.2c-2.2-1-4.4-1.8-6.7-2.4
				c-0.6-0.2-1.2-0.3-1.7-0.4c-0.6-0.2-1.2,0.2-1.8,0.1c-1.2-0.1-2.3-0.1-3.5-0.4l-2.6-0.6l-0.7-1l-1-1l-1.1-1
				c-0.7-0.7-1.5-1.4-2.2-2c-1.5-1.3-3.1-2.7-4.7-3.9c-3.2-2.6-6.5-5-9.8-7.4c-3.4-2.3-6.9-4.5-10.5-6.5c-1.8-1.1-3.6-2-5.4-3.1
				l-0.9-0.5l-1.8-1.1c-0.9-0.6-1.8-1.1-2.7-1.8l-0.9-0.7l-0.1,0c-3,1.2-4.2,0.5-5.3-0.5c-1.1-0.9-2.2-1.8-3.4-2.7
				c-2.3-1.7-4.6-3.4-6.9-5.1c-4.7-3.3-9.4-6.6-14.3-9.5c-4.8-3-9.8-5.8-15-8.1c-5.1-2.4-10.4-4.4-15.8-5.6
				c-10.7-2.7-21.9-2.5-31.8,1.6c-2.5,1-4.9,2.2-7.2,3.7c-2.3,1.5-4.5,3.1-6.6,4.9c-2.1,1.8-4.1,3.8-6,6c-1,1-1.8,2.2-3,3.2
				c-0.5,0.4-1.4,1.1-2.2,1.6c-0.1,0-0.1,0.1-0.2,0.1l-1.7,1.6c-0.1,0.1-0.7,0.2-0.7,0.2l-0.1,0.1l-0.3,0.2l-0.6,0.3
				c-0.4,0.2-0.7,0.4-1.1,0.6c-0.7,0.4-1.5,0.8-2.2,1.2l-2.2,0.9c-0.7,0.2-1.5,0.5-2.2,0.8c-2.9,0.9-5.8,2.1-8.5,3.3
				c-5.5,2.6-10.6,5.9-15.2,9.3c-4.7,3.5-9,7.1-13.2,10.9c-4.1,3.8-7.8,8.1-10.8,12.8c-0.2,0.3-0.3,0.6-0.5,0.8
				c-0.3,0.4-0.5,0.9-0.8,1.3c0,0.1-0.1,0.1-0.1,0.2c-2.4,4-4.5,8.3-6.1,12.8c-2,5.3-3.3,11-4.3,16.7c-1.8,11.5-2,23.5-0.8,35.6
				c0.6,6,1.4,12,2.5,18c1.1,6,2.4,12.1,3.9,18.1l2.4,8.9c0.8,3,1.8,5.9,2.7,8.9c0.9,3,1.9,5.9,2.9,8.8l1.5,4.4l0.8,2.2l0.8,2.2
				l3.3,9l0.4,1.1l0.4,1.3l0.8,2.6c0.2,0.9,0.5,1.8,0.7,2.6l0.6,2.5c0.8,3.3,1.4,6.6,2.1,9.9c0.3,1.7,0.6,3.3,0.8,4.9
				c0.3,1.6,0.5,3.3,0.7,4.9c1.8,13.1,2.7,26.1,3.2,39c0.2,6.5,0.3,13,0.3,19.4c0,3.2-0.1,6.5-0.2,9.7l-0.1,4.8l-0.2,4.8
				c-0.5,12.9-1.3,25.8-2.5,38.6c-1.2,12.8-2.7,25.6-4.7,38.4c-2,12.8-4.3,25.5-7.6,38.2c-1.7,6.4-3.5,12.7-5.6,19
				c-1.2,3.2-2.3,6.3-3.7,9.5l-0.9,2.1c-0.2,0.5-0.4,0.9-0.5,1.4c-0.1,0.4-0.2,0.9-0.3,1.3c0.9-0.1,1.9-0.4,2.9-0.7
				c2.5-0.8,5.1-1.8,7.8-3c2.7-1.2,5.3-2.6,8-4c10.7-5.9,21.2-12.8,31.4-20c3.9-2.7,7.8-5.5,11.6-8.3c0.4-0.8,1-1.3,1.6-1.9
				c0.7-0.7,1.4-1.5,2.1-2.3l4.2-4.7c1.4-1.6,2.8-3.1,4.2-4.7l8.5-9.4l8.7-9.3c5.8-6.2,11.5-12.6,17.1-19.2
				c4.4-5.1,8.8-10.3,13-15.5c-0.5-0.4-0.9-0.8-1.3-1.2c-2-1.8-3.9-3.6-5.9-5.4c-1.9-1.8-3.4-3.9-4.8-6.1c-1.4-2.1-2.8-4.3-4.1-6.5
				c-5.2-8.7-9.4-17.7-13.2-26.8c-3.9-9.1-7.1-18.4-10.2-27.7c-3-9.3-5.9-18.7-8.3-28.2c1.6,0.8,2.5,1.7,3.1,2.8
				c0.6,1.1,1,2.2,1.5,3.3c0.9,2.2,1.9,4.5,2.8,6.7c1.9,4.5,3.9,8.9,5.9,13.3c2,4.4,4,8.8,6.2,13.1c2.1,4.3,4.3,8.6,6.5,12.9
				c4.5,8.5,9.3,16.7,14.8,24.4c1.4,1.9,2.8,3.8,4.2,5.5c1.5,1.8,3,3.5,4.4,5.3c1.4,1.7,2.9,3.4,4.7,4.7c1.7,1.4,1.6,6.6,3.4,7.3
				l2.9,0.5l1,4.8c0.8,2,0.7,3.2,0.7,4.6c0,0.7,0,1.4,0,2c0,0.7-0.1,1.3-0.3,1.8c-0.4,1.1-0.9,2.1-1.4,3.1l-1.4,3.1
				c-1.9,4.1-3.8,8.2-5.8,12.3c-2,4.1-4.3,7.9-7,11.5c-0.7,0.9-1.3,1.8-2,2.7c-0.7,0.9-1.4,1.7-2.2,2.6c0,0,0,0-0.1,0.1l1.7-1.1
				c1.2-0.8,2.4-1.8,3.7-2.7c5.2-3.9,10-8,13.7-12c1.8-2,3.4-4,4.7-5.8c0.6-1,1.2-1.9,1.7-2.8c0.2-0.5,0.5-0.9,0.7-1.3
				c0.2-0.5,0.4-0.9,0.7-1.3l8.7-13.3l12.4,3.1l0,0c1.5,2.9,5.1,4.7,9.3,5.2c4.3,0.5,9.1-0.3,13.8-1.8c1.2-0.4,2.3-0.8,3.5-1.3
				c1.1-0.5,2.2-1.1,3.4-1.7l1.7-0.8l1.6-1c1.1-0.6,2.1-1.4,3.2-2.1c4.2-3,8.3-6.4,12.3-10c3.2-2.9,6.3-5.9,9.4-9
				c-1.1-0.1-2.2-0.2-3.4-0.4c-5.6-0.6-11.2-1.7-16.8-3c-5.5-1.3-11-3.1-16.3-5c-5.3-2-10.4-4.3-15.4-6.9c-4.9-2.6-9.7-5.5-14.1-8.7
				c-4.4-3.2-8.7-6.6-12.6-10.1c-4-3.6-7.6-7.4-11.1-11.3c-3.4-3.9-6.7-7.9-9.6-12.1c-5.9-8.3-10.8-17-14.9-25.8
				c-0.5-1-0.9-1.9-1.3-2.9c-0.1-0.1-0.1-0.3-0.2-0.4c-0.1-0.3-0.2-0.5-0.4-0.8c0,0,0,0,0,0c-0.1-0.1-0.1-0.2-0.1-0.3
				c-0.3-0.8-0.7-1.5-1-2.2c-0.9-2.2-1.8-4.5-2.6-6.8c-1.7-4.5-3.1-9.1-4.5-13.7c-2.5-9.2-4.5-18.4-5.2-27.8l1-0.3
				c0.2,0.6,0.5,1.2,0.7,1.9c0,0.1,0.1,0.2,0.1,0.3c0,0,0,0,0,0c0.4,1,0.8,1.9,1.2,2.8c0.4,0.9,0.8,1.8,1.1,2.6
				c0.1,0.2,0.1,0.3,0.2,0.5c0.3,0.6,0.6,1.3,0.9,2c0.2,0.5,0.5,1,0.7,1.5c0.2,0.4,0.4,0.8,0.6,1.2c0.2,0.5,0.5,1,0.8,1.5
				c0.3,0.5,0.5,1.1,0.8,1.6c0.1,0.3,0.3,0.6,0.4,0.8c0.4,0.7,0.7,1.4,1.1,2.1c0.9,1.8,1.9,3.6,2.9,5.4c4.4,7.8,9.3,15.3,14.8,22.4
				c5.4,7.1,11.3,13.8,17.7,19.8c6.4,6.1,13.3,11.5,20.7,16.2c7.4,4.6,15.2,8.5,23.3,11.3c8.1,2.9,16.5,4.7,25,5.5
				c4.2,0.4,8.5,0.6,12.8,0.5c4.3,0,8.5-0.4,12.8-0.9c2.1-0.3,4.2-0.5,6.3-0.9c1-0.2,2.1-0.3,3.2-0.6c0.5-0.1,1.1,0.1,1.7,0.3
				l1.7,0.5c2.3,0.7,4.6,1.1,7,1.8c0.3,0.1,0.5,0.1,0.8,0.2c0.1-0.1,0.2-0.2,0.2-0.3c0.2-0.1,0.3-0.3,0.5-0.4
				c0.2-0.2,0.3-0.2,0.4-0.3l0.4-0.2c0.8-0.4,1.3-0.6,1.8-0.7c1-0.3,1.7-0.4,2.5-0.5c3-0.5,5.8-0.7,8.6-1l8.3-0.7
				c5.5-0.5,11-0.9,16.4-1.6c2.7-0.4,5.4-0.8,7.9-1.4c1.2-0.3,2.5-0.7,3.2-1.1c0.2-0.1,0.3-0.2,0.3-0.2c0,0,0,0,0,0l0.2-0.2l0.3-0.4
				l1.4-1.5c3.6-4.2,7.4-8.5,11.6-12.3c2.1-1.9,4.3-3.8,6.6-5.5c2.4-1.7,4.8-3.3,7.6-4.4c1.4-0.6,2.9-1.1,4.4-1.3
				c0.2,0,0.4-0.1,0.6-0.1c0.2,0,0.4,0,0.6-0.1c0.4,0,0.8-0.1,1.2-0.1l2-0.1c2.2-0.2,4.5-1.2,6.5-2.7c4-3.1,7.1-7.6,9.5-12.3
				c1.2-2.4,2.2-4.9,2.9-7.4c0.4-1.2,0.6-2.5,0.8-3.7c0.1-1.2,0.2-2.4,0-3.3l-0.2-0.8l0.3-0.8c0.7-1.2,1.2-2.5,1.7-3.9
				c0.5-1.3,0.9-2.7,1.3-4c0.8-2.7,1.5-5.4,1.9-8.1C1720.6-935.9,1720.7-937.9,1720.5-939.7z M1664.9-933.6l1-0.2
				c1.2,0.6,2.2,1,3,1.1c0.4,0.1,0.8,0.1,1.1,0.1c0.4,0,0.6,0,0.9,0c0.3,0,0.5,0.1,0.8,0.2c0.1,0.1,0.3,0.2,0.4,0.4
				c0.1,0.2,0.3,0.3,0.5,0.4c0.7,0.7,1.7,0.5,2.6,0.6c1.9-0.1,3.9-0.4,5.8-1l1.5-0.5c0.5-0.2,1-0.3,1.5-0.5c1-0.4,1.9-0.8,2.9-1.3
				l0.5,0.8c-1.1,0.8-2.2,1.6-3.4,2.4c-0.6,0.4-1.2,0.9-1.9,1.3c-1.8,1.2-3.8,2.2-6,3.1c-1.2,0.3-2.3,0.6-3.7,1.1
				c-0.3,0.1-0.7,0.3-1.1,0.3c-0.4,0-0.8,0.1-1.1,0.1c-0.4,0-0.8,0-1.1-0.1c-0.4-0.1-0.7-0.3-1.1-0.5c-0.3-0.2-0.7-0.4-1-0.7
				c-0.3-0.3-0.6-0.5-0.9-0.8c-0.2-0.3-0.5-0.6-0.7-0.9c0-0.1-0.1-0.1-0.1-0.2c-0.1-0.1-0.1-0.2-0.1-0.3c0-0.1-0.1-0.1-0.1-0.2
				c-0.1-0.1-0.1-0.2-0.1-0.3c0,0,0-0.1-0.1-0.1c-0.1-0.3-0.2-0.6-0.3-0.9c0-0.1,0-0.2-0.1-0.3c0-0.1-0.1-0.2-0.1-0.3
				c0-0.1,0-0.2,0-0.2c0-0.1,0-0.3,0-0.4C1664.4-932.1,1664.5-932.8,1664.9-933.6z M1614.2-1072.2c1.9,0.8,3.4,2.1,4.7,3.4
				c0.6,0.6,1.1,1.2,1.5,1.8c0.6,0.9,1.2,1.8,1.7,2.7c1.9,3.2,3.5,6.6,4.8,10.1c0.7,1.7,1.2,3.5,1.8,5.3c0.4,1.8,0.9,3.6,1.2,5.4
				c0.7,3.6,1,7.4,0.9,11.1l-1,0.1c-1.1-3.5-2-6.9-3.2-10.3c-0.6-1.7-1.3-3.3-1.9-5l-1.1-2.4c-0.3-0.8-0.7-1.6-1.1-2.4
				c-0.7-1.5-1.4-2.9-2.1-4.3c-0.9-1.7-1.8-3.4-2.8-5c-1.8-3-3.4-6.1-4.2-10L1614.2-1072.2z M1436-1108.6c0-0.2,0-0.5,0.1-0.7
				c0,0,0,0,0,0c0-0.2,0-0.4,0.1-0.6c0-0.2,0.1-0.3,0.1-0.5c0.1-0.4,0.2-0.8,0.3-1.2c0.3-1.2,0.8-2.5,1.8-4l0.9-0.3
				c1.6,0.6,2.7,1.4,3.8,2.2c1,0.8,1.8,1.7,2.5,2.7c0.7,0.9,1.2,1.9,1.6,2.9c0.4,1,0.7,2.1,1,3.1c0.2,0.8,0.5,1.7,0.7,2.5
				c0.2,0.8,0.5,1.7,0.7,2.5c0.2,0.9,0.5,1.7,0.7,2.6c0.2,0.8,0.5,1.7,0.7,2.6c0.2,0.8,0.4,1.6,0.6,2.4c0.1,0.5,0.3,1.1,0.4,1.6
				c0.3,1,0.5,2,0.8,3c0.2,0.9,0.5,1.8,0.7,2.7c0.1,0.2,0.1,0.5,0.2,0.7c0.2,0.8,0.4,1.7,0.6,2.5c0.2,0.7,0.3,1.5,0.5,2.2
				c0.2,0.9,0.4,1.7,0.6,2.6c0.8,3.4,1.4,6.8,2.1,10.2c0.8,4.3,1.5,8.6,2.2,12.9c0.6,4.3,1.2,8.7,1.5,13.1c0.2,2.2,0.4,4.4,0.4,6.6
				l0.1,3.3c0,1.1,0.1,2.2,0.1,3.3c-0.1,2.2-0.1,4.4-0.2,6.6c-0.2,2.2-0.4,4.4-0.7,6.6l-1,0c-1.2-8.6-3.2-16.9-5.2-25.2
				c-1-4.2-2.1-8.3-3.2-12.4c-1.2-4.1-2.2-8.3-3.4-12.4c-2.3-8.3-4.7-16.5-7.1-24.7l-3.7-12.3c-0.3-1-0.6-2-0.9-3.1
				c-0.2-1-0.3-2.1-0.3-3.3C1436-1108.3,1436-1108.4,1436-1108.6z M1554.7-1028.2l-0.4,1.3c-6.2-1.7-12.1-4.4-17.5-8
				c-2.7-1.8-5.2-3.7-7.7-5.9c-1.2-1.1-2.4-2.2-3.5-3.4c-0.5-0.6-1.1-1.2-1.6-1.8c-2.5,1.5-5.2,2.8-7.9,3.9
				c-3.1,1.2-6.4,2.2-9.8,2.5c-3.4,0.3-7.2,0-10.5-2c-1.6-1-3-2.3-4.1-3.9c-0.5-0.8-0.9-1.6-1.2-2.5c-0.2-0.5-0.3-0.9-0.4-1.4
				c-0.1,0-0.2,0.1-0.4,0.1c-0.6,0.1-1.1,0.3-1.6,0.6c-0.5,0.3-0.9,0.7-1.2,1.2c-0.3,0.5-0.6,1.1-0.7,1.7l-1,0.1
				c-0.1-0.9,0-1.7,0.2-2.4c0.3-0.8,0.8-1.5,1.4-2.1c0.6-0.6,1.3-1,2.1-1.4c0.4-0.2,0.8-0.3,1.2-0.4c0.3,0,0.5-0.1,0.8,0
				c0-0.3,0-0.6,0.1-0.9c0.2-0.4,0.5-0.7,0.8-1c0.6-0.6,1.2-1.2,1.9-1.7c1.3-1.1,2.7-2,4.3-2.8c3-1.6,6.7-2.2,10.1-1.7
				c1.7,0.3,3.4,0.7,4.9,1.5c0.8,0.3,1.5,0.8,2.3,1.1c0.7,0.5,1.4,0.9,2.1,1.4c2.7,1.9,5,4.3,7.1,6.7l1.5,1.9c0.5,0.6,1,1.2,1.5,1.8
				c1,1.1,2.1,2.3,3.3,3.3c2.3,2.1,4.7,4.1,7.3,5.9C1543.1-1032.9,1548.8-1030.1,1554.7-1028.2z M1584.7-1067.5
				c3.6,3.1,6.3,7,8.2,11.4c1.9,4.4,2.8,9.5,2.1,14.6c-0.4,2.5-1.2,5.1-2.4,7.4c-1.1,2.3-2.8,4.3-4.6,6.1c-0.5,0.4-0.9,0.8-1.4,1.2
				c-0.5,0.4-1,0.7-1.5,1.1c-0.2,0.2-0.4,0.3-0.6,0.4c-0.1,0.1-0.2,0.1-0.3,0.2c-0.7,0.4-1.5,0.8-2.2,1.2c-0.5,0.2-0.9,0.4-1.4,0.6
				c-0.1,0-0.2,0.1-0.2,0.1c-0.6,0.2-1.1,0.4-1.7,0.6c-1.2,0.3-2.3,0.6-3.5,0.8l-0.5-0.9c0.8-0.9,1.6-1.7,2.3-2.6
				c0.7-0.9,1.5-1.6,2.2-2.4c0.1-0.1,0.2-0.2,0.3-0.3c0.1-0.1,0.2-0.2,0.3-0.3c0,0,0,0,0,0l0,0c0-0.1,0.1-0.1,0.2-0.2
				c0.2-0.2,0.4-0.4,0.6-0.7c0.2-0.3,0.4-0.5,0.6-0.8h0l0,0c0,0,0,0,0-0.1c0.3-0.4,0.7-0.8,1-1.2c0.3-0.4,0.6-0.8,0.9-1.2
				c0.3-0.4,0.6-0.8,0.9-1.3c0.2-0.3,0.4-0.6,0.5-0.8c0.1-0.1,0.1-0.2,0.2-0.4c0.2-0.3,0.3-0.5,0.5-0.8c0.2-0.3,0.3-0.5,0.4-0.8
				c0.3-0.5,0.5-1,0.7-1.5c0.1-0.2,0.2-0.4,0.2-0.5c0.1-0.2,0.2-0.5,0.3-0.8c0.1-0.2,0.2-0.4,0.2-0.7c0.1-0.2,0.2-0.4,0.2-0.7
				c0.1-0.2,0.1-0.4,0.2-0.6c0-0.2,0.1-0.4,0.1-0.5c0.1-0.3,0.2-0.6,0.2-0.9c0.8-3.7,0.6-7.7-0.2-11.8c-0.8-4.1-2.1-8.2-3.8-12.4
				L1584.7-1067.5z M1458.8-1149.5c2,0.8,3.7,1.8,5.2,3c1.5,1.2,2.9,2.5,4.2,3.9c2.5,2.9,4.8,6,6.9,9.2c0.8,1.1,1.5,2.2,2.2,3.4
				c1.3,2.1,2.5,4.3,3.6,6.6c0.3,0.8,0.7,1.5,1,2.3c0-0.1,0-0.1,0.1-0.2c0.3-0.7,0.8-1.3,1.3-1.9c0.5-0.6,1.1-1.1,1.7-1.6
				c0.6-0.4,1.3-0.9,2-1.1c0.7-0.3,1.4-0.6,2-0.7c0.7-0.1,1.4-0.3,2-0.4l2-0.1c0.6,0,1.2,0,1.9,0.1l0.9,0.1l0.9,0.1l1.8,0.3
				c1.1,0.3,2.3,0.5,3.4,0.8c4.4,1.3,8.4,3.1,12.2,5.1l2.9,1.5l2.8,1.6c1.9,1.1,3.7,2.2,5.5,3.4c7.2,4.6,13.9,9.7,20.4,15.1
				c6.5,5.3,12.8,11,18.7,16.9l-0.6,0.8c-1.8-1.1-3.5-2.3-5.3-3.4c-1.7-1.2-3.5-2.3-5.2-3.5l-5.2-3.5c-1.8-1.1-3.5-2.2-5.2-3.4
				c-7-4.5-14-9-21.2-13c-1.8-1-3.6-2-5.4-2.9l-2.7-1.4l-2.7-1.3c-3.7-1.7-7.3-3.3-11-4.2l-2.7-0.6l-1.3-0.2l-0.7-0.1l-0.6,0
				c-1.7-0.2-3.2,0.1-4.4,0.4c-1.2,0.4-2,0.8-3.2,1.8c-1,1.1-2.1,2.7-3.2,4.8c0,0,0,0.1,0,0.1l-1,0.1c-0.7-1.1-1.2-2.3-1.4-3.6
				c-0.3-0.5-0.5-0.9-0.8-1.4c-1-1.5-2-3-3.1-4.5c-2.2-2.9-4.5-5.8-6.8-8.7l-0.1-0.1l-6.9-8.6c-1.1-1.5-2.2-3-3.1-4.7
				c-0.9-1.7-1.7-3.5-2.2-5.5L1458.8-1149.5z M1402.4-1025.4c-5.9-3.9-11.7-8.4-17-13.6c-5.3-5.3-10.3-11.2-14.2-18.7
				c-1.9-3.8-3.5-7.9-4.4-12.4c-0.9-4.5-1.1-9.5-0.3-14.3c0.4-2.4,1.1-4.8,2-7.1c0.9-2.2,2-4.4,3.3-6.3c0.1-0.2,0.3-0.4,0.4-0.6
				c0.2-0.3,0.5-0.7,0.7-1c0.2-0.3,0.4-0.6,0.7-0.9c2.1-2.8,4.6-5.2,7.1-7.2c6.6-5.2,13.8-8.3,21.1-10.1c3.7-0.9,7.3-1.4,11-1.6
				c3.7-0.2,7.4-0.1,11.1,0.6l0.6,0.3c0.2,0,0.3,0,0.5,0l0.4,0c0.2,0,0.5,0,0.7,0.1c0.4,0.1,0.8,0.2,1,0.3c0.5,0.3,0.7,0.6,0.7,1
				c0.2,0.7,0.3,1.4,0.5,2.2c0.1,0.5,0.2,1.1,0.3,1.6c0.2,0.9,0.3,1.8,0.4,2.7c0.3,2.9,0.5,5.7,0.6,8.6c0.1,2.5,0,4.9-0.2,7.4v0
				c0,0.4-0.1,0.8-0.1,1.2c-0.3,2.8-0.7,5.7-1.3,8.5h-1c-0.4-1.4-0.6-2.8-0.9-4.2c-0.3-1.4-0.5-2.8-0.8-4.1l-0.3-1.9v0l-1.1-6.3
				c-0.5-2.7-0.9-5.4-1.4-8.1c-0.2-1.3-0.5-2.7-0.8-4c-0.1-0.6-0.3-1.2-0.4-1.8c0-0.1,0-0.1,0-0.2c-0.1,0-0.1,0.1-0.2,0.2
				c-4.6,3.7-9,7.1-13,10.6c-2.7,2.3-5.3,4.6-7.6,6.9c-1.9,1.9-3.6,3.7-5,5.6c-1.6,2.1-2.9,4.1-3.8,6.1c-0.9,1.9-1.5,3.8-1.7,5.6
				c-0.2,0.9-0.2,1.9-0.2,2.8c0,0.5,0,1,0.1,1.5c0.1,0.5,0.1,1,0.2,1.6c0.4,2.1,1.1,4.5,2.1,6.9c2.1,4.8,5.2,9.8,8.9,14.8
				c3.7,4.9,7.9,9.8,12.3,14.7c4.4,4.9,9,9.7,13.7,14.7c0.9,1,1.9,2,2.9,3c3.4,3.6,6.8,7.2,10.1,11c0-0.1-0.1-0.2-0.1-0.2
				c-0.1-0.3,0.1-0.4,0.2-0.5c0.2-0.3,0.4-0.6,0.7-0.9c0.6-0.6,1.3-1.5,1.5-2.5c0.3-1,0.2-2.1,0.2-3.1c-0.1-0.5-0.2-1-0.3-1.6
				c-0.2-0.5-0.3-1-0.6-1.5l1-0.3c0.1,0.5,0.2,1.1,0.4,1.6c0.1,0.5,0.3,1.1,0.4,1.6l0.4,1.6l0.3,1.7c0.2,1.2,0.6,2.5,0.4,3.8
				c-0.1,0.7-0.3,1.4-0.8,2c-0.2,0.3-0.4,0.6-0.8,0.8c-0.4,0.1-1,0.1-1.8-0.4l-0.2,0.1l-0.4-0.1c-3.6-1.1-7.2-2.3-10.7-3.6
				C1420.3-1014.9,1411.2-1019.7,1402.4-1025.4z M1666.9-891.4c-1.8,0.5-3.6,1.1-5.3,1.8c-0.6,0.2-1.1,0.4-1.7,0.7
				c-0.7,0.2-1.3,0.5-2,0.8c-1.4,0.6-2.8,1.2-4.2,2c-0.3,0.1-0.5,0.3-0.8,0.4c-0.3,0.2-0.7,0.4-1,0.6c0,0-0.1,0.1-0.1,0.1
				c-3.2,2-6.5,3.8-9.9,5.5c-6.8,3.4-13.9,6.2-21.5,7.9c-1.9,0.4-3.8,0.8-5.7,1c-1.9,0.3-3.8,0.4-5.8,0.5c-1.9,0.1-3.9,0.1-5.9,0
				c-1,0-2-0.1-2.9-0.2c-1,0-2-0.4-2.6-2.9l0.2-1c1.3-2.1,2.1-2.3,2.9-2.2c0.9,0.1,1.7,0.1,2.6,0.1c1.8,0,3.5-0.1,5.3-0.2
				c1.8-0.1,3.5-0.3,5.3-0.5c1.8-0.2,3.5-0.5,5.3-0.9c7-1.3,14-3.4,20.7-6.2c3.4-1.4,6.6-3,9.9-4.7l1.2-0.7c0.5-0.3,0.9-0.4,1.4-0.6
				c0.9-0.4,1.8-0.7,2.7-1.1c1.8-0.7,3.6-1.3,5.4-1.8c3.7-1,7.4-1.7,11.2-2c3.8-0.3,7.6-0.3,11.3,0.3l-0.1,1c-0.2,0-0.5,0-0.8,0
				c-0.6,0-1.2,0-1.8,0c-0.1,0-0.2,0-0.3,0c-1.2,0-2.5,0.1-3.7,0.3c0,0-0.1,0-0.1,0c-0.6,0.1-1.2,0.2-1.9,0.2
				c-0.5,0.1-1,0.2-1.5,0.2c-0.6,0.1-1.1,0.2-1.7,0.3c-0.3,0.1-0.6,0.1-0.9,0.2c-0.4,0.1-0.9,0.2-1.3,0.3c-0.3,0.1-0.7,0.2-1.1,0.3
				C1667.7-891.6,1667.3-891.5,1666.9-891.4C1667-891.4,1666.9-891.4,1666.9-891.4z M1665.5-1053.5c-0.3-1-1-2.2-2.1-3.3
				s-2.3-2.2-3.7-3.2c-1.4-1-2.9-2-4.5-2.9c-3.2-1.8-6.5-3.4-10-4.9c-3.5-1.5-7-2.9-10.6-4.2c-0.6-0.2-1.2-0.4-1.8-0.7
				c0.5,0.9,0.9,1.9,1.3,2.8c4.5,9.9,7.7,20.2,10.3,30.6c1,4.2,2,8.4,2.8,12.7l1.8-1.5c1.5-1.2,2.9-2.5,4.3-3.8
				c2.8-2.6,5.4-5.4,7.6-8.3c2.2-2.9,4-6.1,4.7-9.1c0.2-0.7,0.2-1.5,0.3-2.2C1665.8-1052.4,1665.7-1053.1,1665.5-1053.5z"/>
		</g>
		<g>
			<path class="st2" d="M1725.3-941.2c-31.5,10-75.3,21-105.4,0.9c-24.4-16.3-19.4-39.6-26.4-64.4c-2.4-8.5-20.2-19.7-12.1-25.5
				c25.9-18.5-86.1-81.1-116.6-57.9c-11.9,9.1-39.5-57.6-66.3-9.9c-2.7,4.9-54.5-6.3-56.5-2c2-4.2,4.2-8.3,6.8-12.2
				c4-5.9,8.7-11.3,13.9-16.1c1.3-1.2,2.7-2.4,4.1-3.4c0.7-0.5,1.4-1.1,2.2-1.6l2.2-1.4c0.8-0.4,1.5-0.9,2.3-1.3
				c0.8-0.4,1.6-0.8,2.4-1.2c1.6-0.8,3.2-1.4,4.8-2.1c3.3-1.2,6.6-2.2,9.9-3c3.3-0.8,6.6-1.6,9.9-2.2c1.6-0.3,3.3-0.6,4.9-0.9
				c0.8-0.1,1.7-0.2,2.4-0.5c0.8-0.2,1.6-0.6,2.3-1c1.5-0.9,3.1-1,4.8-1.2c0.8-0.1,1.5,0,2.4,0.1c0.4,0.1,1.1-0.7,1.5-0.6l0.7,0.1
				c0,0,0.6-0.3,0.7-0.6c0.4-1.6,1.2-2.9,2-4.3c1.6-2.8,3.4-5.5,5.3-8.1c4-5.2,9-9.9,15.1-13.5c6-3.6,12.9-5.9,19.9-6.7
				c7-0.9,14-0.4,20.5,0.9c13.3,2.6,25.1,8.5,35.3,15.8c5.1,3.7,9.9,7.7,14.5,11.9c2.3,2.1,4.5,4.3,6.7,6.5c1.1,1.1,2.2,2.2,3.2,3.3
				c1.1,1,2,2.2,1.8,4.7c4,0.8,7.9,2.2,11.6,3.9c4,1.9,7.9,4.1,11.7,6.4c3.8,2.3,7.4,4.9,10.9,7.7c1.8,1.4,3.4,2.8,5.1,4.3
				c0.8,0.8,1.6,1.5,2.4,2.3c0.4,0.4,0.7,0.7,1.1,1.1c0.8,0.1,3.8,1.3,4.5,1.4c0.7,0.2,1.4,0.3,2.1,0.6c2.8,0.8,5.5,1.9,8.1,3.2
				c5.2,2.7,9.8,6.2,13.7,10.2c2.2,2.2,4.2,4.6,6.1,7c1.5,1.9,2.9,4,4.2,6c0.6,1,1.2,1.9,1.8,2.9c1.2-0.3,2.4-0.4,3.6-0.4
				c2.1,0,4.1,0.5,5.9,1.1c3.8,1.3,7.6,2.7,11.3,4.3c3.7,1.7,7.4,3.4,10.9,5.7c3.5,2.2,7.1,4.8,10,8.5c1.5,1.9,2.8,4.2,3.3,7
				c0.2,1.5,0.2,2.7,0.1,4c-0.2,1.3-0.4,2.5-0.8,3.6c-0.7,2.3-1.9,4.2-3.1,6c-1.2,1.8-2.6,3.4-4,5c-2.8,3-5.9,5.7-9.1,8.1
				c-1.6,1.2-3.2,2.4-4.9,3.5c-0.8,0.6-1.6,1.1-2.5,1.7c-0.3,0.2-0.7,0.4-1.1,0.5c0.8,4.4,1.3,8.9,2.1,13.4c2.2,0.7,4.2,1.9,6.1,3.1
				c2.2,1.5,4.2,3.2,6.1,4.9c3.8,3.5,7.2,7.3,10.4,11.2c0.1,0.1,0.1,0.1,0.1,0.2c3.1,3.9,6,7.9,8.8,12c2.6,3.9,5,7.8,7.4,11.8
				c5.3,1.4,10.5,2.9,15.8,4.6c2.8,0.9,5.7,1.9,8.5,3.4c0.7,0.3,1.4,0.8,2.1,1.2c0.4,0.2,0.7,0.5,1,0.8c0.3,0.3,0.7,0.5,1,0.8
				c0.3,0.3,0.7,0.6,1,0.9l0.8,1c0.5,0.7,1,1.4,1.4,2.1c0.8,1.3,1.4,2.5,2.2,3.6l0.6,0.9c0.2,0.4,0.5,0.8,0.7,1.2
				c0.2,0.4,0.4,0.8,0.5,1.3c0.2,0.4,0.3,0.9,0.4,1.3C1725.1-942.4,1725.2-941.8,1725.3-941.2z"/>
		</g>
		<g>
			<path class="st3" d="M1611.7-837.1c-0.5,0.8-1,1.5-1.5,2.2c-2,3.1-4.1,6.1-6.3,9c-1.2,1.6-2.3,3.2-3.5,4.9
				c-6.8,9.1-13.9,17.9-21.8,26.2c-4,4.2-8.1,8.2-12.7,12.1c-1.2,1-2.3,1.9-3.5,2.9l-1.8,1.4l-1.9,1.3l-3.8,2.6
				c-1.3,0.8-2.6,1.6-3.9,2.4c-5.4,3-11.1,5.7-17.6,7.3c-3.2,0.8-6.6,1.4-10.2,1.6c-0.8,0-1.6,0.1-2.4,0.1c-1.1,1.7-2.3,3.4-3.6,4.9
				c-2.8,3.4-6,6.3-9.3,8.9c-3.3,2.6-6.8,4.7-10.3,6.7c-3.5,1.9-7.1,3.5-10.8,5c-1.9,0.7-3.8,1.4-5.8,2l-3,0.8l-1.5,0.4
				c-0.5,0.1-1,0.2-1.5,0.3c-2,0.4-4,0.8-6.1,1c-1,0.1-2,0.2-3.1,0.2h-3.1c-2.1-0.1-4.1-0.3-6.2-0.7c-1-0.2-2-0.4-3-0.7
				c-1-0.3-2-0.6-2.9-1c-2.1-0.9-4.2-1.9-6-3.2c-1,0.8-2,1.7-3,2.6c-2.7,2.5-5.2,5.3-7.9,7.8c-1,1.1-2.2,2.2-3.4,3.2
				c-5,4-10.1,7.9-15.3,11.7c-10.4,7.6-20.9,15.1-32.4,21.8c-2.9,1.7-5.8,3.3-8.9,4.8c-3.1,1.5-6.3,2.9-9.9,4.1
				c-1.8,0.6-3.7,1.1-5.9,1.5c-2.2,0.3-4.7,0.6-7.9-0.1c-0.4-0.1-0.8-0.2-1.2-0.3c-0.4-0.1-0.9-0.3-1.3-0.4
				c-0.9-0.4-1.8-0.9-2.6-1.5c-0.8-0.6-1.7-1.3-2.4-2.1c-0.3-0.4-0.7-0.8-1-1.2c-0.3-0.4-0.5-0.8-0.8-1.3c-1-1.7-1.4-3.4-1.7-4.9
				l-0.1-0.6l-0.1-0.5l-0.1-1c-0.1-0.7-0.1-1.3-0.1-1.9c0-2.5,0.4-4.7,1-6.9c0.3-1.1,0.7-2.1,1.1-3.2l0.3-0.7l0.2-0.5l0.4-1
				c1.1-2.7,2.1-5.5,3-8.4c1.8-5.7,3.4-11.7,4.8-17.7c5.4-24.1,8.8-49,10.8-74c1-12.5,1.7-25,2-37.5l0.1-4.7l0.1-4.7
				c0.1-3.1,0-6.3,0-9.4c0-6.2-0.1-12.5-0.3-18.7c-0.4-12.5-1.3-24.8-2.9-37c-0.2-1.5-0.4-3-0.7-4.5c-0.2-1.5-0.5-3-0.7-4.5
				c-0.6-2.9-1.1-5.9-1.9-8.8l-0.5-2.2c-0.2-0.7-0.4-1.3-0.6-2l-0.5-2l-0.3-1l-0.4-1.1l-3.3-8.9l-0.8-2.2l-0.8-2.3l-1.6-4.6
				c-1.1-3.1-2.1-6.2-3-9.3c-0.9-3.1-1.9-6.2-2.8-9.4l-2.5-9.5c-3.1-12.8-5.5-25.8-6.6-39.1c-0.6-7.1-0.9-14.3-0.6-21.6
				c6.6,10.1,14.4,22.9,22.2,37.8c32.6,62,67.3,162.2,34.9,272.4l65.1-55.2c0,0-29.3-109.5-24.7-103.4c3.5,4.6,21.7,77.3,60.5,99.7
				c12.4,7.2,26.9,9.2,43.8,2.1c0,0-60.9-49.3-72.2-100.7c0,0,0,0,0,0c-1.6-7.4-2.2-14.9-1.4-22.3c0.2-1.5,0.4-3,0.7-4.5
				c0,0,0,2.8,0.9,7.5c2,10.4,8.2,30,28.1,47.5c0,0,0,0,0,0l0,0c14.5,12.8,36.3,24.6,68.9,31c11.7,2.3,24.9,4,39.6,4.7
				c2.9,0.2,5.9,0.3,9,0.3C1608.8-837.2,1610.2-837.1,1611.7-837.1z"/>
		</g>
		<g>
			<path class="st3" d="M1697.2-881.7c-0.3,0.1-0.7,0.1-1.1,0.2l-2.2,0.1c-0.2,0-0.5,0.1-0.8,0.1c-0.3,0-0.5,0.1-0.8,0.1
				c-1.1,0.2-2.2,0.6-3.2,1.1c-4.4,2-8.4,5.5-12.1,9.3c-3.7,3.8-7.1,8-10.6,12.3l-1.3,1.7l-0.3,0.4l-0.2,0.2
				c-0.1,0.1-0.3,0.3-0.4,0.5c-0.3,0.3-0.6,0.5-0.9,0.8c-0.2,0.2-0.5,0.4-0.8,0.5c-1.9,1.1-3.4,1.6-4.9,2.1c-3,0.9-5.8,1.5-8.6,2
				c-5.6,1.1-11.2,1.8-16.7,2.6l-8.2,1.2c-2.7,0.4-5.4,0.8-7.7,1.4c-0.2,0.3-0.3,0.6-0.4,0.9c-0.4,0.7-0.8,1.4-1.1,2.1
				c-1,1.8-2.1,3.5-3.2,5.1c-0.5,0.8-1,1.5-1.5,2.2c-2,3.1-4.1,6.1-6.3,9c-0.8-0.2-1.5-0.4-2.2-0.6c-3.8-1-7.2-2-10.2-2.8
				c-7.5-2.2-12.2-3.7-12.2-3.7l-20.6-9.3l-68.9-31l0,0c0,0,0,0,0,0c-0.7-1.1-16-24.4-28.1-47.5c-0.5-1-1-2-1.6-3
				c-5.3-10.4-9.8-20.6-11.9-28.5c0.1,0.1,0.7,0.8,1.8,1.9c15.2,15.7,122.2,121.2,201.9,65.3c0,0,0,0,0.1-0.1
				c0.9-0.6,6.9-4.4,14.9-6.2c7.5-1.7,16.6-1.6,24.9,4.7C1693.7-885.4,1695.5-883.7,1697.2-881.7z"/>
		</g>
		<path class="st4" d="M1523.2-1046.9c-2.6,0.9-5.3,1.8-7.9,2.5c-0.8,0.2-1.5,0.4-2.3,0.6c-0.8,0.2-1.6,0.3-2.3,0.4c0,0,0,0,0,0
			c0.3-0.8,0.5-1.7,0.5-2.6c0-4.3-3.5-7.9-7.8-7.9c-4.1,0-7.5,3.2-7.8,7.2c-0.2-0.3-0.5-0.5-0.7-0.8c-0.4-0.5-0.8-1.1-1.1-1.8
			c-0.3-0.5-0.5-1.1-0.7-1.5c0.1,0,0.2-0.1,0.3-0.1c0.4-0.2,0.5-0.5,0.8-0.8c0.5-0.6,1-1.1,1.6-1.6c1.1-1,2.3-1.8,3.6-2.5
			c2.6-1.4,5.5-2,8.4-1.6c1.4,0.2,2.9,0.6,4.2,1.2c0.7,0.2,1.3,0.7,2,1c0.6,0.4,1.3,0.8,1.9,1.2c2.5,1.7,4.8,3.9,6.8,6.2
			L1523.2-1046.9z"/>
		<g>
			<g>
				<path class="stx" d="M1725.3-941.2C1725.3-941.2,1725.3-941.3,1725.3-941.2c0-0.1,0-0.2,0-0.2c0-0.2-0.1-0.5-0.1-0.7
					c-0.1-0.3-0.1-0.6-0.2-0.9c-0.1-0.4-0.2-0.8-0.4-1.3c-0.1-0.4-0.3-0.8-0.5-1.3c-0.2-0.4-0.4-0.8-0.7-1.2l-0.6-0.9
					c-0.8-1.1-1.4-2.3-2.2-3.6c-0.4-0.6-0.8-1.3-1.3-2c0-0.1-0.1-0.1-0.1-0.2l-0.8-0.9c-0.3-0.3-0.6-0.6-1-0.9
					c-0.3-0.3-0.7-0.6-1-0.8c-0.3-0.2-0.7-0.5-1-0.8c-0.7-0.4-1.4-0.9-2.1-1.2c-2.8-1.5-5.7-2.4-8.5-3.4c-4.9-1.6-9.8-3-14.7-4.3
					c-0.7-0.2-1.3-0.7-1.7-1.3c-2.2-3.7-4.4-7.3-6.8-10.8c-2.8-4.1-5.7-8.2-8.8-12c0-0.1-0.1-0.1-0.1-0.2c-3.2-4-6.6-7.8-10.4-11.2
					c-1.9-1.7-3.9-3.4-6.1-4.9c-1.4-1-3-1.9-4.6-2.6c-0.9-0.4-1.5-1.2-1.7-2.1c-0.6-3.9-1.2-7.8-1.8-11.8c0-0.3-0.1-0.6-0.2-0.9
					c-0.2-1-0.4-2-0.6-3c-0.8-4.2-1.7-8.5-2.8-12.7c-2.6-10.4-5.8-20.7-10.3-30.6c-0.4-0.9-0.9-1.9-1.3-2.8c-1.4-3-2.9-5.9-4.6-8.7
					c-0.6-1-1.2-1.9-1.8-2.9c-1.3-2.1-2.7-4.1-4.2-6c-0.5-0.7-1.1-1.5-1.7-2.2c-1.4-1.7-2.8-3.3-4.4-4.9c-3.9-4-8.6-7.5-13.7-10.2
					c-4-2-8.4-2.9-12.4-4.9c-8-4.1-14-11.1-21.7-15.7c-1-0.6-2.1-1.3-3.2-1.9c-2.8-1.6-5.6-3.1-8.5-4.5c-3.7-1.8-12.3-7.6-13.3-8.6
					c-1.1-1.1-2.1-2.2-3.2-3.3c-2.2-2.2-4.4-4.4-6.7-6.5c-4.6-4.2-9.4-8.2-14.5-11.9c-10.3-7.3-22.1-13.2-35.3-15.8
					c-6.6-1.3-13.6-1.8-20.5-0.9c-7,0.8-13.9,3.1-19.9,6.7c-6,3.5-11.1,8.3-15.1,13.5c-10,12.9-22.1,15.5-37,19.2
					c-3.3,0.8-6.7,1.8-9.9,3c-1.6,0.6-3.3,1.3-4.8,2.1c-0.8,0.4-1.6,0.8-2.4,1.2c-0.8,0.4-1.5,0.9-2.3,1.3l-2.2,1.4
					c-0.7,0.5-1.4,1-2.2,1.6c-1.4,1-2.8,2.2-4.1,3.4c-5.3,4.8-10,10.2-13.9,16.1c-0.4,0.6-0.8,1.2-1.2,1.8c-0.2,0.3-0.4,0.6-0.5,0.9
					c-0.3,0.6-0.7,1.1-1,1.7c-0.3,0.6-0.6,1.1-0.9,1.7c-0.3,0.4-0.5,0.9-0.7,1.3c-0.6,1.1-1.2,2.2-1.7,3.4c-0.2,0.5-0.5,1-0.7,1.4
					c-1,2.2-2,4.4-2.8,6.6c-2.5,6.6-4.2,13.3-5.4,20.1c-1.1,6.3-1.7,12.6-1.9,18.9c-0.3,7.2-0.1,14.5,0.6,21.6
					c1.1,13.3,3.5,26.3,6.6,39.1l2.5,9.5c0.9,3.1,1.9,6.2,2.8,9.4c0.9,3.1,2,6.2,3,9.3l1.6,4.6l0.8,2.3l0.8,2.2l3.3,8.9l0.4,1
					c0,0.1,0,0.1,0.1,0.2l0.2,0.9l0.5,2c0.2,0.7,0.4,1.3,0.6,2l0.5,2.2c0.7,2.9,1.3,5.8,1.9,8.8c0.3,1.5,0.5,3,0.7,4.5
					c0.2,1.5,0.5,3,0.7,4.5c1.6,12.1,2.6,24.5,2.9,37c0.2,6.2,0.3,12.5,0.3,18.7c0,3.1,0,6.2,0,9.4l-0.1,4.7l-0.1,4.7
					c-0.3,12.5-1,25-2,37.5c-2,25-5.4,49.9-10.8,74c-1.4,6-2.9,11.9-4.8,17.7c-0.9,2.8-1.9,5.7-3,8.4l-0.4,1l-0.2,0.5l-0.3,0.7
					c-0.4,1-0.8,2.1-1.1,3.2c-0.6,2.2-1,4.5-1,6.9c0,0.6,0,1.2,0.1,1.9l0.1,1l0.1,0.5l0.1,0.6c0.3,1.5,0.7,3.1,1.7,4.9
					c0.2,0.4,0.5,0.8,0.8,1.3c0.3,0.4,0.6,0.8,1,1.2c0.7,0.8,1.5,1.5,2.4,2.1c0.8,0.6,1.7,1,2.5,1.4c0.1,0,0.1,0.1,0.2,0.1
					c0.4,0.1,0.8,0.3,1.2,0.4c0.4,0.1,0.9,0.3,1.2,0.3c3.2,0.7,5.7,0.4,7.9,0.1c2.2-0.3,4.1-0.9,5.9-1.5c3.6-1.2,6.8-2.6,9.9-4.1
					c3.1-1.5,6-3.1,8.9-4.8c11.4-6.7,22-14.1,32.4-21.8c5.2-3.8,10.3-7.7,15.3-11.7c1.2-1,2.3-2,3.4-3.2c1.2-1.2,2.2-2.6,3.2-4
					c1.1-1.7,2.1-3.4,2.9-5.5c0.7-1.7,2.8-2.4,4.3-1.3c0.2,0.1,0.3,0.2,0.5,0.4c1.8,1.3,3.9,2.3,6,3.2c1,0.4,1.9,0.7,2.9,1
					c1,0.3,2,0.5,3,0.7c2,0.4,4,0.6,6.1,0.7c0.1,0,0.1,0,0.2,0l3,0c1.1,0,2.1-0.2,3.1-0.2c2.1-0.2,4.1-0.6,6.1-1
					c0.7-0.1,1.8-0.4,2.4-0.6l0.5-0.1l3-0.8c1.9-0.6,3.8-1.3,5.8-2c3.7-1.5,7.2-3.1,10.8-5c3.5-2,7-4.1,10.3-6.7
					c3.3-2.6,6.5-5.5,9.3-8.9c1-1.2,1.9-2.4,2.8-3.7c0.5-0.8,1.3-1.2,2.2-1.3c0.3,0,0.6,0,1,0c3.5-0.2,6.9-0.8,10.2-1.6
					c6.5-1.6,12.2-4.3,17.6-7.3c1.3-0.8,2.7-1.5,3.9-2.4l3.8-2.6l1.9-1.3l1.8-1.4c1.2-0.9,2.3-1.9,3.5-2.9
					c4.5-3.9,8.7-7.9,12.7-12.1c7.9-8.4,15.1-17.2,21.8-26.2c1.2-1.6,2.4-3.2,3.5-4.9c2.1-3,4.2-6,6.3-9c0.5-0.8,1-1.5,1.5-2.2
					c1.1-1.7,2.1-3.3,3.2-5.1c0.4-0.7,0.8-1.3,1.1-2.1c0.1-0.2,0.3-0.6,0.4-0.9c2.3-0.5,5-1,7.7-1.4l8.2-1.2
					c5.5-0.8,11.1-1.5,16.7-2.6c2.8-0.5,5.7-1.1,8.6-2c1.5-0.5,3-0.9,4.9-2.1c0.2-0.2,0.5-0.3,0.8-0.5c0.3-0.2,0.5-0.4,0.9-0.8
					c0.1-0.2,0.3-0.3,0.4-0.5l0.2-0.2l0.3-0.4l1.3-1.7c3.4-4.3,6.8-8.5,10.6-12.3c3.7-3.8,7.8-7.3,12.1-9.3c1.1-0.5,2.2-0.9,3.2-1.1
					c0.3-0.1,0.5-0.1,0.8-0.1c0.3,0,0.5-0.1,0.8-0.1l2.2-0.1c0.4,0,0.7-0.1,1.1-0.2c3.2-0.6,5.9-2.1,8.1-3.8c2.5-2,4.5-4.2,6.3-6.7
					c1.7-2.4,3.3-4.9,4.5-7.6c1.3-2.6,2.3-5.4,3.1-8.2c0.4-1.4,0.7-2.9,0.9-4.5c0.1-1.1,0.2-2.3,0.1-3.6c0-0.5,0-0.9,0.2-1.3
					c0.4-1,0.7-1.9,1.1-2.8c0.5-1.4,1.1-2.8,1.5-4.2c0.9-2.9,1.7-5.8,2.2-8.9C1725.5-935.8,1725.7-938.4,1725.3-941.2z
					 M1607.4-849.4c0-0.2,0-0.4,0.1-0.6c0,0,0-0.1,0-0.1c0,0.1-0.1,0.3-0.1,0.4C1607.4-849.4,1607.4-849.3,1607.4-849.4z
					 M1617.6-848.9c0,0.1,0,0.2,0,0.2c0-0.2,0-0.3,0-0.5C1617.6-849.1,1617.6-849,1617.6-848.9z M1720.3-934c-0.4,2.7-1,5.4-1.9,8.1
					c-0.4,1.3-0.9,2.7-1.3,4c-0.5,1.3-1,2.7-1.7,3.9l-0.3,0.8l0.2,0.8c0.2,0.8,0.2,2.1,0,3.3c-0.2,1.2-0.4,2.5-0.8,3.7
					c-0.7,2.5-1.7,5-2.9,7.4c-2.4,4.7-5.5,9.2-9.5,12.3c-2,1.5-4.3,2.5-6.5,2.7l-2,0.1c-0.4,0-0.8,0.1-1.2,0.1c-0.2,0-0.4,0-0.6,0.1
					c-0.2,0-0.4,0.1-0.6,0.1c-1.6,0.3-3,0.8-4.4,1.3c-2.8,1.2-5.3,2.8-7.6,4.4c-2.3,1.7-4.6,3.6-6.6,5.5c-4.2,3.9-7.9,8.1-11.6,12.3
					l-1.4,1.5l-0.3,0.4l-0.2,0.2c0,0,0,0,0,0c0,0-0.2,0.1-0.3,0.2c-0.8,0.4-2,0.8-3.2,1.1c-2.5,0.6-5.2,1-7.9,1.4
					c-5.4,0.7-10.9,1.2-16.4,1.6l-8.3,0.7c-2.8,0.2-5.6,0.5-8.6,1c-0.8,0.1-1.5,0.3-2.5,0.5c-0.5,0.2-1,0.3-1.8,0.7l-0.4,0.2
					c-0.1,0.1-0.2,0.1-0.4,0.3c-0.2,0.1-0.3,0.3-0.5,0.4c-0.1,0.1-0.1,0.1-0.2,0.3c0,0,0,0,0,0c-0.1,0.2-0.2,0.3-0.3,0.5
					c-0.1,0.2-0.2,0.3-0.3,0.5c-0.1,0.2-0.2,0.5-0.3,0.7c0,0.1,0,0.2-0.1,0.3c0,0,0,0.1,0,0.1c0,0,0-0.1,0-0.1l0,0.1l0,0.1l-0.1,0.1
					c-0.1,0.2-0.2,0.4-0.4,0.7c-0.3,0.5-0.7,1-1,1.6c-1.5,2.2-3.1,4.4-4.7,6.5c-0.9,1.2-1.9,2.4-2.8,3.6c-2.2,2.8-4.5,5.6-6.8,8.3
					c-0.2,0.3-0.4,0.5-0.7,0.8c-4.3,4.9-8.7,9.7-13.3,14.3c-3.1,3.1-6.2,6.1-9.4,9c-4,3.6-8.1,7-12.3,10c-1,0.7-2.1,1.4-3.2,2.1
					l-1.5,0.9c-0.1,0-0.1,0.1-0.2,0.1l-1.6,0.8c-1.1,0.6-2.2,1.1-3.4,1.7c-1.2,0.5-2.3,0.9-3.5,1.3c-4.7,1.5-9.5,2.3-13.8,1.8
					c-4.2-0.5-7.8-2.3-9.3-5.2l-10.5-2.6c-1.2-0.3-2.4,0.2-3,1.2l-7.6,11.6c-0.3,0.4-0.5,0.9-0.7,1.3c-0.2,0.5-0.5,0.9-0.7,1.3
					c-0.5,0.9-1.1,1.7-1.7,2.7c0,0.1-0.1,0.1-0.1,0.1c-1.3,1.9-2.9,3.8-4.7,5.8c-3.7,4-8.5,8.1-13.7,12c-1.2,0.8-2.4,1.8-3.7,2.7
					l-1.7,1.1l-0.2,0.1l-0.9,0.6c-0.3,0.2-0.6,0.4-1,0.5l-1.9,1.1c-0.7,0.4-1.3,0.6-2,1c-1.3,0.7-2.7,1.3-4.1,2
					c-2.8,1.2-5.7,2.5-8.9,3.5c-0.8,0.3-1.7,0.5-2.5,0.8c-0.9,0.2-1.7,0.5-2.7,0.7c-0.5,0.1-0.9,0.2-1.4,0.3c-0.5,0.1-1,0.2-1.4,0.3
					c-1,0.2-2,0.3-3.1,0.4v0l-0.6,0c-4.1-0.1-7.5,0.8-10.6,1.9c-3.1,1.2-5.9,2.7-8.4,4.5c-1.2,0.9-2.5,1.8-3.7,2.7
					c-3.8,2.8-7.7,5.6-11.6,8.3c-10.3,7.2-20.7,14.1-31.4,20c-2.7,1.4-5.3,2.8-8,4c-2.7,1.2-5.3,2.3-7.8,3c-2.4,0.7-2.7-0.2-2.5-0.7
					c0.1-0.5,0.3-0.9,0.5-1.4l0.9-2.1c1.4-3.2,2.5-6.3,3.7-9.5c2.2-6.3,4-12.6,5.6-19c3.2-12.7,5.6-25.4,7.6-38.2
					c2-12.8,3.5-25.6,4.7-38.4c1.2-12.8,2-25.7,2.5-38.6l0.2-4.8l0.1-4.8c0.1-3.2,0.1-6.4,0.2-9.7c0-6.5-0.1-12.9-0.3-19.4
					c-0.4-13-1.4-26-3.2-39c-0.2-1.6-0.5-3.3-0.7-4.9c-0.3-1.6-0.5-3.3-0.8-4.9c-0.7-3.3-1.3-6.6-2.1-9.9l-0.6-2.5
					c-0.2-0.9-0.5-1.7-0.7-2.6l-0.8-2.6l-0.4-1.2c0-0.1,0-0.1-0.1-0.2l-0.4-1l-3.3-9l-0.8-2.2l-0.8-2.2l-1.5-4.4
					c-1-2.9-2-5.9-2.9-8.8c-0.9-3-1.8-5.9-2.7-8.9l-2.4-8.9c-1.5-6-2.8-12-3.9-18.1c-1.1-6-1.9-12-2.5-18c-1.2-12-1-24,0.8-35.6
					c1-5.7,2.3-11.4,4.3-16.7c1.7-4.5,3.7-8.8,6.1-12.8c0-0.1,0.1-0.1,0.1-0.2c0.2-0.4,0.5-0.9,0.8-1.3c0.2-0.3,0.3-0.5,0.5-0.8
					c3.1-4.7,6.7-9,10.8-12.8c4.1-3.8,8.5-7.4,13.2-10.9c4.7-3.5,9.7-6.8,15.2-9.3c2.8-1.2,5.6-2.4,8.5-3.3c0.7-0.2,1.5-0.5,2.2-0.8
					l2.2-0.9c0.7-0.3,1.4-0.7,2.2-1.2c0.4-0.2,0.7-0.4,1.1-0.6l0.6-0.3l0.3-0.2l0.1-0.1c0,0,2.4-1.8,2.4-1.8c0.1,0,0.1,0,0.2-0.1
					c0.8-0.4,1.6-1.2,2.2-1.6c1.2-0.9,2-2.1,3-3.2c1.8-2.2,3.9-4.1,6-6c2.1-1.9,4.3-3.4,6.6-4.9c2.3-1.5,4.7-2.7,7.2-3.7
					c9.9-4.1,21.1-4.3,31.8-1.6c5.4,1.3,10.7,3.3,15.8,5.6c5.1,2.3,10.1,5.1,15,8.1c4.9,3,9.6,6.2,14.3,9.5c2.2,1.6,14.9,8,16.4,8.8
					c0.1,0.1,0.2,0.1,0.3,0.2c0.8,0.6,1.7,1.1,2.5,1.6l1.8,1.1l0.9,0.5c1.8,1.1,3.6,2.1,5.4,3.1c3.6,2,7.1,4.2,10.5,6.5
					c3.4,2.4,6.7,4.8,9.8,7.3c5.3,4.4,8.7,8.8,15.8,10.2c8.7,1.7,15.6,4.4,22.2,10.6c0.5,0.5,1,1,1.5,1.5c0.1,0.1,0.2,0.2,0.3,0.3
					c0.4,0.4,0.8,0.8,1.1,1.2c0.1,0.1,0.2,0.2,0.4,0.4c0.5,0.5,0.9,1,1.4,1.5c0.4,0.5,0.9,1,1.3,1.6c0.6,0.7,1.2,1.4,1.7,2.2
					c0.4,0.5,0.8,1.1,1.2,1.6c0.3,0.4,0.6,0.8,0.9,1.3c0.1,0.1,0.2,0.3,0.3,0.4c0.1,0.1,0.2,0.3,0.3,0.4c0.4,0.6,0.8,1.1,1.1,1.7
					c0.6,0.8,1.1,1.7,1.6,2.6c0.5,0.9,1,1.8,1.5,2.6c0.4,0.7,0.7,1.3,1.1,2c0.1,0.1,0.1,0.2,0.2,0.3c0.2,0.3,0.4,0.7,0.6,1.1
					c0.4,0.7,0.7,1.4,1.1,2.1c4.6,9.2,8.2,19.1,11.1,29.1c1.4,5,2.7,10.1,3.9,15.2c1,4.8,2.1,9.7,2.4,14.6c0,0.6,0.2,1.1,0.6,1.6
					l0.7,0.8c0.2,0.3,0.6,0.6,0.9,0.7c1.8,0.9,3.6,1.8,5.3,3.1c1.9,1.3,3.7,2.9,5.5,4.5c0.5,0.5,1.1,1,1.6,1.6
					c0.2,0.2,0.3,0.3,0.5,0.5c0.5,0.5,1,1,1.5,1.5c0.1,0.1,0.1,0.2,0.2,0.2c0.5,0.6,1,1.1,1.6,1.7c0.6,0.6,1.1,1.2,1.6,1.9
					c0,0,0,0,0.1,0.1c0.9,1.1,1.8,2.1,2.6,3.2c3,3.8,5.8,7.8,8.5,11.9c2.7,4.1,5.3,8.3,7.7,12.5l0,0c0.4,0.7,1,1.2,1.8,1.3
					c5.6,1.4,11.3,2.8,16.7,4.5c2.7,0.8,5.4,1.8,7.8,2.9c0.6,0.3,1.1,0.6,1.7,0.9c0.3,0.1,0.5,0.3,0.7,0.5c0.2,0.2,0.5,0.3,0.7,0.5
					c0.9,0.7,1.5,1.6,2.2,2.8c0.7,1.2,1.5,2.5,2.4,3.8l0.3,0.5c0.1,0.2,0.2,0.3,0.3,0.4c0.1,0.2,0.3,0.4,0.4,0.7
					c0.1,0.2,0.2,0.5,0.3,0.7c0.1,0.3,0.2,0.5,0.3,0.8c0.2,0.6,0.3,1.3,0.4,2C1720.7-937.9,1720.6-935.9,1720.3-934z"/>
			</g>
		</g>
		<g>
			<g>
				<path  class="stx" d="M1619.4-855.5c1.2-0.2-4.9,5.7-5.4,6.5c-2.9,5-5.9,10.7-9.4,16.6l-1.5,2.5l-0.8,1.2c-0.2,0.4-0.5,1.2-0.6,2.2l-0.3,1.4
					c-0.1,0.4-0.2,0.9-0.3,1.2c-0.2,0.6-0.6,0.7-0.8,1l-1.8,1.5c-2.4,2.1-4.9,4.3-7.6,5.8c-2.7,1.5-5.5,1.9-8.3,1.8
					c-1.7-0.1-3.4-0.3-5.1-0.4c-1.1-0.1-2.2-0.2-3.4-0.4c-5.6-0.7-11.2-1.7-16.8-3c-5.5-1.3-11-3.1-16.3-5c-5.3-2-10.4-4.3-15.4-7
					c-4.9-2.6-9.7-5.5-14.1-8.7c-4.4-3.2-8.7-6.6-12.6-10.1c-4-3.6-7.6-7.4-11.1-11.3c-3.5-3.9-6.7-7.9-9.6-12.1
					c-5.9-8.3-10.8-17-14.9-25.8c-1-2.2-2-4.4-3-6.7c-0.9-2.2-1.8-4.5-2.6-6.8c-1.7-4.5-3.1-9.1-4.5-13.7
					c-2.5-9.2-4.5-18.4-5.2-27.8l0.9-0.3c3.2,8.4,7.2,16.5,11.6,24.3c4.4,7.8,9.4,15.3,14.8,22.4c5.4,7.1,11.3,13.8,17.7,19.9
					c6.4,6.1,13.3,11.5,20.7,16.2c7.4,4.6,15.2,8.5,23.3,11.3c8.1,2.8,16.5,4.7,25,5.5c4.2,0.4,8.5,0.6,12.8,0.5
					C1579.3-852.6,1614.3-854.8,1619.4-855.5z"/>
			</g>
		</g>
		<g>
			<g>
				<path  class="stx" d="M1491.7-793.6c0,0.7,0,1.4,0,2c0,0.7-0.1,1.3-0.3,1.8c-0.4,1.1-0.9,2.1-1.4,3.1l-1.4,3.1c-1.9,4.1-3.8,8.2-5.8,12.3
					c-2,4.1-4.3,7.9-7,11.5c-0.7,0.9-1.3,1.8-2,2.7c-0.7,0.9-1.4,1.7-2.2,2.6c0,0,0,0-0.1,0.1c-0.7,0.8-1.4,1.6-2.2,2.4
					c-0.8,0.8-1.7,1.5-2.7,2.2c-3.8,2.7-9.1,4-13.6,6c-2.2,1-4.2,2.2-6,3.5c-0.8,0.6-1.5,1.1-2.2,1.7c-1,0.8-2,1.7-3,2.6
					c-2.7,2.5-5.2,5.3-7.9,7.8c-0.6,0.5-1.2,1-1.8,1.5c-0.9,0.7-1.8,1.4-2.7,2.1c-0.9,0.7-1.8,1.4-3.1,1.7c-1.2,0.3-2.7,0.4-4.2,0.2
					c-1.6-0.2-3.2-0.5-5.2-1.3c-0.3-2.2-0.2-3.8-0.1-5.3c0.1-1.5,0.4-2.8,0.8-3.9c0.1-0.2,0.2-0.5,0.3-0.7c0.4-0.8,1-1.3,1.6-1.9
					c0.7-0.7,1.4-1.5,2.1-2.3l4.2-4.7c1.4-1.6,2.8-3.1,4.2-4.7l8.5-9.4l8.7-9.3c5.8-6.2,11.5-12.6,17.1-19.2
					c4.4-5.1,8.8-10.3,13-15.5c-0.5-0.4-0.9-0.8-1.3-1.2c-2-1.8-3.9-3.6-5.9-5.4c-1.9-1.8-3.4-3.9-4.8-6.1c-1.4-2.1-2.8-4.3-4.1-6.5
					c-5.2-8.7-9.4-17.7-13.2-26.8c-3.9-9.1-7.1-18.4-10.2-27.7c-3-9.3-5.9-18.7-8.3-28.2c1.6,0.8,2.5,1.7,3.1,2.8
					c0.6,1.1,1,2.2,1.5,3.3c0.9,2.2,1.9,4.5,2.8,6.7c1.9,4.5,3.9,8.9,5.9,13.3c2,4.4,4,8.8,6.2,13.1c2.1,4.3,4.3,8.6,6.5,12.9
					c4.5,8.5,9.3,16.7,14.8,24.4c1.4,1.9,2.8,3.8,4.2,5.5c1.5,1.8,3,3.5,4.4,5.3c2.5,3.1,6.3,4.5,8.8,7.4c2.5,2.9,1.8,6.5,3.2,9.8
					C1491.8-796.2,1491.7-795,1491.7-793.6z"/>
			</g>
		</g>
		<g>
			<g>
				<path  class="stx" d="M1683.1-894.6l-0.1,1c-7.4-0.1-14.6,1.4-21.4,4c-3.4,1.3-6.8,2.7-9.7,4.6c-3.2,2-6.5,3.8-9.9,5.5
					c-6.8,3.4-13.9,6.2-21.5,7.9c-1.9,0.4-3.8,0.8-5.7,1c-1.9,0.3-3.8,0.4-5.8,0.6c-1.9,0.1-3.9,0.1-5.9,0c-1-0.1-2-0.1-3-0.2
					c-1,0-2-0.4-2.6-2.9l0.2-1c1.3-2.1,2.1-2.3,2.9-2.2c0.9,0.1,1.7,0.1,2.6,0.1c1.8,0,3.5-0.1,5.3-0.2c1.8-0.1,3.5-0.3,5.3-0.5
					c1.8-0.2,3.5-0.5,5.3-0.9c7-1.3,14-3.4,20.7-6.2c3.4-1.4,6.6-3,9.9-4.7l1.2-0.7c0.5-0.3,0.9-0.4,1.4-0.7
					c0.9-0.4,1.8-0.7,2.7-1.1c1.8-0.7,3.6-1.3,5.4-1.8c3.7-1,7.4-1.7,11.2-2C1675.6-895.2,1679.4-895.2,1683.1-894.6z"/>
			</g>
		</g>
		<g>
			<g>
				<path  class="stx" d="M1687.2-933.2c-1.7,1.2-3.4,2.5-5.3,3.7c-1.8,1.2-3.8,2.2-6,3.1c-1.2,0.3-2.3,0.6-3.7,1.1c-0.3,0.1-0.7,0.3-1,0.3
					c-0.4,0-0.8,0.1-1.1,0.1s-0.8,0-1.1-0.2c-0.4-0.1-0.7-0.3-1.1-0.5c-0.4-0.2-0.7-0.4-1-0.7c-0.3-0.3-0.6-0.5-0.9-0.8
					c-0.5-0.6-1-1.3-1.2-2c-0.5-1.4-0.6-3,0.1-4.4l1-0.2c1.2,0.6,2.2,1,3,1.1c0.4,0.1,0.8,0.1,1.1,0.1c0.4,0,0.6,0.1,0.9,0
					c0.3,0,0.5,0.1,0.8,0.2c0.1,0.1,0.3,0.2,0.4,0.4c0.2,0.1,0.3,0.3,0.5,0.4c0.7,0.7,1.7,0.5,2.6,0.6c1.9-0.1,3.9-0.4,5.8-1
					l1.5-0.5c0.5-0.2,1-0.3,1.5-0.5c0.9-0.4,1.9-0.8,2.9-1.3L1687.2-933.2z"/>
			</g>
		</g>
		<g>
			<g>
				<path class="st5" d="M1485.6-1048.6"/>
			</g>
		</g>
		<g>
			<g>
				<path  class="stx" d="M1554.7-1028.2l-0.4,1.3c-6.2-1.7-12.1-4.4-17.5-8c-2.7-1.8-5.2-3.7-7.7-5.9c-1.2-1.1-2.4-2.2-3.5-3.4
					c-0.5-0.6-1.1-1.2-1.6-1.8c0,0,0,0,0,0l-0.8-0.9l-0.7-0.9c-2.1-2.3-4.3-4.4-6.8-6.2c-0.6-0.4-1.3-0.8-1.9-1.2
					c-0.7-0.3-1.3-0.7-2-1c-1.4-0.6-2.8-1-4.2-1.2c-2.9-0.4-5.8,0.2-8.4,1.6c-1.3,0.7-2.5,1.6-3.6,2.5c-0.6,0.5-1.1,1-1.6,1.6
					c-0.3,0.2-0.4,0.6-0.8,0.8c-0.1,0-0.2,0.1-0.3,0.1c-0.3,0.1-0.7,0.2-1.2,0.2l-0.3,0.2c-0.1,0.5-0.2,0.7-0.4,0.8
					c-0.1,0.1-0.3,0.1-0.4,0.2c-0.2,0.1-0.3,0.1-0.5,0.2c-0.1,0-0.2,0.1-0.4,0.1c-0.6,0.1-1.1,0.3-1.6,0.6c-0.5,0.3-0.9,0.7-1.2,1.2
					c-0.3,0.5-0.6,1.1-0.7,1.7l-1,0.1c-0.1-0.9,0-1.7,0.2-2.4c0.3-0.8,0.8-1.5,1.4-2.1c0.6-0.6,1.3-1,2.1-1.4
					c0.4-0.2,0.8-0.3,1.2-0.4c0.3,0,0.5-0.1,0.8,0c0-0.3,0-0.6,0.1-0.9c0.2-0.4,0.5-0.7,0.8-1c0.6-0.6,1.2-1.2,1.9-1.7
					c1.3-1.1,2.7-2,4.3-2.8c3-1.6,6.7-2.2,10.1-1.7c1.7,0.3,3.4,0.7,4.9,1.5c0.8,0.3,1.5,0.8,2.3,1.1c0.7,0.5,1.4,0.9,2.1,1.4
					c2.7,1.9,5,4.3,7.1,6.7l1.5,1.9c0.5,0.6,1,1.2,1.5,1.8c1,1.1,2.1,2.3,3.3,3.3c2.3,2.1,4.7,4.1,7.3,5.9
					C1543.1-1032.9,1548.8-1030.1,1554.7-1028.2z"/>
			</g>
		</g>
		<g>
			<g>
				<path  class="stx" d="M1525-1046.5c-0.3,0.2-0.6,0.4-0.9,0.5c-2.5,1.5-5.2,2.8-7.9,3.9c-3.1,1.2-6.4,2.2-9.8,2.5c-3.4,0.3-7.2,0-10.5-2
					c-1.6-1-3-2.3-4.1-3.9c-0.5-0.8-0.9-1.6-1.2-2.5c-0.2-0.5-0.3-0.9-0.4-1.4c-0.1-0.4-0.2-0.9-0.2-1.4l3-0.4
					c0,0.1,0.1,0.2,0.1,0.3c0.2,0.5,0.4,1.1,0.7,1.5c0.3,0.6,0.7,1.2,1.1,1.8c0.2,0.3,0.5,0.6,0.7,0.8c0.2,0.2,0.3,0.3,0.5,0.5l0,0
					c0.2,0.2,0.3,0.3,0.5,0.5c0.4,0.3,0.9,0.7,1.3,0.9c2.3,1.4,5.3,2,8.3,1.9c1.1,0,2.3-0.1,3.4-0.3h0c0.2,0,0.4-0.1,0.6-0.1
					c0.2,0,0.4-0.1,0.6-0.1c0,0,0,0,0,0c0.8-0.1,1.6-0.3,2.3-0.4c0.8-0.2,1.5-0.4,2.3-0.6c2.6-0.7,5.3-1.6,7.9-2.5
					c0.4-0.1,0.9-0.3,1.3-0.5L1525-1046.5z"/>
			</g>
		</g>
		<g>
			<g>
				<path  class="stx" d="M1509.1-1041.5c1-1.2,1.5-2.8,1.5-4.5c0-4.1-3.3-7.4-7.3-7.4c-4.1,0-7.4,3.3-7.4,7.4c0,0.9,0.2,1.9,0.5,2.7
					L1509.1-1041.5z"/>
			</g>
			<g>
				<path  class="stx" d="M1511.1-1046c0,0.9-0.2,1.8-0.5,2.6c-0.3,0.8-0.7,1.5-1.2,2.2l-0.4-0.3v0l-0.4-0.3c0.3-0.4,0.6-0.9,0.8-1.4h0
					c0.4-0.9,0.6-1.8,0.6-2.8c0-3.8-3.1-6.9-6.8-6.9s-6.9,3.1-6.9,6.9c0,0.1,0,0.2,0,0.3c0,0.8,0.2,1.5,0.5,2.2l-0.5,0.2l-0.5,0.2
					c-0.4-0.9-0.6-1.9-0.6-2.9c0-0.2,0-0.4,0-0.6c0.3-4,3.7-7.2,7.8-7.2C1507.6-1053.8,1511.1-1050.3,1511.1-1046z"/>
			</g>
		</g>
		<g>
			<g>
				<path  class="stx" d="M1444.1-1013.7l-0.3-1.7l-0.4-1.6c-0.1-0.5-0.3-1.1-0.4-1.6c-0.2-0.5-0.3-1.1-0.4-1.6l-1,0.3c0.2,0.5,0.4,1,0.6,1.5
					c0.1,0.5,0.2,1,0.3,1.6c0.1,1,0.1,2.1-0.2,3.1c-0.3,1-1,1.9-1.5,2.5c-0.3,0.3-0.5,0.6-0.7,0.9c-0.1,0.2-1.2-0.6-1.1-0.5
					c-4.3-4.9-7.6-8.3-11.9-12.8c-4.7-5-9.3-9.8-13.7-14.7c-4.4-4.9-8.6-9.8-12.3-14.7c-3.7-4.9-6.9-9.9-8.9-14.8
					c-1-2.4-1.7-4.7-2.1-6.9c-0.1-0.5-0.1-1-0.2-1.6c0-0.5-0.1-1-0.1-1.5c0-1,0-1.9,0.2-2.8c0.3-1.8,0.8-3.7,1.7-5.6
					c0.9-1.9,2.2-4,3.8-6.1c1.5-1.9,3.2-3.7,5-5.6c2.3-2.3,4.9-4.6,7.6-6.9c4.1-3.4,8.4-6.8,13-10.6c0.1-0.1,0.2,0,0.2,0
					c0.1,0.6,0.3,1.2,0.4,1.8c0.3,1.3,0.5,2.6,0.8,4c0.5,2.7,0.9,5.4,1.4,8.1c0,0,1.1,6.3,1.1,6.3l0.3,1.9c0.2,1.4,0.5,2.8,0.8,4.1
					c0.3,1.4,0.5,2.8,0.9,4.2h1c0.6-2.8,1-5.6,1.3-8.5c0-0.4,0.1-0.8,0.1-1.2c0.2-2.5,0.3-4.9,0.2-7.4c0-2.9-0.2-5.7-0.6-8.6
					c-0.1-0.9-0.2-1.8-0.4-2.7c-0.1-0.5-0.2-1.1-0.3-1.6c-0.1-0.7-0.3-1.4-0.5-2.2c0-0.4-0.2-0.7-0.7-1c-0.2-0.1-0.6-0.2-1-0.3
					c-0.2,0-2.2-0.5-2.2-0.5c-3.7-0.7-7.4-0.8-11.1-0.6c-3.7,0.2-7.4,0.8-11,1.6c-7.3,1.8-14.5,4.8-21.1,10.1c-2.6,2-5,4.4-7.1,7.2
					c-0.2,0.3-0.5,0.6-0.7,0.9c-0.2,0.3-0.5,0.7-0.7,1c-0.1,0.2-0.3,0.4-0.4,0.6c-1.3,1.9-2.4,4.1-3.3,6.3c-0.9,2.3-1.6,4.6-2,7.1
					c-0.9,4.8-0.7,9.8,0.3,14.3c0.9,4.5,2.5,8.7,4.4,12.4c3.9,7.5,8.9,13.4,14.2,18.7c5.3,5.2,11.1,9.7,17,13.6
					c9.9,6.6,20.6,12,31.8,15.9c2.5,0.9,4.6,2.7,7.3,2.9c0.5,0,2.2,0.2,2.6-0.1c0.7-0.5,0.3-2.4,0.4-3.2
					C1444.7-1011.3,1444.4-1012.6,1444.1-1013.7z"/>
			</g>
		</g>
		<g>
			<g>
				<path  class="stx" d="M1461.5-1027.8c-0.1,2.2-0.1,4.4-0.2,6.6c-0.2,2.2-0.4,4.4-0.7,6.6l-1,0c-1.2-8.6-3.2-16.9-5.2-25.2
					c-1-4.2-2.1-8.3-3.2-12.4c-1.2-4.1-2.2-8.3-3.4-12.4c-2.3-8.3-4.7-16.5-7.1-24.7l-3.7-12.3c-0.3-1-0.7-2-0.9-3.1
					c-0.2-1-0.3-2.1-0.3-3.3c0-1.1,0.2-2.3,0.5-3.5c0.4-1.2,0.9-2.5,1.8-3.9l0.9-0.3c1.6,0.6,2.7,1.4,3.8,2.2c1,0.8,1.8,1.7,2.5,2.7
					c0.7,0.9,1.2,1.9,1.6,2.9s0.7,2.1,1,3.1c1.2,4.2,2.4,8.4,3.5,12.6c2.2,8.4,4.1,16.9,5.8,25.5c0.8,4.3,1.5,8.6,2.2,12.9
					c0.6,4.3,1.2,8.7,1.5,13.1c0.2,2.2,0.4,4.4,0.4,6.6l0.1,3.3C1461.5-1030,1461.6-1028.9,1461.5-1027.8z"/>
			</g>
		</g>
		<g>
			<g>
				<path  class="stx" d="M1564.3-1082.2l-0.6,0.8c-1.8-1.1-3.5-2.3-5.3-3.4c-1.7-1.2-3.5-2.3-5.2-3.5l-5.2-3.5c-1.8-1.1-3.5-2.2-5.2-3.4
					c-7-4.5-14-9-21.2-13c-1.8-1-3.6-2-5.4-2.9l-2.7-1.4l-2.7-1.3c-3.7-1.7-7.4-3.3-11-4.2l-2.7-0.6l-1.3-0.2l-0.7-0.1l-0.6,0
					c-1.7-0.2-3.2,0.1-4.4,0.4c-1.2,0.4-2,0.8-3.2,1.8c-1,1.1-2.2,2.7-3.2,4.8c0,0,0,0.1,0,0.1l-1,0c-0.7-1.1-1.2-2.3-1.4-3.5
					c-0.3-0.5-0.5-0.9-0.8-1.4c-1-1.5-2-3-3.1-4.5c-2.2-3-4.5-5.8-6.8-8.7l-7-8.7c-1.1-1.5-2.2-3.1-3.1-4.7
					c-0.9-1.7-1.7-3.5-2.2-5.5l0.7-0.7c2,0.8,3.7,1.8,5.2,3c1.5,1.2,2.9,2.5,4.2,3.9c2.5,2.9,4.8,6,6.9,9.2c2.1,3.2,4.1,6.5,5.8,10
					c0.3,0.8,0.7,1.5,1,2.3c0-0.1,0.1-0.1,0.1-0.2c0.3-0.7,0.8-1.3,1.3-1.9c0.5-0.6,1.1-1.1,1.7-1.6c0.6-0.4,1.3-0.9,2-1.1
					c0.7-0.3,1.4-0.6,2.1-0.7c0.7-0.1,1.4-0.3,2-0.4l2-0.1c0.6,0,1.2,0,1.9,0.1l0.9,0.1l0.9,0.1l1.8,0.3c1.1,0.3,2.3,0.5,3.4,0.8
					c4.4,1.3,8.4,3.1,12.2,5.1l2.9,1.5l2.8,1.6c1.9,1.1,3.7,2.2,5.5,3.3c7.2,4.6,13.9,9.7,20.4,15.1
					C1552-1093.7,1558.3-1088.1,1564.3-1082.2z"/>
			</g>
		</g>
		<g>
			<g>
				<path  class="stx" d="M1595-1041.4c-0.4,2.5-1.2,5.1-2.4,7.4c-1.1,2.3-2.8,4.3-4.6,6.1c-0.5,0.4-0.9,0.8-1.4,1.2c-0.5,0.4-1,0.7-1.5,1.1
					c-1,0.7-2.1,1.3-3.1,1.8c-1.1,0.5-2.2,0.9-3.3,1.3c-1.2,0.3-2.3,0.6-3.5,0.8l-0.5-0.9c0.8-0.9,1.6-1.7,2.3-2.6
					c0.7-0.9,1.5-1.6,2.2-2.4c0.7-0.8,1.4-1.6,2-2.4c0.3-0.4,0.7-0.8,1-1.2c0.3-0.4,0.6-0.8,0.9-1.2c2.3-3.2,4-6.5,4.8-10.2
					c0.8-3.7,0.6-7.7-0.2-11.8c-0.8-4.1-2.1-8.2-3.8-12.4l0.8-0.6c3.6,3.1,6.3,7,8.2,11.4C1594.8-1051.6,1595.8-1046.6,1595-1041.4z
					"/>
			</g>
		</g>
		<g>
			<g>
				<path  class="stx" d="M1630.8-1032.2l-1,0.1c-1.1-3.5-2-6.9-3.2-10.3c-0.6-1.7-1.3-3.3-1.9-5l-1.1-2.4c-0.3-0.8-0.7-1.6-1.1-2.4
					c-1.5-3.2-3.1-6.3-4.9-9.4c-1.8-3-3.5-6.1-4.2-10l0.8-0.6c1.9,0.8,3.4,2.1,4.7,3.4c1.3,1.4,2.3,2.9,3.2,4.6
					c1.9,3.2,3.5,6.6,4.8,10.1c0.7,1.7,1.2,3.5,1.8,5.3c0.4,1.8,0.9,3.6,1.2,5.4C1630.7-1039.6,1630.9-1035.9,1630.8-1032.2z"/>
			</g>
		</g>
		<g>
			<g>
				<path  class="stx" d="M1673.3-1051.1c-0.2,1.3-0.4,2.5-0.8,3.6c-0.7,2.3-1.9,4.2-3.1,6c-1.2,1.8-2.6,3.4-4,5c-2.8,3-5.9,5.7-9.1,8.1
					c-1.6,1.2-3.2,2.4-4.9,3.5c-0.8,0.6-1.6,1.1-2.5,1.7c-0.3,0.2-0.7,0.4-1.1,0.5c-0.6,0.2-1.3,0.2-2.1,0.1l-0.6-0.8
					c0.2-1.4,0.8-2.2,1.6-2.8l0.4-0.3l1.8-1.5c1.5-1.2,2.9-2.5,4.3-3.8c2.8-2.6,5.4-5.4,7.6-8.3c2.2-2.9,4-6.1,4.7-9.1
					c0.2-0.7,0.2-1.5,0.3-2.2c0-0.7-0.1-1.4-0.2-1.8c-0.3-1-1-2.2-2.1-3.3s-2.3-2.2-3.7-3.2c-1.4-1-2.9-2-4.5-2.9
					c-3.2-1.8-6.5-3.4-10-4.9c-3.5-1.5-7-2.9-10.6-4.2c-0.6-0.2-1.2-0.4-1.8-0.7v0c-1.2-0.5-2.3-1.1-3.4-1.9
					c-1.6-1.2-3.2-2.6-4.6-4.8l0.3-1c1.1-0.5,2.1-0.8,3-1c1.2-0.3,2.4-0.4,3.6-0.4c2.1,0,4.1,0.5,5.9,1.1c3.8,1.3,7.6,2.7,11.3,4.3
					c3.7,1.7,7.4,3.4,10.9,5.7c3.5,2.2,7.1,4.8,10,8.5c1.5,1.9,2.8,4.2,3.3,7C1673.4-1053.7,1673.4-1052.4,1673.3-1051.1z"/>
			</g>
		</g>
	</g>
</g>
<g id="Lager_3" class="st6">
	<g class="st7">
		<defs>
			<path id="SVGID_1_" d="M297.7,569.1l-65.8,2c-25.4,0.8-45.1,22.4-43.7,47.8l6.2,105.9c1.1,19.5,14.7,36,33.6,41l55.4,14.5
				c21.4,5.6,43.8-5.2,52.7-25.4l19.2-43.6c3.7-8.4,4.7-17.7,3-26.6l-15-78.9C339.3,584,319.9,568.4,297.7,569.1z"/>
		</defs>
		<clipPath id="SVGID_2_">
			<use xlink:href="#SVGID_1_"  style="display:none;overflow:visible;"/>
		</clipPath>
		<g style="display:none;opacity:0.31;clip-path:url(#SVGID_2_);">

				<image style="display:inline;overflow:visible;" width="4873" height="2531" xlink:href="E66932DE.jpg"  transform="matrix(0.2678 0 0 0.2678 179.4639 68.901)">
			</image>
		</g>
	</g>

		<image style="display:inline;overflow:visible;" width="4873" height="2531" xlink:href="E66932D9.jpg"  transform="matrix(0.24 0 0 0.24 -954.6533 -119.992)">
	</image>
</g>
<g id="Lager_5">
</g>
<g id="Lager_6">
</g>
<g id="Lager_7">
	<g>
		<g>
			<path  class="stx" d="M1837.9,340.3c-1.6-22.2-22.4-34.8-39.7-50.6c-15.3-17.9-30.3-36.5-44.8-55c-16.3-22.5-32.4-45.1-50.2-66.5
				c-7.7-9.3-15.7-18.4-24.7-26.6c-9.1-8.3-18-11.8-28.5-17.6c-10.4-5.7-19.2-18.1-27.8-26.3c-7.8-7.4-15.7-14.8-24.2-21.4
				c-7.4-5.9-17.8-14.4-28.1-13c-7.6,1.1-13.2,7.7-18.4,12.7c-9,8.5-18.3,16.1-29.6,21.5c-3.6,1.7-9.1,5.1-13.1,5.3
				c-36.7,1.8-79.2-46.7-122-52c-29.9-2.8-57.5,1.9-83.6,11c-48.4,16.9-91.9,48.9-137.1,76.5c-36.8,22.5-74.8,41.9-117.2,47.7
				c-7,1-14.2,1.5-21.5,1.7c0,0,0,0,0,0c-1.7,0-3.3,0.1-5,0c-2.1,0.2-4.2,0.3-6.3,0.4c0,0,0,0,0,0c-59.2,4.1-120.4,6.3-182.2,7.4
				c0,0,0,0,0,0c-6.8,0.1-13.7,0.2-20.6,0.3h-0.1c-10,0.1-20,0.3-30,0.3c-6.6,0.1-13.3,0.1-19.9,0.2c-15.4,0.1-30.8,0.1-46.3,0.2
				c-85.8,0.1-171.5-0.8-253.9-0.4h0c-5.5,0-11,0-16.5,0.1c-73.9,0.8-151.5-0.2-225.4,2.6c-105.3,7.9-137.8,132.7-110.6,219.4
				c10.2,44.2,20.6,88.8,31.5,133.2c8.5,34.8,17.4,69.6,26.7,104c2.9,10.2,18.7,7.5,17.4-3.4c-6-49.6-12.9-99-20.2-148.4
				c-7.8-52.8-22.7-106.4-10-159.7c9.3-39,32.8-78.1,70.5-95.1c46.6-21.1,100.7-20.4,152.2-20.6h0.1c11,0,21.9-0.1,32.6-0.5
				c55.6-1.9,111.2-3.5,166.8-5.3c15.3-0.5,30.7-0.6,46-1.5c36.6-2.2,73.2-3.2,109.9-3.4c0,0,0,0,0,0c11.6-0.1,23.2-0.1,34.8-0.1
				c0,0,0,0,0,0c69.3,0.2,138.6,2.2,207.8,1.8h0.1c24-0.1,48-0.5,72-1.4c18.7-0.7,37.5-1.6,56.2-2.9c18.5-1.3,37.2-3.9,56-6
				c1.7-0.2,3.4-0.4,5-0.6c34.9-3.8,69.8-5.4,103.4,6.7c35.2,12.6,62,38.7,77.9,72.2c36.9,77.6,25.4,174.9,13.4,257
				c-0.5,3.1-0.9,6.3-1.3,9.4c-1,7.8-2,15.7-3.1,23.7c-0.8,6-1.7,12-2.7,17.9c-1.7,10-3.8,19.8-6.6,29.1c-5.1,16.9,5,46.1,26.3,32.2
				c13.1-11.2,15.6-28.3,23.7-42.6c2.8-6,5.7-11.7,8.7-17.1c0.3-0.5,0.6-1,0.8-1.5c9-16,19-29.8,29.4-41.6
				c37.9-43,82-60.6,109.8-70.9c50.3-11.4,105.4-4.2,141.9-48.9c31.2-31.7,135.4-12.7,125.8-49.6c0-0.1,8.7-6.4,9.2-6.9
				c5.7-5.3,10-11.6,12.4-19.1C1837.6,351.6,1838.3,345.7,1837.9,340.3z M1642.5,377.6c-46.9,2.6-91.1,49.5-136.7,61.2
				c-114.3,29.3-92.8-119.8-128.1-183.2c-10.7-19.4-25-36.8-41.7-51.2c-8.5-7.4-17.7-13.8-27.3-19.7c-8.1-4.9-19.2-7.5-25.8-14.3
				c-14.1-14.5-3.3-31.4,10.8-39.5c14.5-8.4,30.3-10,46-14.5c40.3-11.7,74,16.5,108.4,32.5c41.3,19.2,82.4,5,124.4-4
				c6.8-1.4,13.8-2.9,20.6-1.9c9,1.4,20.4,11.6,25.6,19c7.2,10.3,7.2,7.5,4.8,21.4c-3.5,20.3-20,36.6-23.3,57.4
				c-6.6,39.9,48.5,82.1,78.5,48.5c18.6-29-13.3-46-36.3-55c-13.9-8.2-3.3-26.1,6.6-32.1c29.6-3.2,49.2,28.7,66.7,46.7l-0.1-0.6
				C1809.5,343.1,1747.6,371.7,1642.5,377.6z"/>
		</g>
		<g>
			<g>
				<g>
					<path  class="stx" d="M302.8,869.5c-1-0.2-2,0.3-2.4,1.3c-3.9,9.8-7.9,17-11.8,21.7c-4.2,4.9-8.8,8.4-13.8,10.3c-5,1.9-13.8,2.9-26.3,2.9
						h-11.9c-10.5,0-16.7-0.4-18.7-1.3c-2-0.8-3.5-2.2-4.4-3.9c-1.3-2.6-1.9-7.4-1.9-14.4V778.2c0-10.2,0.6-16.7,1.9-19.4
						c1.3-2.7,3.7-4.9,7.1-6.7c3.2-1.6,8.6-2.5,16.1-2.5c1.1,0,2.1-1,2.1-2.2v-0.3c0-1.2-0.9-2.2-2.1-2.2h-44
						c-0.1,0.1-0.3,0.1-0.4,0.2c-0.3,0.1-0.6,0.3-1,0.5c-0.3,0.2-0.7,0.4-1,0.7c-0.4,0.3-0.7,0.5-1.1,0.9c-0.2,0.2-0.4,0.3-0.6,0.5
						c-0.2,0.2-0.4,0.4-0.6,0.6c-0.4,0.4-0.8,0.8-1.1,1.3c-1,1.2-1.9,2.7-2.8,4.5l0,0c0.4,0.4,0.8,0.8,1.1,1.2
						c2.2,2.7,3.4,9.4,3.4,20.1v110.8c0,9.8-0.8,16-2.5,18.7c-0.9,1.4-1.9,2.6-3.1,3.6c-0.1,0.1-0.2,0.1-0.3,0.2
						c0.1,0.1,0.2,0.2,0.3,0.3c1.4,1.6,5.1,5,11.6,6.9c0,0,0,0,0.1,0l4.4,0.8h90.7c0.9,0,1.7-0.6,2-1.6l12.8-42.7
						C304.7,871.1,304,869.7,302.8,869.5z"/>
				</g>
				<g>
					<path  class="stx" d="M365.8,755.8c3-4.1,7.9-6.2,14.5-6.2h3.8c1.2,0,2.1-1,2.1-2.2v-0.3c0-1.2-0.9-2.2-2.1-2.2h-65.5c-1.2,0-2.1,1-2.1,2.2
						v0.3c0,1.2,0.9,2.2,2.1,2.2h3.7c3.8,0,7.5,1,11,3c2.5,1.5,4.1,3.3,4.9,5.4c1,2.8,1.6,8.5,1.6,17.2v110.9
						c0,10.3-1,16.8-2.9,19.5c-3,4.1-7.9,6.2-14.6,6.2h-3.7c-1.2,0-2.1,1-2.1,2.2v0.3c0,1.2,0.9,2.2,2.1,2.2h65.5
						c1.2,0,2.1-1,2.1-2.2v-0.3c0-1.2-0.9-2.2-2.1-2.2h-3.8c-3.8,0-7.5-1-10.9-3c-2.6-1.5-4.2-3.3-5-5.4c-1-2.8-1.6-8.5-1.6-17.2
						V775.3C362.8,765,363.8,758.5,365.8,755.8z"/>
				</g>
				<g>
					<path  class="stx" d="M585.2,756.2c2.9-4.4,7.8-6.6,14.8-6.6h3.5c1.2,0,2.1-1,2.1-2.2v-0.3c0-1.2-0.9-2.2-2.1-2.2h-42.6
						c-0.8,0-1.6,0.5-1.9,1.3l-55.6,128.6c-0.7,1.7-3.1,1.7-3.8,0l-56.6-128.7c-0.3-0.8-1.1-1.3-1.9-1.3h-42.7c-1.2,0-2.1,1-2.1,2.2
						v0.3c0,1.2,0.9,2.2,2,2.2c5.6,0.1,9.7,1,12.4,2.4c3,1.7,5.1,3.7,6.2,6.1c1.6,3.4,2.4,8.9,2.4,16.5v112.2
						c0,9.6-0.9,15.8-2.6,18.5c-2.9,4.4-7.8,6.6-14.6,6.6h-3.7c-1.2,0-2.1,1-2.1,2.2v0.3c0,1.2,0.9,2.2,2.1,2.2h52.5
						c1.2,0,2.1-1,2.1-2.2v-0.3c0-1.2-0.9-2.2-2.1-2.2h-3.7c-6.4,0-11.1-1.8-14-5.3c-2.2-2.6-3.2-9.2-3.2-19.8V782.2
						c0-2.4,3.1-3.1,4-0.9l58.3,133.9c0.3,0.8,1.1,1.3,1.9,1.3h1.3c0.8,0,1.6-0.5,1.9-1.3l58.2-133.9c0.9-2.2,4-1.5,4,0.9v104.5
						c0,9.6-0.9,15.8-2.6,18.5c-2.8,4.4-7.7,6.6-14.6,6.6h-3.7c-1.2,0-2.1,1-2.1,2.2v0.3c0,1.2,0.9,2.2,2.1,2.2h64.9
						c1.2,0,2.1-1,2.1-2.2v-0.3c0-1.2-0.9-2.2-2.1-2.2H600c-6.4,0-11.1-1.8-14-5.3c-2.2-2.6-3.4-9.2-3.4-19.8V774.7
						C582.6,765,583.5,758.9,585.2,756.2z"/>
				</g>
				<g>
					<path  class="stx" d="M755.6,766.4c-15.5-16.9-33.8-25.4-54.9-25.4c-21.3,0-39.6,7.5-54.9,22.4c-17.6,17.2-26.4,39.5-26.4,66.7
						c0,26.7,7.6,48.4,22.9,65.2c15.2,16.8,34.1,25.2,56.5,25.2c22.2,0,41.1-8.6,56.7-25.8c15.6-17.2,23.4-38.9,23.4-64.9
						C778.9,804.4,771.1,783.3,755.6,766.4z M736.4,892.6c-10,12.6-22.6,18.9-37.9,18.9c-14.3,0-25.9-5.7-34.6-17.2
						c-11.4-15.1-17-36.7-17-64.7c0-27.3,5.5-48.1,16.5-62.3c8.8-11.4,20.5-17.1,35-17.1c15.5,0,27.7,5.7,36.5,17.2
						c11,14.4,16.4,36.3,16.4,65.7C751.4,860.2,746.4,880.1,736.4,892.6z"/>
				</g>
				<g>
					<path  class="stx" d="M961.2,744.9h-53.4c-1.2,0-2.1,1-2.1,2.2v0.3c0,1.2,0.9,2.2,2.1,2.2h4c6.2,0,10.8,1.9,13.9,5.6
						c2.2,2.7,3.4,9.4,3.4,20.1v69.5c0,18.2-1.5,31.2-4.6,38.8c-3.1,7.6-8.8,13.9-17.2,18.8c-8.4,4.9-17.9,7.3-28.6,7.3
						c-8.3,0-15.4-1.6-21.1-4.7c-5.7-3.1-10.1-7.1-13.1-11.9c-3-4.8-5.1-11.5-6.3-20.1c-1.2-8.6-1.7-16.2-1.7-22.9v-74.8
						c0-9.6,1-16,3-19c2.9-4.5,7.7-6.7,14.4-6.7h4.1c1.1,0,2.1-1,2.1-2.2v-0.3c0-1.2-0.9-2.2-2.1-2.2h-66.2c-1.2,0-2.1,1-2.1,2.2
						v0.3c0,1.2,0.9,2.2,2.1,2.2h4c6.2,0,10.6,1.6,13.4,4.9c2.8,3.3,4.1,10.2,4.1,20.8v67.1c0,20.7,1.3,34.8,3.8,42.3
						c3.8,11,10.4,19.7,19.6,26.2c9.2,6.5,22.7,9.7,40.5,9.7c16.3,0,29.2-3.4,38.7-10.2c9.5-6.8,15.8-14.9,19.1-24.4
						c3.2-9.5,4.9-22.8,4.9-40.1v-69.6c0-9.5,0.8-15.6,2.5-18.2c3.4-5.6,8.4-8.5,14.8-8.5h4c1.2,0,2.1-1,2.1-2.2v-0.3
						C963.3,745.9,962.3,744.9,961.2,744.9z"/>
				</g>
				<g>
					<path  class="stx" d="M1084.9,853.1c-3-6.2-7.3-11.7-12.8-16.3s-15.9-11.2-31.1-19.8c-18.6-10.6-30.5-19-35.4-25.3
						c-3.4-4.3-5.2-9.1-5.2-14.3c0-6.8,2.7-12.9,8.2-18.3c5.4-5.4,12.3-8,20.6-8c7.4,0,14.5,2,21.4,6c6.9,4,12.2,9.3,15.9,16.1
						c3.5,6.4,6,14.8,7.5,25.3c0.2,1.1,1,1.9,2.1,1.9h0.5c1.2,0,2.1-1,2.1-2.2v-54.9c0-1.2-0.9-2.2-2.1-2.2h-0.7c-1,0-1.8,0.7-2,1.7
						c-0.8,3.1-1.7,5.1-2.8,6.2c-1.3,1.3-3,2-5.1,2c-1.8,0-5-1.1-9.5-3.2c-9.7-4.5-18.8-6.7-27.5-6.7c-13.8,0-25.3,4.5-34.2,13.4
						c-9,8.9-13.4,19.5-13.4,31.8c0,7.1,1.5,13.6,4.6,19.5c3,5.9,7.5,11.3,13.4,16.2c5.9,4.9,15.8,11.5,29.7,19.7
						c13.9,8.2,22.5,13.6,25.6,16.1c4.6,3.7,8.1,7.7,10.3,12c2.2,4.3,3.3,8.6,3.3,12.8c0,7.6-2.9,14.2-8.7,19.8
						c-5.8,5.6-13.7,8.4-23.7,8.4c-8.6,0-16.6-2-23.8-6.1c-7.2-4.1-12.6-9.1-16.1-15.3c-3.3-5.8-6-14.4-8.1-25.8
						c-0.2-1-1-1.8-2.1-1.8h-0.6c-1.2,0-2.1,1-2.1,2.2v54.4c0,1.2,0.9,2.2,2.1,2.2h0.6c1,0,1.9-0.8,2.1-1.8c0.6-3,1.3-5,2.3-6
						c1.2-1.3,2.7-1.9,4.7-1.9c2.1,0,7,1.3,14.8,4c7.8,2.7,12.9,4.2,15.4,4.6c4.2,0.8,8.6,1.1,13.3,1.1c15,0,27.3-4.7,36.9-14.1
						c9.6-9.4,14.4-20.6,14.4-33.6C1089.4,865.9,1087.9,859.4,1084.9,853.1z"/>
				</g>
				<g>
					<path  class="stx" d="M1158.1,755.8c3-4.1,7.9-6.2,14.5-6.2h3.8c1.2,0,2.1-1,2.1-2.2v-0.3c0-1.2-0.9-2.2-2.1-2.2h-65.5c-1.2,0-2.1,1-2.1,2.2
						v0.3c0,1.2,0.9,2.2,2.1,2.2h3.7c3.8,0,7.5,1,11,3c2.5,1.5,4.1,3.3,4.9,5.4c1,2.8,1.6,8.5,1.6,17.2v110.9
						c0,10.3-1,16.8-2.9,19.5c-3,4.1-7.9,6.2-14.7,6.2h-3.7c-1.2,0-2.1,1-2.1,2.2v0.3c0,1.2,0.9,2.2,2.1,2.2h65.5
						c1.2,0,2.1-1,2.1-2.2v-0.3c0-1.2-0.9-2.2-2.1-2.2h-3.8c-3.8,0-7.5-1-10.9-3c-2.6-1.5-4.2-3.3-5-5.4c-1-2.8-1.6-8.5-1.6-17.2
						V775.3C1155.1,765,1156.1,758.5,1158.1,755.8z"/>
				</g>
				<g>
					<path  class="stx" d="M1353.8,748.3c-0.2-0.2-0.4-0.4-0.6-0.6c-0.2-0.2-0.4-0.4-0.6-0.5c-0.4-0.3-0.7-0.6-1.1-0.9c-0.4-0.3-0.7-0.5-1-0.7
						c-0.3-0.2-0.7-0.4-1-0.5c-0.2-0.1-0.3-0.1-0.4-0.2c0,0-0.1,0-0.1,0H1304c-1.2,0-2.1,1-2.1,2.2v0.3c0,1.2,0.9,2.2,2.1,2.2h3.5
						c6.4,0,11.1,1.8,14,5.3c2.2,2.6,3.4,9.2,3.4,19.7v92.8c0,2.1-2.5,3-3.7,1.4l-95.2-123.1c-0.4-0.5-1-0.8-1.6-0.8h-41.1
						c-1.2,0-2.1,1-2.1,2.2v0.3c0,1.2,0.9,2.2,2.1,2.2c3.7,0.1,6.5,0.5,8.5,1.1c4.7,1.6,8.3,3.3,10.7,5.2c2.1,1.6,5.2,4.8,9.1,9.5
						l0.1-0.3l27,35l0,0.1l91.9,118.4c0.3,0.3,0.6,0.6,1,0.7c0.2,0.1,0.4,0.1,0.6,0.1h1.2c1.2,0,2.1-1,2.1-2.2V774.7
						c0-9.6,0.9-15.8,2.6-18.5c2.9-4.4,7.8-6.6,14.6-6.6h2.2C1354.6,749.1,1354.2,748.7,1353.8,748.3z"/>
				</g>
			</g>
			<g>
				<path  class="stx" d="M208.8,916.6c0.2-0.1,0.3-0.2,0.5-0.3c0.5-0.4,0.9-1.1,0.9-1.8l-0.6-149.2v-0.2c0.1-1.1,1.1-11.4,11.2-14.1
					c5.6-1.5,9-1.7,11-1.6c1.3,0.1,2.4-1,2.4-2.3c0-0.6-0.3-1.2-0.7-1.6c-0.3-0.3-0.6-0.5-1-0.6c-0.2-0.1-0.4-0.1-0.6-0.1l-37.5-0.5
					c0,0-1.2-0.1-2.9,0.6c-0.1,0.1-0.3,0.1-0.4,0.2c-0.3,0.1-0.6,0.3-1,0.5c-0.3,0.2-0.7,0.4-1,0.7c-0.4,0.3-0.7,0.5-1.1,0.9
					c-0.2,0.2-0.4,0.3-0.6,0.5s-0.4,0.4-0.6,0.6c-0.4,0.4-0.8,0.8-1.1,1.3c-1,1.2-1.9,2.7-2.8,4.5c0,0,0,0,0,0
					c-2.2,4.3-4.1,10.4-5.3,19.1c-3.8,28.5,4.3,62.2,5,64.9c0,0.1,0,0.2,0.1,0.4c0.3,3.3,3.7,47.9-1.7,56.4c-5.6,8.8,0,13,0,13
					s0.1,0.2,0.4,0.6c0.1,0.1,0.2,0.2,0.3,0.3c1.5,1.7,5.5,5.4,12.6,7.2c0,0,0,0,0.1,0c0.7,0.2,1.5,0.3,2.3,0.5
					c0.6,0.1,1.3,0.2,2,0.3H208.8z"/>
			</g>
			<g>
				<path  class="stx" d="M1359.7,897.3c5.6,8.9,0,13.2,0,13.2s-0.1,0.2-0.4,0.6c-0.1,0.1-0.2,0.2-0.3,0.3c-1.5,1.7-5.5,5.5-12.6,7.3
					c0,0,0,0-0.1,0c-0.7,0.2-1.5,0.3-2.3,0.5c-0.6,0.1-1.3,0.2-2,0.3h-10c-0.1-0.1-0.3-0.1-0.4-0.2c0,0-0.1,0-0.1-0.1
					c-0.5-0.4-0.9-1.1-0.9-1.9l0.6-151.7v-0.2c-0.1-1.1-1.1-11.6-11.2-14.3c-5.6-1.5-9-1.7-11-1.6c-1.3,0.1-2.4-1-2.4-2.4
					c0-0.6,0.3-1.2,0.7-1.7c0.3-0.3,0.6-0.5,1-0.6c0,0,0.1,0,0.1,0c0.2-0.1,0.3-0.1,0.5-0.1l37.5-0.5c0,0,1.1-0.1,2.8,0.6
					c0,0,0.1,0,0.1,0c0.1,0.1,0.3,0.1,0.4,0.2c0.3,0.1,0.6,0.3,1,0.5c0.3,0.2,0.7,0.4,1,0.7c0.4,0.3,0.7,0.6,1.1,0.9
					c0.2,0.2,0.4,0.3,0.6,0.5c0.2,0.2,0.4,0.4,0.6,0.6c0.4,0.4,0.8,0.8,1.1,1.3c0,0,0,0,0,0c1,1.2,1.9,2.7,2.8,4.5c0,0,0,0,0,0
					c2.2,4.3,4.1,10.5,5.3,19.5c3.8,29-4.3,63.2-5,65.9c0,0.1,0,0.3-0.1,0.4C1357.8,843.2,1354.3,888.7,1359.7,897.3z"/>
			</g>
			<g>
				<g>
					<path  class="stx" d="M1246.9,914.1v0.3c0,1.2-0.9,2.2-2.1,2.2h-52.5c-1.2,0-2.1-1-2.1-2.2v-0.3c0-1.2,0.9-2.2,2.1-2.2h3.5
						c7,0,11.9-2.2,14.8-6.6c1.8-2.7,2.6-8.9,2.6-18.5V770c0-1.7-0.6-3.3-1.7-4.6l0.1-0.3c9,11.7,18.1,23.3,27,35l-10.9-14.1
						c-0.5-0.7-1.3-1.1-2.2-0.9c-1.4,0.2-1.7,1.9-1.7,3.2c0,32.4,0,64.8,0,97.2c0,0.4,0,0.9,0,1.3c0,10.6,1.1,17.1,3.2,19.8
						c3,3.5,7.7,5.3,14,5.3h3.7C1246,911.9,1246.9,912.9,1246.9,914.1z"/>
				</g>
				<g>
					<path  class="stx" d="M1246.9,914.1c0,0.6-0.1,1.2-0.5,1.7c-0.3,0.5-0.9,0.8-1.5,0.8l-3.5,0l-7,0l-14,0l-28,0c-0.6,0-1.2-0.2-1.6-0.7
						c-0.4-0.4-0.6-1-0.6-1.6c0-0.6,0.1-1.2,0.5-1.7c0.4-0.5,0.9-0.8,1.5-0.8c2.3,0,4.7,0.1,7-0.2c2.3-0.3,4.6-0.9,6.6-2
						c2-1.1,3.8-2.8,5-4.8c1.1-2.1,1.5-4.4,1.8-6.7c0.3-2.3,0.4-4.6,0.5-7c0.1-4.7,0-9.3,0.1-14l0-56.1l0-28l0-14l0-7
						c0-1.2,0.1-2.3-0.2-3.5c-0.2-1.1-0.8-2.2-1.5-3l0-0.1l0-0.1l0.1-0.3l0.1-0.3l0.2,0.3l13.5,17.5c4.5,5.8,9,11.7,13.4,17.6
						l-0.2,0.1l-6.4-8.2l-3.2-4.1c-0.5-0.7-1.1-1.4-1.6-2c-0.5-0.6-1.4-0.9-2.2-0.6c-0.7,0.3-1,1.2-1,2c0,0.8,0.1,1.7,0.2,2.6
						c0.2,1.7,0.4,3.5,0.8,5.2c0.6,3.5,1.6,6.9,2.4,10.4c0.9,3.5,1.7,6.9,2.2,10.4c0.5,3.5,0.6,6.9,0.6,10.4
						c0,6.9-0.3,13.8-0.7,20.7c-0.8,13.8-2.4,27.6-3.7,41.4c-0.3,3.4-0.5,6.8-0.3,10.2c0.1,1.7,0.3,3.4,0.7,4.9
						c0.2,0.8,0.5,1.6,0.8,2.3c0.3,0.7,0.9,1.3,1.5,1.9c1.2,1.2,2.6,2.1,4.2,2.8c1.6,0.7,3.2,1.1,4.9,1.3c0.9,0.1,1.7,0.2,2.6,0.2
						c0.9,0,1.7,0,2.6,0l1.3,0c0.4,0,0.9,0,1.3,0.2C1246.4,912.4,1246.9,913.2,1246.9,914.1z M1246.9,914.1c0-0.9-0.5-1.7-1.3-2
						c-0.4-0.2-0.8-0.2-1.3-0.1l-1.3,0c-1.7,0-3.5,0.1-5.2-0.1c-1.7-0.1-3.5-0.5-5.1-1c-1.7-0.6-3.3-1.4-4.7-2.5
						c-0.3-0.3-0.7-0.6-1-0.9c-0.3-0.3-0.7-0.7-0.9-1.1c-0.6-0.8-0.9-1.6-1.3-2.4c-0.7-1.7-1.1-3.4-1.5-5.2c-0.7-3.5-1.2-7-1.5-10.5
						c-1.3-13.8-2.9-27.6-3.7-41.4c-0.4-6.9-0.6-13.8-0.6-20.7c-0.1-3.5,0.1-6.9,0.6-10.4c0.5-3.5,1.3-6.9,2.2-10.4
						c0.9-3.5,1.8-6.9,2.4-10.4c0.3-1.7,0.6-3.5,0.8-5.2l0.1-1.3c0-0.4,0.1-0.9,0.1-1.3c0.1-0.4,0.2-0.9,0.4-1.3
						c0.2-0.4,0.6-0.8,1-0.9c0.9-0.3,1.9,0,2.5,0.7c0.6,0.7,1.1,1.4,1.6,2.1l3.1,4.1l6.3,8.2l-0.2,0.1c-4.4-5.9-9-11.7-13.5-17.5
						l-13.5-17.5l0.3-0.1l-0.1,0.3l0-0.1c0.8,0.9,1.3,2,1.6,3.2c0.1,0.6,0.2,1.2,0.2,1.8l0,1.8l0,7l0,14l0,28l0,56.1
						c0,4.7,0.1,9.3-0.1,14c-0.1,2.3-0.2,4.7-0.5,7c-0.3,2.3-0.7,4.7-1.8,6.8c-1.2,2-2.9,3.7-5,4.8c-2.1,1.1-4.4,1.7-6.7,2
						c-2.3,0.3-4.7,0.2-7,0.2c-0.6,0-1.1,0.3-1.5,0.8c-0.4,0.4-0.5,1-0.5,1.6c0,0.6,0.2,1.2,0.6,1.6c0.4,0.4,1,0.7,1.5,0.7l28,0
						l14,0l7,0l3.5,0c0.6,0,1.1-0.3,1.5-0.8C1246.8,915.3,1247,914.7,1246.9,914.1z"/>
				</g>
			</g>
		</g>
		<g>
			<path class="st8" d="M529.4,564.2c-0.7-8-2.4-16-5.2-24.1c-15.6-45.4-60.1-68.6-104.6-77.7c-0.7-0.1-0.7-1.1-0.1-1.3
				c49.4-16.1,100.4-53.4,89.8-111.7c-17.3-95.2-114-102.7-193.4-98.8c-43,2.1-85.5,11.6-113.7,47.6c-23.8,30.4-29,70-25.9,107.4
				c7.1,85,27.1,168.1,35.4,252.7c0.8,8.6-0.9,18.1-7.5,23.6c-1.7,1.5-3.8,2.6-5.3,4.3c-7.9,8.8,11.5,15.1,17.1,16.8
				c16,4.7,32.2,3.1,48.2-1.1c25.6-6.7,49.8-13,76.2-16.1c28.1-3.3,56.3-5.4,84.6-6.8C485.9,676.1,534.5,623,529.4,564.2z
				 M323,276.5c41.4,0.2,77.4,34.8,82.3,74.3C416.7,443,323.1,451,322.9,451c-28.6,2.4-26.2-29.8-26.3-48.7
				c-0.3-33.7-0.4-67.3-0.3-101c0-4.6,0.1-9.4,2-13.6c3.1-6.6,10.6-10.3,17.9-10.9C318.5,276.6,320.7,276.5,323,276.5z M326.3,659
				c-1,0-2-0.1-2.9-0.2c-13.9-0.9-29.3-10-26.5-25.9c0.1-40.5,0.2-81,0.4-121.6c0-5.9,0.1-12,2.4-17.4c4.7-10.8,17.8-14.9,28.8-14.2
				c45.7,2.6,85.5,34.9,91.3,81.4C426.9,618.6,382.3,661.3,326.3,659z"/>
		</g>
		<g>
			<path  class="stx" d="M771.2,237.7c-118.6-5.9-220,94-226.4,223.2c-6.4,129.2,84.5,238.7,203.1,244.6c115.7,5.8,215.6-94.2,222-223.4
				C976.3,352.9,889.8,243.6,771.2,237.7z M745.7,665.1c-53.4-2.7-102.3-80.7-96.4-198.1c5.8-117.4,65.3-185.5,118.6-182.8
				c53.4,2.7,103.4,76.2,97.5,193.6C859.5,595.2,799.1,667.8,745.7,665.1z"/>
			<path  class="stx" d="M747.9,706c-118.7-5.9-210.1-115.9-203.7-245.2c6.4-129.3,108.3-229.7,227-223.7c57.3,2.9,109.4,29.9,146.7,76.2
				c37.1,45.9,55.7,105.9,52.6,168.8C964.1,611.3,864.2,711.8,747.9,706z M771.2,238.3c-118.1-5.9-219.4,94-225.8,222.6
				c-6.4,128.6,84.5,238.1,202.5,243.9c115.7,5.8,215-94.2,221.4-222.8C975.8,351.2,888.8,244.1,771.2,238.3z M747.2,684.9
				c-26.4-1.3-52.6-25.3-71.7-65.9c-20.1-42.5-29.6-96.5-26.9-151.9c2.8-55.5,17.6-108.5,41.8-149.2c23.2-38.9,51.6-60.5,77.9-59.2
				c26.3,1.3,52.3,25.6,71.2,66.6c19.8,42.8,29.1,97,26.4,152.6c-2.8,55.5-17.4,108.3-41.3,148.5
				C801.8,664.9,773.6,686.2,747.2,684.9z M768.4,259.9c-25.9-1.3-53.9,20.1-76.9,58.6c-24.1,40.5-38.9,93.3-41.7,148.6
				c-6,120.9,46.5,214,97.4,216.6c25.9,1.3,53.7-19.8,76.4-57.9c23.8-40.1,38.4-92.6,41.2-147.9c2.8-55.4-6.6-109.4-26.2-152
				C819.8,285.2,794.2,261.2,768.4,259.9z"/>
		</g>
		<g>
			<path  class="stx" d="M999.2,316l0,321.8c0,0,0.2,47.7,25.2,49.1c15.2,0.8,40.7-14.6,43.8-30.5c1.8-9.2-3.7-18-3.5-27.2
				c0.1-4.6,0.1-9.3,0.2-13.9c0.2-13.8,0.4-27.7,0.5-41.5c0.5-35.3,0.9-70.7,1.4-106c0.4-27.3,0.7-54.7,1.1-82
				c0-2.2,2.7-2.8,4.1-1.1c63.9,72.2,109.4,161.5,154.1,246.3c9.5,18.1,17.9,37.8,29.1,54.8c9.5,14.3,22,25,40.1,23.3
				c13.1-1.2,29-7.1,36.4-18.6c1.3-2,2.4-4.5,1.5-6.7c-0.9-2.4-3.6-3.5-5.7-4.9c-8.4-5.9-7.3-21.4-6.9-30.3
				c0.9-17.8,56-272.3-8-367.7c0,0-30.2-42.8-61.5-31.3c-13.1,4.8-2.8,20.5-0.5,29.3c9.5,36.4,4.2,79.5,4.5,117.1
				c0.2,25.1,0.4,50.1,0.5,75.2c0,3.2-4.1,4.5-5.9,1.9l-139.4-200.5c0,0-12.9-27.6-48.8-22.4h-93.7c0,0-10.1,4.6,0,12.6
				C967.7,262.7,993.5,266.5,999.2,316z"/>
			<path  class="stx" d="M1291.6,709.8c-14.3,0-26.4-7.8-37-23.8c-7.7-11.6-14.1-24.6-20.3-37.2c-2.9-5.8-5.8-11.9-8.9-17.7l-7.1-13.5
				c-42.5-80.8-86.4-164.4-146.9-232.7c-0.7-0.8-1.6-0.9-2.2-0.7c-0.6,0.2-0.9,0.7-0.9,1.4l-3.1,234.2c0,3.1-0.1,6.3-0.1,9.4
				c-0.1,4,1,7.9,1.9,11.8c1.3,5,2.6,10.2,1.6,15.5c-3.1,15.9-28.7,31.8-44.4,31c-25.2-1.4-25.7-47.7-25.7-49.7V316.1
				c-5.5-48.4-30.7-52.7-30.9-52.8l-0.2,0l-0.1-0.1c-3.4-2.7-5-5.4-4.7-8c0.5-3.7,4.6-5.6,4.8-5.7l0.3-0.1h93.7
				c35.9-5.2,49.3,22.5,49.4,22.8l139.3,200.4c0.8,1.2,2.1,1.3,3,1c0.9-0.3,1.9-1.1,1.8-2.5l-0.5-75.2c-0.1-10.1,0.3-20.5,0.6-31.4
				c0.9-29.1,1.9-59.1-5.1-85.6c-0.5-1.9-1.4-4.1-2.3-6.4c-2.4-6.2-5.2-13.3-2.9-18.5c1.1-2.3,3.1-4.1,6.1-5.2
				c31.4-11.5,61.9,31.1,62.2,31.5c55.3,82.3,22.1,282.3,11.2,348c-1.8,10.6-2.9,17.6-3,20.1l0,0.9c-0.4,8.7-1.2,23.3,6.7,28.8
				c0.5,0.4,1,0.7,1.6,1c1.8,1.1,3.6,2.2,4.4,4.2c0.8,2,0.3,4.4-1.6,7.3c-7.8,12.2-24.7,17.8-36.8,18.9
				C1294,709.7,1292.8,709.8,1291.6,709.8z M1069.8,383c0.9,0,1.8,0.4,2.5,1.2c60.6,68.4,104.6,152.1,147.1,232.9l7.1,13.5
				c3,5.8,6,11.8,8.9,17.7c6.2,12.5,12.5,25.5,20.2,37.1c11.2,16.9,24.1,24.5,39.5,23.1c11.9-1.1,28.4-6.5,35.9-18.3
				c1.6-2.5,2.1-4.5,1.4-6.2c-0.6-1.6-2.2-2.6-3.9-3.6c-0.6-0.3-1.1-0.7-1.6-1c-8.4-5.9-7.6-20.9-7.2-29.9l0-0.9
				c0.1-2.5,1.3-9.6,3.1-20.2c10.9-65.6,44-265.2-11-347.1c-0.3-0.4-30.2-42.3-60.8-31.1c-2.7,1-4.5,2.5-5.4,4.5
				c-2.1,4.7,0.6,11.5,2.9,17.5c0.9,2.4,1.8,4.6,2.3,6.6c7,26.7,6,56.8,5.1,85.9c-0.3,10.9-0.7,21.2-0.6,31.3l0.5,75.2
				c0,1.7-1,3.2-2.7,3.7c-1.6,0.5-3.3-0.1-4.3-1.5l-139.4-200.5c-0.2-0.4-13.2-27.2-48.3-22.2l-93.6,0c-0.6,0.3-3.6,2-4,4.7
				c-0.3,2.1,1.1,4.4,4.1,6.8c2.3,0.5,26.4,6.6,31.8,53.8l0,0.1v321.8c0,0.5,0.5,47.2,24.6,48.4c0.4,0,0.8,0,1.2,0
				c15.3,0,39-15,42-30c1-5-0.3-9.9-1.6-15c-1-3.9-2-8-2-12.1c0.1-3.1,0.1-6.2,0.1-9.4l0.6-46.1l2.5-188.1c0-1.2,0.6-2.1,1.7-2.5
				C1069.2,383,1069.5,383,1069.8,383z"/>
		</g>
	</g>
	<path class="st9" d="M1517.4,383.6c-67.9,19.6-145.2,101.7-191,16.6c-1.1-40.5-8.3-81.5-28.4-117.7c-8.8-16.1-20.7-30.5-34.6-42.4
		c-7.1-6.1-14.7-11.4-22.6-16.3c-6.7-4.1-15.9-6.2-21.4-11.8c-11.7-12-2.7-26,8.9-32.7c12-6.9,25.1-8.3,38.1-12
		c56.7-16.4,93.1,58.9,161.2,32.1c15.4-5.2,33-10.6,49-10.4c2.5,2.5,7.2,5,9.5,6.8c5.2,4.1,10.3,8.2,15.5,12.2
		c0.8,0.7,1.7,1.4,2.1,2.4c0.4,0.9,0.2,2,0.1,2.9c-2.9,20.9-18.2,36.3-21.5,57.1c-5.4,33.1,40.2,68,65,40.2
		c15.4-24.1-11-38.2-30.1-45.6c-11.5-6.8-2.8-21.7,5.5-26.6c24.6-2.6,40.8,23.8,55.3,38.7l-0.1-0.5
		C1655.9,355.1,1604.5,378.8,1517.4,383.6z"/>
	<path  class="stx" d="M146.2,554.7c0.2,1.8-2.4,2.2-2.8,0.5c-8.4-29.8-26.2-93-27.9-98.1c-7.3-22.3-13.5-45.1-18.4-68.1
		c-11.4-54.5-13.8-94,9.7-146.5c44.3-99,162.3-100.6,245-76.6c114.9,33.3,238.3-7.1,336.5,3.6c88.3,9.6,150.3,20.5,237.3,18.7
		c170,0.1,196.5-2.1,184.6,8.8s-349.3,5.4-524,5.4c-95.2,1-190.4,2.9-285.6,2.9c0,0-129.2,30.3-129.2,30.3L131,395.1
		C131,395.1,142.1,511.5,146.2,554.7z"/>
	<path class="st6" d="M435.7,305.6c33.8-4.8,72-3.3,105.7,0.8c28.7,3.4,70.1,10,83.9,39.9c15.7,34,65.5-1.6,83.7-14.7
		c37.9-27.3,78.5-34.2,123.9-37.5c39.6-2.9,79.4-2.8,119-1.5c0,0-249.7-21.1-249.7-21.1C613.4,282.7,524.4,293,435.7,305.6z"/>
	<path class="st6" d="M779.5,295.1c34.4-2.4,68.1-1.1,101.6,8c15,4.1,27.9,8.7,40.3,18.1c9.5,7.2,21.5,19.3,33.6,9.7
		c4.2-3.3,7.4-7.5,10.9-11.4c17.5-19.2,43.8-26.7,68.4-32.3c6.1-1.4,80-7.3,76.1,7.3c0,0,4.1-14.8,4.1-14.8s-190.7,4.4-196.4,8.9
		c-12.3,9.6-52.2,4.2-66.8,4.6C827.4,294,803.3,293.4,779.5,295.1z"/>
	<path  class="stx" d="M319.2,226.5c54.1,2,111.5,0.6,164.2,13.7c38.4,9.5,78.4-0.6,115.8-10c37.3-9.4,76.8-10.4,115.3-12
		c15-0.6,29.9-1.2,44.9-1.7c4.9-0.2,13.2-2.1,17.9-0.5c0,0-99.8-32.3-99.8-32.3l-213.8,12.4C463.6,196.1,319.2,226.5,319.2,226.5z"
		/>
	<path  class="stx" d="M745.2,213.9c25.6,4.8,51.7,5.4,77.5,8c25.2,2.5,49.9,9.1,75.4,8.8c24.8-0.3,49.1-9.8,74.1-11.3
		c18.8-1.1,44.8,0.9,55.7-18.1c-1.3,2.6-37.5-0.9-42-1c-14.8-0.4-29.5-0.7-44.3-1.1c-26.6-0.7-53.2-1.4-79.9-2
		c-32-0.8-64-1.5-96-2.4C759.8,199.5,745,205.5,745.2,213.9z"/>
	<path class="st6" d="M866.6,274.2c13.9,3.2,33.3-1.1,47.6-1.4c14.5-0.3,27.6-0.9,43.2-1.8c15.6-0.9,32.9-4.6,48.8-1.4
		c12.8,2.6,63.4,1.8,76.1,4.5c6.5,1.4,12.9,1.1,5,12.5c-5.6,8.1-28.3,1.6-36.2,1.1c-15.3-0.8-30.5-3.3-45.8-3.2
		c-30.2,0.1-60.4,0.3-90.6,0.5C914.6,285.1,866.6,274.3,866.6,274.2z"/>
	<path class="st10" d="M1642.5,377.6c-46.9,2.6-91.1,49.5-136.7,61.2c-114.3,29.3-92.8-119.8-128.1-183.2
		c-10.7-19.4-25-36.8-41.7-51.2c-8.5-7.4-17.7-13.8-27.3-19.7c-8.1-4.9-19.2-7.5-25.8-14.3c-14.1-14.5-3.3-31.4,10.8-39.5
		c14.5-8.4,30.3-10,46-14.5c40.3-11.7,74,16.5,108.4,32.5c41.3,19.2,82.4,5,124.4-4c6.8-1.4,13.8-2.9,20.6-1.9
		c9,1.4,20.4,11.6,25.6,19c7.2,10.3,7.2,7.5,4.8,21.4c-3.5,20.3-20,36.6-23.3,57.4c-6.6,39.9,48.5,82.1,78.5,48.5
		c18.6-29-13.3-46-36.3-55c-13.9-8.2-3.3-26.1,6.6-32.1c29.6-3.2,49.2,28.7,66.7,46.7l-0.1-0.6
		C1809.5,343.1,1747.6,371.7,1642.5,377.6z"/>
</g>
</svg>
