<?xml version="1.0" encoding="UTF-8" standalone="no"?>
<svg
    xmlns:dc="http://purl.org/dc/elements/1.1/"
    xmlns:cc="http://creativecommons.org/ns#"
    xmlns:rdf="http://www.w3.org/1999/02/22-rdf-syntax-ns#"
    xmlns:svg="http://www.w3.org/2000/svg"
    xmlns="http://www.w3.org/2000/svg"
    xmlns:xlink="http://www.w3.org/1999/xlink"
    xmlns:sodipodi="http://sodipodi.sourceforge.net/DTD/sodipodi-0.dtd"
    xmlns:inkscape="http://www.inkscape.org/namespaces/inkscape"
    version="1.1"
    id="Lager_1"
    x="0px"
    y="0px"
    viewBox="0 0 1749.3884 871.57893"
    xml:space="preserve"
    sodipodi:docname="bon-logo-white-v4mod.svg"
    width="1749.3884"
    height="871.57892"
    inkscape:version="1.0.1 (c497b03c, 2020-09-10)"><metadata
   id="metadata2054"><rdf:RDF><cc:Work
       rdf:about=""><dc:format>image/svg+xml</dc:format><dc:type
    rdf:resource="http://purl.org/dc/dcmitype/StillImage"/><dc:title></dc:title></cc:Work></rdf:RDF></metadata>
    <defs
        id="defs2052"/>
    <sodipodi:namedview
        pagecolor="#ffffff"
        bordercolor="#666666"
        borderopacity="1"
        objecttolerance="10"
        gridtolerance="10"
        guidetolerance="10"
        inkscape:pageopacity="0"
        inkscape:pageshadow="2"
        inkscape:window-width="1720"
        inkscape:window-height="1395"
        id="namedview2050"
        showgrid="false"
        inkscape:zoom="0.67452144"
        inkscape:cx="874.69421"
        inkscape:cy="435.78946"
        inkscape:window-x="1720"
        inkscape:window-y="23"
        inkscape:window-maximized="0"
        inkscape:current-layer="g2041"
        showborder="true"
        inkscape:pagecheckerboard="true"/>
    <style
        type="text/css"
        id="style1761">

    .stx {
        fill: #ffffff;
    }
</style>

    <g
        id="g2041"
        transform="translate(-85.316837,-60.594571)">

	<g
        id="g2962"><path
     d="M 1834.6,350.8 C 1833,328.6 1812.2,316 1795,300.2 l -0.1,-0.1 c -15.3,-17.9 -30.3,-36.5 -44.8,-54.9 -16.3,-22.5 -32.4,-45.1 -50.2,-66.5 -7.7,-9.3 -15.7,-18.4 -24.7,-26.6 -9.1,-8.3 -18,-11.8 -28.5,-17.6 -10.4,-5.7 -19.2,-18.1 -27.8,-26.3 -7.8,-7.4 -15.7,-14.8 -24.2,-21.4 -7.4,-5.9 -17.8,-14.4 -28.1,-13 -7.6,1.1 -13.2,7.7 -18.4,12.7 -9,8.5 -18.3,16.1 -29.6,21.5 -3.6,1.7 -9.1,5.1 -13.1,5.3 -5.2,0.3 -10.7,-0.5 -16.1,-2.1 -0.1,0 -0.1,0 -0.2,0 -10,-2.8 -20.3,-8.2 -30.9,-14.3 -0.1,0 -0.1,-0.1 -0.2,-0.1 -23.9,-14 -49.2,-32.3 -74.6,-35.4 -29.9,-2.8 -57.5,1.9 -83.6,11 -2.1,0.8 -4.2,1.5 -6.3,2.3 v 0 c -0.1,0 -0.2,0.1 -0.3,0.1 -28.5,10.9 -55.3,26.7 -82,43.4 0,0 -0.1,0 -0.1,0.1 -0.9,0.6 -1.8,1.1 -2.7,1.7 -15.2,9.6 -30.4,19.5 -45.7,28.9 -25.2,15.4 -51,29.4 -78.4,38.5 0,0 0,0 0,0 -0.2,0.1 -0.3,0.1 -0.5,0.2 -0.2,0.1 -0.4,0.1 -0.5,0.2 0,0 -0.1,0 -0.1,0 v 0 c -4.8,1.5 -9.5,3 -14.3,4.2 0,0 0,0 0,0 -0.2,0 -0.4,0.1 -0.6,0.1 -5.7,1.5 -11.5,2.7 -17.4,3.7 0,0 0,0 0,0 -0.2,0 -0.4,0.1 -0.6,0.1 -1.6,0.2 -3.1,0.5 -4.7,0.7 -7,1 -14.2,1.5 -21.5,1.7 h -5 c -1.3,0.1 -2.7,0.2 -4,0.3 -24.7,0 -55.3,0.1 -93,0.1 -87,1.8 -149,-9.1 -237.3,-18.7 -98.2,-10.7 -221.6,29.7 -336.5,-3.6 -82.7,-24 -200.7,-22.4 -245,76.6 -23.5,52.5 -21.1,92 -9.7,146.5 4.9,23 11.1,45.8 18.4,68.1 1.7,5.1 19.5,68.3 27.9,98.1 8.2,33.6 16.8,67.2 25.8,100.4 2.9,10.2 18.7,7.5 17.4,-3.4 -6,-49.6 -12.9,-99 -20.2,-148.4 -7.8,-52.8 -22.7,-106.4 -10,-159.7 9.3,-39 32.8,-78.1 70.5,-95.1 46.6,-21.1 100.7,-20.4 152.2,-20.6 h 3 c 1.5,0 3.1,0 4.7,0 32.8,1.3 65.5,4 96.7,11.7 38.4,9.5 78.4,-0.6 115.8,-10 37.3,-9.4 76.8,-10.4 115.3,-12 2.5,-0.1 5.1,-0.2 7.6,-0.3 2.2,0 4.2,0 6.4,-0.1 h 5.9 c 11.6,-0.1 23.2,-0.1 34.8,-0.1 h 1.7 c 0.6,0 1.3,0 2,0 0,0 0,0 0,0 v 0 c 16.5,1.6 33.1,2.5 49.6,4.1 25.2,2.5 49.9,9.1 75.4,8.8 23.5,-0.3 46.6,-8.9 70.3,-11 h 8.8 c 24,-0.1 48,-0.5 72,-1.4 18.7,-0.7 37.5,-1.6 56.2,-2.9 18.5,-1.3 37.2,-3.9 56,-6 1.7,-0.2 3.4,-0.4 5,-0.6 15.2,-1.7 30.5,-2.9 45.6,-2.8 19.5,0.2 38.9,2.6 57.8,9.5 18.2,6.5 34.2,16.6 47.5,29.5 12.5,12 22.7,26.5 30.4,42.7 7,14.6 12.1,29.9 16,45.7 0,0.1 0.1,0.2 0.1,0.3 6.5,26.8 8.9,55 8.9,83.3 0,43.5 -5.8,87.4 -11.6,127.7 -0.5,3.1 -0.9,6.3 -1.3,9.4 -1,7.8 -2,15.7 -3.1,23.7 -0.2,1.3 -0.4,2.7 -0.5,4 -0.7,4.7 -1.4,9.3 -2.2,13.9 -1.7,10 -3.8,19.8 -6.6,29.1 -5.1,16.9 5,46 26.2,32.2 l 0.1,-0.1 c 13,-11.2 15.5,-28.2 23.6,-42.5 0,0 0,0 0,-0.1 2.8,-6 5.7,-11.7 8.7,-17.1 0.3,-0.5 0.6,-1 0.8,-1.5 2.7,-4.8 5.5,-9.5 8.4,-13.9 6.7,-10.2 13.7,-19.5 21,-27.7 37.9,-43 81.9,-60.6 109.7,-70.9 h 0.1 c 50.3,-11.4 105.3,-4.2 141.8,-48.8 0,0 0,-0.1 0.1,-0.1 31.1,-31.5 134.2,-12.9 125.9,-48.9 -0.1,-0.4 0,-0.8 0.4,-1 1.9,-1.4 8.3,-6.1 8.7,-6.5 5.7,-5.3 10,-11.6 12.4,-19.1 2.5,-7 3.2,-13 2.8,-18.3 z m -76.2,-16 c 0,0.3 0,0.6 0,0.9 v 0.8 c 0,0.5 0,1 -0.1,1.5 v 0.3 c 0,0.5 -0.1,1 -0.2,1.5 -0.1,0.5 -0.2,1.1 -0.2,1.6 -0.2,1 -0.4,2 -0.7,3 -0.3,1 -0.6,2 -1,2.9 -0.2,0.5 -0.4,1 -0.6,1.4 -0.2,0.5 -0.4,0.9 -0.7,1.4 -0.2,0.5 -0.5,0.9 -0.7,1.3 -0.2,0.4 -0.5,0.9 -0.8,1.3 -0.3,0.4 -0.6,0.9 -0.9,1.3 -0.6,0.9 -1.2,1.7 -1.9,2.5 -0.7,0.8 -1.4,1.6 -2.2,2.4 -18,18.3 -58.6,26.4 -109.2,29.2 -46.9,2.6 -91.1,49.5 -136.7,61.2 -23.9,6.1 -41.9,4.4 -55.7,-2.7 -0.5,-0.2 -0.9,-0.5 -1.4,-0.7 -0.9,-0.5 -1.8,-1 -2.7,-1.6 -0.9,-0.6 -1.8,-1.1 -2.6,-1.7 -0.8,-0.6 -1.7,-1.2 -2.5,-1.9 -0.8,-0.6 -1.6,-1.3 -2.4,-2 -0.7,-0.6 -1.3,-1.2 -1.9,-1.8 -0.2,-0.2 -0.5,-0.5 -0.7,-0.7 -20.7,-20.8 -28.6,-58 -36.1,-94.5 0,0 0,0 0,0 -5.8,-28.2 -11.2,-55.9 -22.1,-75.5 -3.4,-6.1 -7.1,-12 -11.2,-17.7 -1.6,-2.3 -3.3,-4.5 -5,-6.7 -0.4,-0.5 -0.9,-1.1 -1.3,-1.6 -0.4,-0.5 -0.9,-1.1 -1.3,-1.6 -0.9,-1.1 -1.8,-2.1 -2.7,-3.2 -0.9,-1.1 -1.8,-2.1 -2.7,-3.1 -0.7,-0.7 -1.3,-1.5 -2,-2.2 -0.1,-0.1 -0.2,-0.2 -0.2,-0.2 -0.4,-0.5 -0.9,-1 -1.3,-1.4 -0.6,-0.6 -1.1,-1.2 -1.7,-1.8 -0.3,-0.3 -0.7,-0.7 -1,-1 -1,-1 -1.9,-2 -2.9,-2.9 -0.6,-0.6 -1.2,-1.1 -1.8,-1.7 -0.4,-0.3 -0.7,-0.7 -1.1,-1 -0.6,-0.5 -1.2,-1.1 -1.7,-1.6 -0.2,-0.2 -0.5,-0.5 -0.7,-0.7 -0.4,-0.4 -0.9,-0.8 -1.3,-1.2 -0.1,-0.1 -0.3,-0.3 -0.4,-0.4 -0.4,-0.4 -0.9,-0.8 -1.4,-1.2 -8.5,-7.4 -17.7,-13.8 -27.3,-19.7 -4.7,-2.9 -10.5,-4.9 -15.7,-7.5 0,0 -0.1,0 -0.1,0 -0.9,-0.5 -1.9,-1 -2.7,-1.5 -0.6,-0.3 -1.1,-0.6 -1.7,-1 -0.5,-0.3 -1,-0.6 -1.5,-1 0,0 0,0 0,0 -0.4,-0.2 -0.7,-0.5 -1.1,-0.8 -0.3,-0.2 -0.5,-0.4 -0.8,-0.6 -0.5,-0.4 -1,-0.8 -1.5,-1.3 -0.2,-0.2 -0.5,-0.5 -0.7,-0.7 l -0.1,-0.1 c -0.2,-0.2 -0.4,-0.4 -0.6,-0.6 -0.2,-0.3 -0.5,-0.5 -0.7,-0.8 -0.1,0 -0.1,-0.1 -0.1,-0.2 0,0 0,0 0,0 -0.1,-0.1 -0.2,-0.2 -0.3,-0.4 0,0 0,0 -0.1,-0.1 -0.1,-0.1 -0.1,-0.2 -0.2,-0.3 0,0 0,0 0,0 -0.2,-0.3 -0.4,-0.5 -0.6,-0.8 -0.3,-0.4 -0.6,-0.8 -0.8,-1.2 0,0 0,0 0,-0.1 -1.7,-2.8 -2.7,-5.7 -2.9,-8.5 -0.1,-0.8 -0.1,-1.6 -0.1,-2.4 0,0 0,0 0,-0.1 0,-0.4 0.1,-0.8 0.1,-1.2 V 164 c 1,-9.2 8.5,-17.7 17.3,-22.8 14.5,-8.4 30.3,-10 46,-14.5 5.4,-1.6 10.6,-2.4 15.8,-2.7 0.5,0 1,-0.1 1.5,-0.1 0.7,0 1.3,0 1.9,0 1,0 2,0 3,0.1 1,0 1.9,0.1 2.9,0.2 0,0 0.1,0 0.1,0 1,0.1 1.9,0.2 2.8,0.3 0.1,0 0.2,0 0.4,0 1.3,0.2 2.6,0.4 4,0.6 0.1,0 0.1,0 0.2,0 26.7,4.7 51.1,22.5 75.9,34.1 5.4,2.5 10.9,4.5 16.3,5.9 1.4,0.4 2.7,0.7 4.1,1 4,0.9 8.1,1.5 12.1,1.9 0,0 0.1,0 0.1,0 2.6,0.3 5.3,0.5 8,0.6 1.5,0.1 2.9,0.1 4.4,0.1 5.3,0 10.6,-0.3 15.8,-0.8 0.1,0 0.1,0 0.2,0 14.2,-1.5 28.5,-4.7 42.8,-8 0,0 0,0 0,0 h 0.2 c 6.8,-1.6 13.6,-3.2 20.5,-4.7 4.9,-1 10,-2.1 14.9,-2.2 1.1,0 2.1,0 3.1,0.1 0.8,0 1.7,0.1 2.5,0.2 9,1.4 20.4,11.6 25.6,19 4.3,6.1 6,7.6 6.2,10.7 v 1.4 c 0,0.3 0,0.6 -0.1,0.9 0,0.3 -0.1,0.6 -0.1,1 0,0.2 -0.1,0.5 -0.1,0.7 -0.2,1.7 -0.6,3.8 -1.1,6.7 -2.2,12.6 -9.4,23.7 -15.3,35.3 0,0.1 -0.1,0.1 -0.1,0.2 -3.6,6.9 -6.6,14.2 -7.9,21.9 -0.1,0.4 -0.1,0.8 -0.2,1.2 0,0.4 -0.1,0.8 -0.1,1.2 -0.1,0.4 -0.1,0.8 -0.1,1.2 0,0.4 0,0.8 -0.1,1.2 -0.1,1.4 0,2.8 0.1,4.1 0,0.4 0.1,0.9 0.1,1.3 0.1,0.9 0.2,1.7 0.3,2.6 0.2,1.7 0.6,3.4 1,5 0,0 0,0 0,0 7.8,30 44.6,54.3 70.4,36.8 0.3,-0.2 0.7,-0.5 1,-0.7 2.1,-1.5 4.2,-3.4 6.1,-5.5 0,0 0.1,-0.1 0.1,-0.2 2.9,-4.6 4.6,-8.9 5.2,-12.8 0,-0.3 0.1,-0.7 0.1,-1 0,-0.3 0.1,-0.7 0.1,-1 0.1,-0.9 0.1,-1.8 0.1,-2.7 -0.7,-18.5 -23.9,-30.3 -41.8,-37.3 -0.1,0 -0.1,0 -0.2,-0.1 -4.2,-2.5 -6.1,-5.9 -6.5,-9.5 0,-0.3 -0.1,-0.5 -0.1,-0.8 v -1.5 c 0.3,-6.5 4.9,-13.5 10,-17.9 0.1,-0.1 0.3,-0.2 0.4,-0.3 0.9,-0.7 1.7,-1.4 2.6,-1.9 0.1,-0.1 0.3,-0.1 0.5,-0.2 29.3,-3 48.8,28.5 66.2,46.4 0.1,0.1 0.2,0.2 0.3,0.3 v -0.1 l -0.1,-0.5 c 11.2,11.3 20.3,21.8 27.2,31.3 7,9.5 11.9,18.2 15,26 0.5,1.3 0.9,2.5 1.3,3.7 0.2,0.6 0.4,1.2 0.6,1.8 0.1,0.3 0.2,0.6 0.2,0.8 0.1,0.3 0.2,0.6 0.2,0.8 0,0.1 0.1,0.3 0.1,0.4 0.1,0.5 0.2,0.9 0.3,1.3 0.1,0.5 0.2,1.1 0.3,1.6 0,0.2 0.1,0.4 0.1,0.6 0.1,0.5 0.2,0.9 0.2,1.3 0,0.2 0.1,0.5 0.1,0.7 0,0.2 0.1,0.5 0.1,0.7 0,0.1 0,0.3 0.1,0.4 0,0.4 0.1,0.8 0.1,1.2 0.1,0.7 0.1,1.3 0.1,2 v 0.7 c 0,0.1 0,0.3 0,0.4 -0.1,0.2 -0.1,0.4 -0.1,0.7 z"
     id="path2017"
     class="stx" />
        <path
            d="M 416.1,471.5 C 465.5,455.4 516.5,418.1 505.9,359.8 488.8,264.6 392,257.1 312.7,261.1 c -43,2.1 -85.5,11.6 -113.7,47.6 -23.8,30.4 -29,70 -25.9,107.4 7.1,85 27.1,168.1 35.4,252.7 0.8,8.6 -0.9,18.1 -7.5,23.6 -1.7,1.5 -3.8,2.6 -5.3,4.3 -7.9,8.8 11.5,15.1 17.1,16.8 16,4.7 32.2,3.1 48.2,-1.1 25.6,-6.7 49.8,-13 76.2,-16.1 28.1,-3.3 56.3,-5.4 84.6,-6.8 60.8,-3 109.4,-56 104.2,-114.9 -0.7,-8 -2.4,-16 -5.2,-24.1 -15.6,-45.4 -60.1,-68.6 -104.6,-77.7 -0.7,-0.1 -0.7,-1.1 -0.1,-1.3 z m -123,-159.7 c 0,-4.6 0.1,-9.4 2,-13.6 3.1,-6.6 10.6,-10.3 17.9,-10.9 2.2,-0.2 4.4,-0.3 6.7,-0.3 41.4,0.2 77.4,34.8 82.3,74.3 11.4,92.2 -82.2,100.2 -82.3,100.2 -28.6,2.4 -26.2,-29.8 -26.3,-48.7 -0.3,-33.7 -0.4,-67.3 -0.3,-101 z m 123.4,259.9 c 7.1,57.4 -37.5,100.1 -93.5,97.8 -1,0 -2,-0.1 -2.9,-0.2 -13.9,-0.9 -29.2,-10 -26.5,-25.8 v -0.1 c 0.1,-40.5 0.2,-81 0.4,-121.5 0,-5.9 0.1,-12 2.4,-17.4 4.7,-10.8 17.8,-14.9 28.8,-14.2 45.7,2.6 85.5,34.9 91.3,81.4 z"
            id="path2019"
            class="stx"/>
        <path
            d="m 767.8,247.6 c -118.7,-6 -220.6,94.4 -227,223.7 -6.4,129.3 85,239.3 203.7,245.2 116.4,5.8 216.3,-94.7 222.6,-223.9 3.1,-63 -15.5,-123 -52.6,-168.8 -37.3,-46.3 -89.4,-73.3 -146.7,-76.2 z m 93.6,240.7 c -1.1,22 -4.1,43.6 -8.8,64.2 -0.1,0.3 -0.2,0.6 -0.2,1 -20.2,78.4 -67.4,124.3 -110.1,122.1 -38.5,-2 -74.8,-43.2 -89.7,-110.1 -0.1,-0.3 -0.1,-0.7 -0.2,-1 -0.8,-4.1 -1.6,-8.3 -2.2,-12.6 -0.2,-1.4 -0.4,-2.9 -0.7,-4.3 0,0 0,0 0,0 -0.5,-3.5 -1,-7 -1.3,-10.5 -0.2,-2.1 -0.5,-4.2 -0.7,-6.3 -0.2,-2.1 -0.4,-4.3 -0.5,-6.5 -0.2,-3.2 -0.5,-6.5 -0.6,-9.8 -0.6,-11.9 -0.6,-24.2 0.1,-36.8 0.1,-1.1 0.1,-2.2 0.2,-3.3 0.1,-1.1 0.1,-2.2 0.2,-3.3 0.4,-5.5 0.9,-11 1.5,-16.4 0.2,-2.2 0.5,-4.3 0.8,-6.5 0.1,-1.1 0.3,-2.2 0.4,-3.2 0.2,-1.1 0.3,-2.1 0.5,-3.2 0.8,-5.4 1.7,-10.7 2.7,-15.9 0.2,-1 0.4,-1.9 0.6,-2.9 0.4,-1.9 0.8,-3.9 1.2,-5.8 0.2,-1 0.4,-1.9 0.6,-2.9 19.8,-78 66.6,-121.5 109.4,-119.4 41,2.1 80,45.9 93.2,119.2 0.7,4.5 1.3,9 1.8,13.5 0.1,1.1 0.3,2.3 0.4,3.4 1.8,18.5 2.4,37.8 1.4,57.3 z"
            id="path2021"
            class="stx"/>
        <path
            d="m 1249.8,484.1 c -0.9,0.3 -2.2,0.2 -3,-1 l -139.3,-200.4 -0.1,-0.1 c -0.7,-1.5 -14.3,-27.8 -49.3,-22.7 h -93.7 l -0.3,0.1 c -0.2,0.1 -4.3,2 -4.8,5.7 -0.3,2.6 1.3,5.3 4.7,8 l 0.1,0.1 h 0.2 c 0.2,0.1 25.4,4.4 30.9,52.7 v 321.7 c 0,2 0.5,48.3 25.7,49.7 15.7,0.8 41.3,-15.1 44.4,-31 1,-5.3 -0.3,-10.5 -1.6,-15.5 -0.9,-3.9 -2,-7.8 -1.9,-11.8 0,-3.1 0.1,-6.3 0.1,-9.4 L 1065,396 c 0,-0.7 0.3,-1.2 0.9,-1.4 0.6,-0.2 1.5,-0.1 2.2,0.7 60.5,68.3 104.4,151.9 146.9,232.7 l 7.1,13.5 c 3.1,5.8 6,11.9 8.9,17.7 6.2,12.6 12.6,25.6 20.3,37.2 10.6,16 22.7,23.8 37,23.8 1.3,0 2.5,-0.1 4,-0.2 12.1,-1.1 29,-6.7 36.8,-18.9 1.9,-2.9 2.4,-5.3 1.6,-7.3 -0.9,-2 -2.7,-3 -4.5,-4.2 -0.6,-0.3 -1.1,-0.6 -1.6,-1 -7.9,-5.5 -7.1,-20.1 -6.7,-28.8 v -0.9 c 0.1,-2.5 1.2,-9.5 3,-20.1 10.9,-65.7 44.1,-265.7 -11.2,-348 -0.3,-0.4 -30.8,-43 -62.2,-31.5 -3,1.1 -5,2.9 -6.1,5.2 -2.3,5.2 0.5,12.3 2.9,18.5 0.9,2.3 1.8,4.5 2.3,6.4 7,26.5 6,56.5 5.1,85.6 -0.3,10.9 -0.7,21.3 -0.6,31.4 l 0.5,75.2 c 0.1,1.4 -0.9,2.2 -1.8,2.5 z"
            id="path2023"
            class="stx"/>
        <path
            d="m 958,757.7 c 0,-0.1 0,-0.2 0,-0.3 0,0 0,0 0,-0.1 0,0 0,0 0,-0.1 -0.1,-0.3 -0.2,-0.5 -0.3,-0.6 0,0 0,0 0,0 0,0 -0.1,-0.1 -0.1,-0.1 0,0 0,-0.1 -0.1,-0.1 -0.1,-0.1 -0.1,-0.1 -0.2,-0.2 0,0 0,0 0,-0.1 -0.1,-0.1 -0.2,-0.2 -0.3,-0.2 0,0 0,0 0,0 0,0 0,0 0,0 0,0 -0.1,-0.1 -0.1,-0.1 0,0 -0.1,-0.1 -0.1,-0.1 -0.1,0 -0.1,-0.1 -0.2,-0.1 0,0 0,0 -0.1,0 -0.2,-0.1 -0.3,-0.1 -0.5,-0.2 0,0 -0.1,0 -0.1,0 -0.1,0 -0.1,0 -0.2,0 0,0 -0.1,0 -0.1,0 -0.1,0 -0.2,0 -0.3,0 H 954 l -50.6,-0.7 c -0.3,0 -0.6,0 -0.9,0 -0.1,0 -0.3,0 -0.5,0.1 -0.1,0 -0.3,0.1 -0.4,0.1 -0.1,0 -0.2,0.1 -0.4,0.2 -0.1,0.1 -0.2,0.2 -0.3,0.2 -0.1,0.1 -0.3,0.2 -0.4,0.4 -0.1,0.1 -0.2,0.3 -0.3,0.5 -0.1,0.2 -0.2,0.4 -0.2,0.6 -0.1,0.2 -0.1,0.5 -0.1,0.7 0,0.3 0.1,0.6 0.1,0.8 0,0.1 0.1,0.2 0.1,0.3 0,0 0,0 0,0 0,0.1 0.1,0.2 0.1,0.2 0,0.1 0.1,0.1 0.1,0.2 0.3,0.5 0.9,0.9 1.6,1 0.6,0.1 1.3,0 1.9,0 1.3,0 2.6,-0.1 3.9,0 0.4,0 0.8,0 1.2,0 1.8,0.2 3.4,0.6 4.9,1.1 0.4,0.2 0.8,0.3 1.1,0.5 1.1,0.7 2,1.4 2.9,2.3 0.5,0.4 0.8,0.9 1.2,1.4 0.4,0.5 0.6,1 0.8,1.5 0.4,1.1 0.6,2.3 0.8,3.5 0.3,2.5 0.3,5 0.2,7.5 -0.1,2.6 -0.3,5.1 -0.6,7.6 -0.3,2.5 -0.6,5.1 -0.8,7.7 -0.5,5.2 -0.8,10.3 -1,15.5 -0.2,5.2 -0.1,10.3 -0.1,15.5 0,5.2 0,10.3 0.1,15.5 l 0.2,15.4 c 0.1,5.1 0,10.2 -0.2,15.2 -0.2,5 -0.7,10 -1.5,14.8 -0.4,2.4 -1,4.7 -1.7,6.8 -0.7,2.1 -1.8,4.2 -3,6.1 -2.5,3.8 -5.9,7.2 -9.8,10 -3.9,2.8 -8.3,5 -12.9,6.6 -4.6,1.6 -9.5,2.5 -14.5,2.8 -5,0.3 -10,0.1 -14.8,-1 -2.4,-0.6 -4.8,-1.3 -7,-2.4 -2.3,-1 -4.4,-2.3 -6.4,-3.8 -4,-3 -7.3,-6.8 -9.4,-11.4 -2.2,-4.6 -3.4,-9.6 -4.3,-14.6 -0.9,-5.1 -1.5,-10.2 -1.9,-15.3 -0.1,-1.3 -0.2,-2.5 -0.2,-3.8 v 0 c -0.1,-1.5 -0.1,-3 -0.1,-4.5 v -78.2 c 0,-2.9 0,-5.8 0.5,-8.6 0.3,-1.5 0.7,-2.9 1.3,-4.3 1,-2.4 2.7,-4.4 4.8,-5.9 2.1,-1.5 4.5,-2.6 7.1,-2.9 0.6,-0.1 1.3,-0.1 1.9,-0.1 h 1.9 c 0.6,0 1.3,-0.1 1.9,-0.4 0.6,-0.3 1.1,-0.7 1.4,-1.3 0.2,-0.4 0.3,-0.8 0.2,-1.2 0,-0.3 0,-0.7 -0.2,-1 0,-0.1 -0.1,-0.2 -0.2,-0.3 0,0 -0.1,-0.1 -0.1,-0.1 -0.4,-0.5 -1,-0.8 -1.5,-0.9 -0.6,-0.2 -1.3,-0.2 -1.9,-0.2 h -9.6 c -5.2,0 -10.3,0.1 -15.5,0.1 L 792,755 h -1.9 c -0.7,0 -1.3,0 -2,0.1 -0.6,0.1 -1.2,0.4 -1.6,0.9 0,0 0,0 0,0 -0.1,0.1 -0.2,0.2 -0.2,0.2 -0.6,1.2 -0.3,3.2 0.9,3.8 0.9,0.4 2.1,0.5 3.1,0.5 1.1,0 2.2,0 3.2,0.1 0.2,0 0.3,0 0.5,0 0.5,0 0.9,0.1 1.4,0.1 0.4,0.1 0.7,0.1 1.1,0.2 0.2,0 0.4,0.1 0.5,0.1 0.2,0 0.3,0.1 0.4,0.1 0.7,0.2 1.4,0.5 2.1,0.8 0.6,0.3 1.2,0.6 1.8,1.1 0.7,0.6 1.3,1.2 1.9,1.9 0.2,0.2 0.3,0.4 0.5,0.7 0.5,0.8 1,1.7 1.3,2.6 1.9,4.8 1.7,10.1 2.1,15.2 0.3,5.1 0.4,10.3 0.5,15.4 0.2,10.3 0.2,20.6 0,30.9 -0.1,10.3 -0.4,20.6 -0.3,30.9 0.1,5.2 0.3,10.3 0.6,15.5 0.4,5.2 0.9,10.3 2,15.4 0.5,2.5 1.4,5 2.4,7.4 1,2.4 2.2,4.8 3.5,7 2.7,4.5 6,8.6 9.9,12.1 2,1.7 4,3.4 6.2,4.8 2.2,1.5 4.6,2.7 7,3.7 0.1,0 0.2,0.1 0.3,0.1 2.3,1 4.7,1.7 7.1,2.4 2.6,0.7 5.1,1.3 7.7,1.7 5.1,0.9 10.3,1.3 15.5,1.4 5.2,0.2 10.4,0 15.6,-0.7 5.2,-0.7 10.3,-1.9 15.3,-3.8 0.8,-0.3 1.7,-0.6 2.5,-1 1.6,-0.7 3.2,-1.5 4.7,-2.4 2.4,-1.3 4.5,-2.9 6.6,-4.5 4.2,-3.3 7.9,-7.1 11,-11.5 3.1,-4.4 5.4,-9.4 6.8,-14.5 1.4,-5.1 2.3,-10.3 2.9,-15.5 0.6,-5.2 0.9,-10.4 1.1,-15.6 0.1,-5.2 0,-10.4 0,-15.5 0,-5.2 -0.1,-10.3 -0.2,-15.5 -0.1,-10.3 -0.5,-20.6 -0.7,-30.9 l -0.4,-15.4 c -0.1,-2.6 0,-5.1 0.1,-7.7 0.1,-1.5 0.2,-3.1 0.5,-4.6 0.3,-1.4 0.9,-3 1.7,-4.5 0.3,-0.4 0.5,-0.8 0.9,-1.2 0.8,-1 1.7,-2 2.7,-2.8 2,-1.7 4.4,-2.9 6.9,-3.5 1.9,-0.5 3.8,-0.5 5.8,-0.4 0.6,0 1.3,0 1.9,0 0.6,0 1.3,-0.1 1.8,-0.5 0.1,-0.1 0.1,-0.1 0.2,-0.2 0.1,-0.1 0.1,-0.1 0.1,-0.2 0.1,-0.1 0.1,-0.3 0.2,-0.4 0,-0.1 0.1,-0.3 0.1,-0.4 0,-0.1 0,-0.1 0,-0.2 0,-0.2 0,-0.4 0,-0.6 0.4,0 0.4,-0.2 0.4,-0.4 0,0.1 0,0.1 0,0 z"
            id="path2025"
            class="stx"/>
        <path
            d="m 1343.7,848.9 c 0.7,-2.7 8.7,-37.3 5,-66.7 -1.2,-9.1 -3.1,-15.4 -5.3,-19.7 -0.9,-1.8 -1.8,-3.3 -2.8,-4.5 -0.3,-0.5 -0.7,-0.9 -1.1,-1.3 l -0.6,-0.6 c -0.2,-0.2 -0.4,-0.3 -0.6,-0.5 -0.4,-0.3 -0.7,-0.6 -1.1,-0.9 -0.3,-0.3 -0.7,-0.5 -1,-0.7 -0.4,-0.2 -0.7,-0.4 -1,-0.5 -0.1,-0.1 -0.3,-0.1 -0.4,-0.2 h -0.1 c -1.7,-0.7 -2.8,-0.6 -2.8,-0.6 h -0.1 c -0.8,0 -1.5,0 -2.3,0 -0.7,0 -1.5,0 -2.2,0 v 0.1 c -0.4,0 -0.7,0 -1.1,0 -2.4,0 -4.7,0.1 -7.1,0.1 -3.3,0 -6.6,0.1 -9.9,0.1 -2.2,0 -4.3,0.1 -6.4,0.1 -1.1,0 -2.1,0.1 -3.2,0.1 -0.5,0 -1,0 -1.5,0 -0.4,0 -0.8,0 -1.2,0.2 -0.3,0.2 -0.5,0.5 -0.7,0.8 -0.3,0.5 -0.5,1.2 -0.4,1.8 0.2,1.1 1.2,2 2.3,2 h 3.2 c 6.3,0 11,1.8 13.9,5.4 2.2,2.6 3.4,9.3 3.4,19.9 v 93.9 c 0,2.1 -2.5,3 -3.7,1.4 L 1220.3,754 c -0.4,-0.5 -1,-0.8 -1.6,-0.8 h -33.3 c -0.6,0 -1,0.4 -1,1 v 2.5 c 0,1.1 0.7,2 1.7,2.3 0,0 0.1,0 0.2,0 3.3,1.1 6.1,2.3 8.2,3.6 0.9,0.5 1.7,1.1 2.4,1.6 l 2.4,2.1 c 0.7,0.7 1.4,1.4 2.1,2.1 0.5,0.6 1.1,1.1 1.6,1.7 0,0 0,0 0,0 3.3,4.7 4.2,9.8 4.4,12.5 0,0.7 0,1.4 0,2.1 v 86.6 c -1.1,43.3 -10,49.2 -15.1,50.4 -0.5,0.1 -1,0.1 -1.6,0.1 -1.8,0.1 -3.4,0.1 -5.3,0.1 -1.1,0 -0.9,2.3 -0.7,3.4 0.2,1 1.1,0.9 1.7,0.9 h 6.6 c 15,0 29.9,0.1 44.9,0.1 0.6,0 1.2,0 1.7,-0.3 0.4,-0.2 0.7,-0.6 0.8,-1 0.3,-0.6 0.4,-1.4 0.1,-2.1 -0.3,-0.7 -1,-1.2 -1.8,-1.4 h -0.1 c -0.3,-0.1 -0.7,0 -1.1,0 -5.8,0.2 -12.2,-0.4 -15.5,-5.1 -2.3,-3.2 -2.4,-7.5 -2.3,-11.4 0.8,-30.2 5.5,-59 1.2,-90.3 -0.8,-6.2 -2.3,-12.1 -2.7,-18.3 0,-0.6 -0.1,-1.3 0.2,-1.9 0.2,-0.6 0.7,-1.1 1.3,-1.2 0.7,-0.1 1.3,0.4 1.8,0.8 3.5,3.1 6,7.9 8.8,11.7 6.2,8.4 12.7,16.7 19.2,24.9 3.6,4.6 7.1,9.2 10.6,13.9 4,5.2 7.8,10.3 11.8,15.5 4.1,5.4 8.1,10.7 12.2,16.1 4,5.3 7.9,10.4 11.9,15.7 3.6,4.8 7.2,9.4 10.7,14.2 3,4 6.1,8 9.2,12 0,0 0.1,0.1 0.2,0.2 1,1.2 6.3,7.7 9.8,8.2 h 1.4 v 0 c 4.7,0 9.1,0 9.2,0 0.4,0 0.7,0 1.1,0 0.4,0 0.7,-0.1 1.1,-0.2 0.7,-0.2 1.4,-0.6 2,-1.1 6.6,-4.6 9,-10.6 4.6,-17.8 -5.6,-9 -2.2,-55.1 -1.8,-58.4 0.2,0.2 0.2,0 0.2,-0.1 z"
            id="path2027"
            class="stx"/>
        <path
            d="m 287,904.2 c -4.7,-0.1 -8.9,3.5 -12.6,6 -4.6,3.1 -22.5,5.9 -31.3,5.9 h -11.9 c -10.5,0 -16.7,-0.4 -18.7,-1.3 -2,-0.8 -3.5,-2.2 -4.4,-3.9 -1.3,-2.6 -1.9,-7.4 -1.9,-14.4 V 788.7 c 0,-10.2 0.6,-16.7 1.9,-19.4 1.3,-2.7 3.7,-4.9 7.1,-6.7 3.2,-1.6 8.6,-2.5 16.1,-2.5 1.1,0 2.1,-1 2.1,-2.2 v -1.5 c 0,-0.5 -0.4,-1 -1,-1 h -5.2 c -0.2,-0.1 -0.4,-0.1 -0.6,-0.1 L 202,755 v -0.1 l -7.9,-0.1 c 0,0 -1.2,-0.1 -2.9,0.6 -0.1,0.1 -0.3,0.1 -0.4,0.2 -0.3,0.1 -0.6,0.3 -1,0.5 -0.3,0.2 -0.7,0.4 -1,0.7 -0.4,0.3 -0.7,0.5 -1.1,0.9 -0.2,0.2 -0.4,0.3 -0.6,0.5 l -0.6,0.6 c -0.4,0.4 -0.8,0.8 -1.1,1.3 -1,1.2 -1.9,2.7 -2.8,4.5 -2.2,4.3 -4.1,10.4 -5.3,19.1 -3.8,28.5 4.3,62.2 5,64.9 0,0.1 0,0.2 0.1,0.4 0.3,3.3 3.7,47.9 -1.7,56.4 -5.6,8.8 0,13 0,13 0,0 0.1,0.2 0.4,0.6 0.1,0.1 0.2,0.2 0.3,0.3 1.5,1.7 5.5,5.4 12.6,7.2 0,0 0,0 0.1,0 0.7,0.2 1.5,0.3 2.3,0.5 0,0 0,0 0.1,0 0.2,0 0.4,0.1 0.6,0.1 h 4.7 0.2 83 c 0.6,-0.2 1.2,-0.7 1.4,-1.5 l 3.9,-13 c 0.9,-3.1 1.1,-8.3 -3.3,-8.4 z"
            id="path2029"
            class="stx"/>
        <path
            d="m 705.3,751.6 c -21.3,-1.2 -40,5.3 -56,19.3 -18.5,16.2 -28.5,38 -30,65.2 -1.5,26.7 4.9,48.7 19.3,66.4 9.5,11.8 20.9,19.9 34.1,24.3 6.5,2.2 13.5,3.5 21,3.9 10.3,0.6 19.9,-0.7 29,-3.9 10.5,-3.7 20.2,-9.9 29.1,-18.7 16.5,-16.3 25.5,-37.5 26.9,-63.5 1.3,-25.4 -5.2,-46.8 -19.8,-64.6 -14.7,-17.8 -32.5,-27.3 -53.6,-28.4 z m 45.5,94.7 c -1.5,27.1 -7.5,46.7 -18.2,58.7 -10.7,12 -23.6,17.6 -38.9,16.8 -14.3,-0.8 -25.5,-7.1 -33.6,-19.1 -10.5,-15.7 -15,-37.6 -13.4,-65.5 1.5,-27.3 8.1,-47.7 19.9,-61.3 1.5,-1.7 3,-3.2 4.7,-4.6 0.6,-0.6 1.3,-1.1 2,-1.6 2,-1.5 4.2,-2.8 6.4,-3.9 1.5,-0.8 3.1,-1.4 4.7,-2 0.4,-0.1 0.8,-0.3 1.2,-0.4 0,0 0,0 0,0 0.6,-0.2 1.1,-0.3 1.7,-0.5 0.5,-0.1 1,-0.3 1.5,-0.4 4.5,-1 9.4,-1.4 14.4,-1.1 7.9,0.4 14.6,2.1 20.4,5.2 0.4,0.2 0.9,0.5 1.3,0.7 0.9,0.5 1.7,1.1 2.5,1.6 0.3,0.2 0.7,0.5 1,0.7 0.6,0.5 1.3,1 1.9,1.5 0.6,0.5 1.2,1.1 1.8,1.7 0.6,0.6 1.2,1.2 1.8,1.8 1.4,1.6 2.8,3.3 4,5.2 10.3,15 14.5,37.2 12.9,66.5 z"
            id="path2031"
            class="stx"/>
        <path
            d="m 1063.6,846.9 c -5.5,-4.7 -15.6,-11.6 -30.6,-20.5 -18.4,-11 -30.1,-19.7 -34.8,-26.1 -3.3,-4.4 -5,-9.2 -4.9,-14.4 0.2,-6.8 3,-12.8 8.6,-18.1 5.5,-5.3 12.5,-7.7 20.8,-7.5 6.9,0.2 13.6,2.1 20,5.8 0.4,0.2 0.7,0.4 1.1,0.6 7.5,5.5 10.6,14 11,17.5 0.6,4 4.9,4.1 4.9,4.1 l 3.2,0.2 3,0.2 2,0.1 c 0.6,0.1 2.7,0.2 3.5,-0.5 0,0 0.1,-0.1 0.1,-0.1 0.1,-0.1 0.1,-0.1 0.1,-0.2 0,0 0,0 0,0 0,-0.1 0.1,-0.2 0.1,-0.4 l 0.8,-34 c 0,-0.6 -0.4,-1 -1,-1 0,0 -0.5,0 -0.9,0 h -0.9 c -0.1,0 -0.3,0 -0.4,0 -0.8,0.1 -1.6,0.3 -2.3,0.8 -0.9,0.6 -1.5,1.3 -2.3,1.9 -1.4,1.2 -3.3,1.8 -5.1,2.2 -2,0.5 -4.2,0.7 -6.3,0.4 -3.6,-0.5 -6.9,-1.9 -10.3,-3.2 -0.1,0 -0.1,-0.1 -0.2,-0.1 -0.4,-0.1 -0.8,-0.3 -1.2,-0.4 -0.6,-0.2 -1.3,-0.5 -1.9,-0.7 -0.1,0 -0.2,-0.1 -0.3,-0.1 -1,-0.3 -1.9,-0.6 -2.9,-0.9 -0.3,-0.1 -0.7,-0.2 -1,-0.3 -0.7,-0.2 -1.4,-0.3 -2.1,-0.5 -0.3,-0.1 -0.6,-0.1 -0.9,-0.2 -0.9,-0.2 -1.8,-0.4 -2.8,-0.5 -0.3,-0.1 -0.7,-0.1 -1,-0.1 -0.7,-0.1 -1.4,-0.2 -2.1,-0.2 -0.3,0 -0.6,-0.1 -1,-0.1 -1,-0.1 -1.9,-0.1 -2.9,-0.2 -13.8,-0.3 -25.4,3.9 -34.5,12.6 -9.2,8.7 -13.8,19.2 -14.1,31.5 -0.2,7.1 1.2,13.6 4.2,19.6 2.9,6 7.2,11.5 13,16.5 5.8,5 15.5,11.9 29.2,20.4 13.7,8.5 22.2,14.1 25.2,16.7 4.5,3.8 7.9,7.9 10,12.2 2.1,4.3 3.1,8.7 3,12.9 -0.2,7.6 -3.2,14.1 -9.1,19.6 -5.9,5.5 -13.9,8.1 -23.9,7.9 -8.6,-0.2 -16.5,-2.4 -23.7,-6.6 -2.2,-1.3 -4.3,-2.8 -6.2,-4.3 -5.1,-4.8 -6.7,-10 -7.1,-13 -0.6,-4 -4.9,-4 -4.9,-4 l -3.2,-0.2 -3,-0.2 -2.9,-0.1 c -1.5,0 -2.7,1.1 -2.8,2.6 v 0.4 c 0,0 0.1,25.3 0.7,31.1 0,0 0,0 0,0 0,0 0,0.5 0.1,1 0,0 0,0 0,0 0.3,0.9 1,2.1 2.8,1.8 0.2,0 0.4,-0.1 0.6,-0.2 0,0 0,0 0.1,0 0.6,-0.3 1.1,-0.9 1.2,-1.5 0.7,-3 1.4,-5 2.4,-5.9 1.2,-1.3 2.7,-1.8 4.7,-1.8 2.1,0 7,1.5 14.7,4.3 7.7,2.9 12.8,4.5 15.3,4.9 4.2,0.9 8.6,1.3 13.3,1.4 15,0.3 27.4,-4.1 37.2,-13.3 9.8,-9.2 14.9,-20.3 15.2,-33.3 -0.1,-7 -1.5,-13.5 -4.3,-20 -2.7,-6.2 -6.9,-11.8 -12.3,-16.5 z"
            id="path2033"
            class="stx"/>
        <path
            d="m 1166.8,754.4 c -0.3,-0.3 -0.7,-0.2 -1,-0.2 0,0 -66.9,0 -66.9,0 0,0 -0.1,0 -0.1,0 0,0 0,0 0,0 0,0 0,0 0,0 -0.1,0 -0.2,0 -0.4,0 0,0 0,0 0,0 -0.1,0 -0.1,0 -0.2,0.1 0,0 0,0 -0.1,0 -0.2,0.1 -0.4,0.2 -0.4,0.4 0,0 0,0 0,0.1 0,0 0,0.1 -0.1,0.1 0,0 0,0 0,0 0,0 0,0.1 0,0.1 -0.1,0.3 0,0.5 0,0.5 v 2.5 c 0,0 0,0.1 0,0.2 0,0.1 0.1,0.2 0.1,0.4 0,0 0,0 0,0.1 0,0 0,0 0,0 0,0 0.1,0.1 0.1,0.1 0.2,0.3 0.6,0.4 1,0.3 h 4.5 c 0.5,0 0.9,0 1.4,0 h 0.1 c 0.1,0 0.1,0 0.2,0 0.3,0 0.5,0 0.8,0.1 0.2,0 0.4,0 0.6,0.1 0.2,0 0.5,0.1 0.7,0.1 0.1,0 0.3,0 0.4,0.1 l 0.3,0.1 c 0.4,0.1 1,0.3 1.4,0.4 1.1,0.4 2.1,0.8 3.2,1.3 1.2,0.6 2.5,1.3 3.5,2.2 1,0.8 1.9,1.9 2.5,3.1 0.6,1.2 0.8,2.5 1,3.9 0.3,2.8 0.4,5.6 0.4,8.4 0,2.9 -0.1,5.7 -0.2,8.5 l -0.1,8.5 -0.1,17 -0.4,69 0.1,17 c 0,2.8 -0.1,5.5 -0.4,8.2 -0.3,2.7 -0.8,5.3 -1.9,7.7 -1.1,2.3 -2.9,4.3 -5.4,5.4 -2.5,1.1 -5.3,1.6 -8.1,1.9 -0.7,0.1 -1.4,0.1 -2.1,0.2 -0.9,0.1 -1.6,0.9 -1.6,1.8 0,1.7 0.2,2.6 1.9,2.5 0.8,0 1.6,0 2.4,0 2.5,0 5,0 7.6,0 7.3,0 14.6,0 21.9,0 7.3,0 14.7,0 22,0 3.8,0 7.6,0 11.5,0 0.1,0 0.1,0 0.2,0 0.5,-0.4 0.6,-1 0.6,-1.6 0,-1 0.4,-2.2 -0.9,-2.4 -0.5,-0.1 -1,-0.1 -1.5,-0.1 -3,0 -6.2,-0.7 -9.1,-1.8 -1.3,-0.5 -2.5,-1.2 -3.6,-1.9 -1,-0.8 -2,-1.6 -2.7,-2.6 -0.7,-0.9 -1.2,-2 -1.4,-3 -0.3,-1.1 -0.4,-2.3 -0.4,-3.5 0,-1.2 0.1,-2.4 0.3,-3.7 l 0.1,-1 0.1,-1.1 0.2,-2.1 c 1.2,-11.3 1.3,-22.7 0.9,-34 l -1.3,-52 -0.5,-17 -0.3,-8.5 c -0.1,-2.8 -0.2,-5.7 -0.2,-8.4 0,-2.8 0.1,-5.5 0.3,-8.2 0.1,-1.4 0.3,-2.7 0.5,-3.9 0.2,-1.2 0.5,-2.4 0.9,-3.1 1.1,-2 3,-3.7 5.5,-5.1 2.3,-1.2 5,-1.8 7.8,-2.1 l 4.2,-0.4 c 0,0 0.1,0 0.1,0 0.4,0 0.7,-0.2 0.9,-0.6 0.1,-0.2 0.1,-0.4 0.1,-0.6 v -0.5 c 0,-0.7 -0.1,-1.4 -0.1,-2.1 -0.3,-0.3 -0.5,-0.7 -0.8,-0.9 z"
            id="path2035"
            class="stx"/>
        <path
            d="m 610.4,922.4 h -4.7 c -6.4,0 -11.1,-1.8 -14,-5.3 -2.2,-2.6 -3.4,-9.2 -3.4,-19.8 V 785.2 c 0,-9.7 0.8,-15.8 2.6,-18.5 2.9,-4.4 7.8,-6.6 14.8,-6.6 h 4.6 c 0.5,0 1,-0.5 1,-1 v -2.7 c 0,-0.5 -0.5,-1 -1,-1 h -43.7 c -0.8,0 -1.6,0.5 -1.9,1.3 l -55.6,128.6 c -0.7,1.7 -3.1,1.7 -3.8,0 L 448.7,756.6 c -0.3,-0.8 -1.1,-1.3 -1.9,-1.3 H 402 c -0.6,0 -1,0.4 -1,1 v 1.5 c 0,1.2 0.9,2.2 2,2.2 3.2,0 6.9,-0.4 9.5,1.7 1.5,1.2 2.6,3 3.6,4.7 6.2,11.8 6.4,24.9 6.1,38 -0.6,27.6 1.4,55.2 -0.8,82.8 -0.8,9.5 -1.6,19.5 -5.1,28.5 -2.6,6.6 -8.3,6.6 -14.3,6.6 -0.5,0 -1,0.5 -1,1 v 2.7 c 0,0.3 0.2,0.6 0.4,0.8 0.2,0.1 0.4,0.2 0.6,0.2 h 55.7 c 0.2,0 0.4,-0.1 0.6,-0.2 0.2,-0.2 0.4,-0.5 0.4,-0.8 v -2.7 c 0,-0.5 -0.5,-1 -1,-1 h -4.8 c -6.4,0 -11.1,-1.8 -14,-5.3 -2.2,-2.6 -3.2,-9.2 -3.2,-19.8 V 792.8 c 0,-2.4 3.1,-3.1 4,-0.9 1.3,3 2.6,5.9 3.9,8.9 15.2,35 29.3,70.9 45.8,105.3 2.7,5.7 9.9,17.7 16.8,9.8 1.1,-1.2 1.8,-2.8 2.5,-4.3 6.2,-13.5 12.5,-27.1 18.4,-40.8 11.4,-26.3 22.9,-52.6 34.3,-78.9 0.9,-2.2 4,-1.5 4,0.9 v 104.5 c 0,9.6 -0.9,15.8 -2.6,18.5 -2.8,4.4 -7.7,6.6 -14.6,6.6 h -4.8 c -0.5,0 -1,0.5 -1,1 v 2.7 c 0,0.2 0.1,0.5 0.3,0.7 h 68.5 c 0.2,-0.2 0.3,-0.5 0.3,-0.7 v -2.7 c -0.1,-0.5 -0.6,-1 -1.1,-1 z"
            id="path2037"
            class="stx"/>
        <path
            d="m 378.2,756.7 c 0,-0.5 0,-1 0,-1.6 0,0 0,0 0,0 0,0 0,0 0,0 0,0 0,0 0,0 0,-0.4 -0.4,-0.6 -0.6,-0.6 -0.1,0 -0.1,0 -0.1,0 h -0.7 L 310,754.4 c 0,0 0,0 -0.1,0 0,0 0,0 0,0 -1.6,0 -1.7,1.1 -1.7,1.1 v 0.1 c 0,0.1 0,0.3 0,0.4 0,0.8 0,1.7 0,2.5 0,0.3 0.1,0.6 0.4,0.8 0.3,0.2 0.6,0.2 0.9,0.2 h 4.5 c 0.5,0 0.9,0 1.4,0.1 v 0 c 0.1,0 0.1,0 0.2,0 0.3,0 0.5,0 0.8,0.1 0.2,0 0.4,0 0.6,0.1 0.2,0 0.5,0.1 0.7,0.1 0.1,0 0.3,0 0.4,0.1 l 0.3,0.1 c 0.4,0.1 1,0.3 1.4,0.4 1.1,0.4 2.2,0.8 3.2,1.3 1.2,0.6 2.5,1.3 3.5,2.2 1,0.8 1.9,1.9 2.5,3.1 0.6,1.2 0.8,2.5 1,3.9 0.3,2.8 0.4,5.6 0.4,8.4 0,2.9 -0.1,5.7 -0.2,8.5 l -0.1,8.5 -0.1,17 -0.4,69 0.1,17 c 0,2.8 -0.1,5.5 -0.4,8.2 -0.3,2.7 -0.8,5.3 -1.9,7.7 -1.1,2.3 -2.9,4.3 -5.4,5.4 -2.5,1.1 -5.3,1.6 -8.1,1.9 -0.7,0.1 -1.4,0.1 -2.1,0.2 -0.9,0.1 -1.6,0.9 -1.6,1.8 0,1.7 0.2,2.6 1.9,2.5 h 65 c 0.4,0 0.7,-0.2 0.8,-0.6 0.1,-0.3 0.1,-0.7 0.1,-1 0,-1 0.3,-2.2 -0.9,-2.4 -0.5,-0.1 -1,-0.1 -1.5,-0.1 -3,0 -6.2,-0.7 -9.1,-1.8 -1.3,-0.5 -2.5,-1.2 -3.6,-1.9 -1,-0.8 -2,-1.6 -2.7,-2.6 -0.7,-0.9 -1.2,-2 -1.4,-3 -0.3,-1.1 -0.4,-2.3 -0.4,-3.5 0,-1.2 0.1,-2.4 0.3,-3.7 l 0.1,-1 0.1,-1.1 0.2,-2.1 c 1.2,-11.3 1.3,-22.7 0.9,-34 l -1.3,-52 -0.5,-17 -0.3,-8.5 c -0.1,-2.8 -0.2,-5.7 -0.2,-8.4 0,-2.8 0.1,-5.5 0.3,-8.2 0.1,-1.4 0.3,-2.7 0.5,-3.9 0.2,-1.2 0.5,-2.4 0.9,-3.1 1.1,-2 3,-3.7 5.5,-5.1 2.3,-1.2 5,-1.8 7.8,-2.1 l 3.4,-0.3 c 0.5,0 1,0 1.4,-0.2 0.2,-0.1 0.5,-0.3 0.6,-0.5 0.1,-0.4 0.1,-0.8 0.1,-1.2 0,-0.5 0,-0.8 0,-1.1 z"
            id="path2039"
            class="stx"/></g>
</g>

</svg>
