<?xml version="1.0"?>
<svg xmlns="http://www.w3.org/2000/svg" xmlns:xlink="http://www.w3.org/1999/xlink" version="1.1" id="Layer_1" x="0px" y="0px" viewBox="0 0 512.001 512.001" style="enable-background:new 0 0 512.001 512.001;" xml:space="preserve" width="512px" height="512px" class=""><g><path style="fill:#FBCDCB;" d="M481.875,124.765c11.723,17.226-2.459,47.32-31.683,67.193c-18.262,12.429-37.947,17.942-53.1,16.112  c-3.937-17.324-10.146-33.073-19.178-46.671h0.011c6.01-11.271,16.299-22.651,29.808-31.838  C436.958,109.679,470.152,107.529,481.875,124.765z" data-original="#FBCDCB" class=""/><path style="fill:#D1893C" d="M397.092,208.07c5.889,25.981,6.627,55.536,3.937,86.823c-2.294,26.654-7.808,52.195-16.156,75.376  c-11.183-31.882-41.995-41.354-78.265-41.354c-8.58,0-16.851,0.529-24.636,1.765c-17.214,2.724-34.727,2.724-51.941,0  c-7.786-1.235-16.057-1.765-24.636-1.765c-36.16,0-66.907,9.418-78.177,41.079c-8.381-23.104-13.929-48.567-16.212-75.1  c-2.691-31.275-2.04-60.83,3.738-86.801c3.871-17.501,10.069-33.381,19.134-47.067c3.407-5.183,7.235-10.046,11.513-14.557  c13.168-13.972,30.525-24.669,52.901-31.21c16.299-4.764,35.268-7.323,57.246-7.323c22.298,0,41.542,2.636,58.051,7.532  c22.298,6.617,39.624,17.369,52.813,31.375c1.654,1.742,3.232,3.529,4.742,5.37c2.415,2.944,4.676,6.01,6.771,9.186  C386.946,174.997,393.154,190.746,397.092,208.07z" data-original="#FFF3E6" class="active-path" data-old_color="#FFF3E6"/><path style="fill:#FBCDCB;" d="M127.217,369.994c11.271-31.661,42.017-41.079,78.177-41.079c8.58,0,16.851,0.529,24.636,1.765  c17.214,2.724,34.727,2.724,51.941,0c7.786-1.235,16.057-1.765,24.636-1.765c36.27,0,67.082,9.473,78.265,41.354  c2.922,8.304,4.499,18.119,4.499,29.698c0,56.022-37.054,101.434-82.765,101.434c-19.067,0-36.613-7.896-50.607-21.162  c-13.994,13.266-31.54,21.162-50.607,21.162c-45.71,0-82.765-45.413-82.765-101.434C122.628,388.267,124.25,378.353,127.217,369.994  z M333.825,399.074c0-12.495-10.134-22.629-22.629-22.629c-12.505,0-22.629,10.134-22.629,22.629s10.124,22.629,22.629,22.629  C323.689,421.704,333.825,411.569,333.825,399.074z M223.434,399.074c0-12.495-10.124-22.629-22.629-22.629  c-12.495,0-22.629,10.134-22.629,22.629s10.134,22.629,22.629,22.629C213.311,421.704,223.434,411.569,223.434,399.074z" data-original="#FBCDCB" class=""/><path style="fill:#D1893C" d="M337.232,13.505c25.364-17.324,80.758,46.571,29.169,133.338  c-13.19-14.006-30.514-24.758-52.813-31.375C344.224,62.745,311.824,30.862,337.232,13.505z" data-original="#FFF3E6" class="active-path" data-old_color="#FFF3E6"/><g>
	<path style="fill:#666666;" d="M311.195,376.445c12.495,0,22.629,10.134,22.629,22.629s-10.134,22.629-22.629,22.629   c-12.505,0-22.629-10.134-22.629-22.629C288.566,386.579,298.689,376.445,311.195,376.445z" data-original="#666666"/>
	<path style="fill:#666666;" d="M200.805,376.445c12.505,0,22.629,10.134,22.629,22.629s-10.124,22.629-22.629,22.629   c-12.495,0-22.629-10.134-22.629-22.629S188.311,376.445,200.805,376.445z" data-original="#666666"/>
</g><path style="fill:#D1893C" d="M174.769,13.505c25.375,17.336-6.915,49.152,23.522,101.755  c-22.376,6.539-39.734,17.236-52.901,31.21h-0.011C94.177,59.889,149.437-3.788,174.769,13.505z" data-original="#FFF3E6" class="active-path" data-old_color="#FFF3E6"/><path style="fill:#FBCDCB;" d="M133.866,161.015l0.011,0.011c-9.065,13.686-15.263,29.566-19.134,47.067h-0.011  c-15.119,1.72-34.782-3.783-52.923-16.134c-29.224-19.872-43.406-49.968-31.683-67.193c11.723-17.236,44.917-15.086,74.141,4.797  C117.622,138.65,127.833,149.865,133.866,161.015z" data-original="#FBCDCB" class=""/><path d="M110.229,120.799c-15.676-10.665-33.046-17.105-48.91-18.132c-17.902-1.166-32.09,4.572-39.954,16.135  c-7.867,11.56-7.987,26.861-0.338,43.086c6.781,14.383,19.147,28.174,34.818,38.831c14.98,10.199,31.167,16.404,46.133,17.916  c-3.552,22.453-4.055,47.84-1.533,77.166c2.244,26.077,7.487,51.06,15.58,74.33c-2.653,8.85-3.996,18.865-3.996,29.836  c0,61.776,41.883,112.034,93.364,112.034c18.241,0,35.566-6.123,50.607-17.801c15.041,11.679,32.366,17.801,50.607,17.801  c51.48,0,93.364-50.258,93.364-112.034c0-10.883-1.317-20.807-3.917-29.561c8.05-23.309,13.278-48.383,15.534-74.605  c2.477-28.799,1.899-54.663-1.688-77.132c14.962-1.477,31.187-7.695,46.251-17.945c15.676-10.66,28.044-24.451,34.824-38.834  c7.649-16.225,7.529-31.526-0.336-43.083c-7.864-11.565-22.053-17.299-39.955-16.138c-15.864,1.027-33.234,7.466-48.908,18.131  c-6.311,4.291-12.125,9.138-17.256,14.341c10.525-22.849,15.129-45.867,13.351-67.439c-1.858-22.525-10.711-42.758-24.291-55.51  c-13.612-12.783-30.225-15.703-42.324-7.438c-16.914,11.555-15.773,28.089-14.668,44.08c1.056,15.299,2.237,32.444-8.381,54.234  c-15.791-3.799-33.456-5.729-52.667-5.729c-18.897,0-36.282,1.869-51.831,5.545c-10.528-21.708-9.348-38.801-8.294-54.055  c1.105-15.988,2.248-32.521-14.668-44.078c-12.267-8.373-28.469-5.539-42.277,7.401c-13.56,12.708-22.423,32.882-24.316,55.352  c-1.823,21.627,2.774,44.722,13.333,67.643C122.352,129.944,116.54,125.094,110.229,120.799z M40.199,152.851  c-4.256-9.029-4.734-17.091-1.309-22.124c3.422-5.033,11.096-7.551,21.059-6.906c11.966,0.775,25.946,6.061,38.356,14.505  c9.524,6.48,17.557,14.374,23.133,22.637c-6.36,10.857-11.402,23.175-15.058,36.76c-11.92-0.671-25.84-5.833-38.611-14.529  C55.363,174.758,45.313,163.698,40.199,152.851z M413.695,138.325c12.411-8.444,26.39-13.73,38.356-14.505  c9.965-0.642,17.637,1.873,21.06,6.908c3.423,5.03,2.945,13.093-1.311,22.122c-5.114,10.848-15.162,21.907-27.573,30.347  c-12.895,8.777-26.883,13.949-38.807,14.553c-3.701-13.48-8.754-25.697-15.083-36.454  C395.932,152.899,404.043,144.888,413.695,138.325z M337.732,47.374c-1.124-16.28-0.732-20.874,5.478-25.118  c4.044-2.762,10.882,0.712,15.856,5.387c9.657,9.068,16.266,24.695,17.676,41.799c1.565,18.986-2.973,39.625-13.138,60.31  c-10.138-8.381-21.83-15.18-34.975-20.317C340.25,83.857,338.817,63.079,337.732,47.374z M310.574,125.629  c19.607,5.819,35.794,15.401,48.141,28.51c1.47,1.548,2.893,3.162,4.234,4.796c2.178,2.654,4.236,5.447,6.137,8.328  c7.931,11.94,13.878,26.459,17.67,43.149c5.244,23.137,6.494,51.254,3.715,83.572c-1.499,17.413-4.392,34.259-8.627,50.33  c-5.973-6.718-13.386-12.168-22.215-16.284c-5.306-2.474-11.611-0.175-14.083,5.13c-2.472,5.306-0.176,11.611,5.131,14.083  c11.978,5.582,19.893,14.261,24.201,26.542c2.587,7.352,3.899,16.161,3.899,26.181c0,50.088-32.373,90.837-72.167,90.837  c-15.739,0-30.717-6.312-43.315-18.256c-4.088-3.876-10.495-3.876-14.584,0c-12.598,11.944-27.576,18.256-43.315,18.256  c-39.792,0-72.167-40.749-72.167-90.837c0-10.005,1.317-18.82,3.905-26.205c0.078-0.206,0.16-0.41,0.225-0.622  c8.375-22.935,30.008-33.627,68.037-33.627c8.413,0,16.143,0.55,22.98,1.634c18.332,2.901,36.922,2.901,55.259,0  c4.326-0.687,9.031-1.163,13.984-1.414c5.846-0.297,10.345-5.277,10.047-11.123s-5.295-10.351-11.122-10.047  c-5.703,0.289-11.165,0.845-16.227,1.648c-16.135,2.552-32.496,2.552-48.624,0c-7.928-1.258-16.775-1.896-26.297-1.896  c-21.577,0-38.874,3.156-52.88,9.649c-8.849,4.103-16.279,9.543-22.272,16.254c-4.274-16.061-7.184-32.876-8.677-50.235  c-2.79-32.419-1.604-60.542,3.527-83.602c3.723-16.836,9.652-31.472,17.641-43.534c3.096-4.71,6.577-9.113,10.371-13.11  c12.279-13.031,28.484-22.554,48.161-28.306c15.657-4.576,33.917-6.896,54.273-6.896  C276.184,118.536,294.701,120.922,310.574,125.629z M135.274,69.284c1.437-17.057,8.05-32.633,17.688-41.665  c4.969-4.657,11.79-8.118,15.829-5.364c6.21,4.243,6.602,8.835,5.476,25.111c-1.082,15.647-2.51,36.342,8.985,61.804  c-13.191,5.095-24.907,11.857-35.04,20.202C138.15,108.756,133.68,88.195,135.274,69.284z" data-original="#000000" class="" style="fill:#754100" data-old_color="#000000"/><path d="M323.183,340.311c0.961,0.1,1.918,0.21,2.865,0.331c0.453,0.057,0.902,0.085,1.346,0.085c5.26,0,9.824-3.913,10.501-9.268  c0.734-5.807-3.377-11.11-9.183-11.846c-1.104-0.14-2.218-0.267-3.339-0.384c-5.826-0.609-11.032,3.624-11.636,9.447  C313.131,334.496,317.361,339.706,323.183,340.311z" data-original="#000000" class="" style="fill:#754100" data-old_color="#000000"/><path d="M200.805,365.846c-18.322,0-33.229,14.906-33.229,33.228c0,18.322,14.906,33.229,33.229,33.229s33.228-14.906,33.228-33.229  C234.033,380.751,219.127,365.846,200.805,365.846z M200.805,411.105c-6.634,0-12.031-5.397-12.031-12.031  c0-6.634,5.397-12.03,12.031-12.03c6.634,0,12.03,5.397,12.03,12.03S207.439,411.105,200.805,411.105z" data-original="#000000" class="" style="fill:#754100" data-old_color="#000000"/><path d="M277.967,399.074c0,18.322,14.906,33.229,33.229,33.229s33.228-14.906,33.228-33.229c0-18.323-14.905-33.228-33.228-33.228  C292.873,365.846,277.967,380.752,277.967,399.074z M311.196,387.043c6.634,0,12.03,5.397,12.03,12.03s-5.397,12.031-12.03,12.031  s-12.031-5.397-12.031-12.031C299.164,392.44,304.562,387.043,311.196,387.043z" data-original="#000000" class="" style="fill:#754100" data-old_color="#000000"/><path d="M175.959,233.93c-5.854,0-10.599,4.745-10.599,10.599v6.474c0,5.854,4.745,10.599,10.599,10.599s10.599-4.745,10.599-10.599  v-6.474C186.558,238.675,181.813,233.93,175.959,233.93z" data-original="#000000" class="" style="fill:#754100" data-old_color="#000000"/><path d="M336.041,261.601c5.853,0,10.599-4.745,10.599-10.599v-6.474c0-5.854-4.746-10.599-10.599-10.599  c-5.853,0-10.599,4.745-10.599,10.599v6.474C325.442,256.856,330.188,261.601,336.041,261.601z" data-original="#000000" class="" style="fill:#754100" data-old_color="#000000"/></g> </svg>
