<?xml version="1.0" standalone="no"?>
<!DOCTYPE svg PUBLIC "-//W3C//DTD SVG 20010904//EN"
 "http://www.w3.org/TR/2001/REC-SVG-20010904/DTD/svg10.dtd">
<svg version="1.0" xmlns="http://www.w3.org/2000/svg"
 width="1749.000000pt" height="1749.000000pt" viewBox="0 0 1749.000000 1749.000000"
 preserveAspectRatio="xMidYMid meet">
<metadata>
Created by potrace 1.11, written by Peter Selinger 2001-2013
</metadata>
<g transform="translate(0.000000,1749.000000) scale(0.100000,-0.100000)"
fill="#000000" stroke="none">
<path d="M12638 13104 c-3 -2 -24 -6 -49 -9 -117 -13 -158 -20 -259 -47 -41
-11 -79 -21 -85 -23 -5 -1 -17 -5 -25 -8 -8 -3 -44 -15 -79 -27 -83 -27 -164
-61 -279 -116 -51 -24 -95 -44 -97 -44 -2 0 -42 -22 -90 -50 -48 -27 -88 -50
-91 -50 -2 0 -34 -18 -71 -40 -38 -22 -75 -45 -83 -49 -52 -31 -346 -216 -350
-220 -6 -8 -41 -29 -60 -38 -8 -4 -36 -22 -62 -40 -26 -18 -50 -33 -52 -33 -3
0 -32 -18 -65 -40 -33 -22 -65 -40 -71 -40 -5 0 -10 -4 -10 -10 0 -5 -4 -10
-9 -10 -5 0 -50 -25 -100 -55 -224 -134 -583 -300 -714 -330 -12 -2 -62 -16
-111 -29 -49 -14 -91 -25 -95 -24 -3 0 -8 -1 -11 -2 -11 -4 -47 -10 -80 -14
-19 -2 -35 -5 -35 -6 0 -5 -137 -13 -242 -14 -68 -1 -123 -3 -123 -6 0 -6
-130 -2 -147 5 -7 2 -13 1 -13 -3 0 -8 -233 -7 -255 2 -8 3 -15 2 -15 -2 0 -4
-21 -6 -47 -4 -27 1 -68 2 -93 1 -25 0 -52 0 -60 0 -8 0 -35 0 -60 0 -25 0
-52 0 -60 0 -25 1 -99 0 -232 -2 -71 -1 -128 1 -128 6 0 4 -8 4 -17 -1 -10 -4
-45 -7 -78 -5 -33 1 -127 4 -210 7 -82 3 -177 8 -210 10 -33 3 -100 8 -150 11
-113 7 -157 11 -220 19 -27 4 -75 8 -105 11 -149 13 -235 22 -235 25 0 1 -21
3 -46 5 -25 1 -66 6 -90 9 -53 7 -206 26 -269 32 -25 3 -56 7 -70 10 -14 2
-52 7 -85 10 -33 3 -71 7 -85 10 -14 2 -52 6 -85 9 -33 3 -76 8 -95 10 -162
21 -267 27 -465 28 -200 0 -407 -10 -595 -28 -25 -3 -74 -7 -110 -10 -36 -3
-83 -7 -105 -9 -22 -2 -78 -7 -125 -11 -47 -3 -98 -7 -115 -9 -16 -2 -73 -7
-125 -11 -52 -4 -111 -9 -130 -10 -55 -5 -227 -17 -310 -21 -106 -5 -510 -5
-600 1 -128 9 -264 22 -310 30 -8 2 -35 6 -60 9 -25 3 -56 8 -70 11 -14 4 -37
8 -51 10 -14 2 -68 14 -120 26 -52 13 -97 24 -101 25 -5 1 -9 2 -10 4 -2 1
-10 3 -18 5 -8 2 -69 17 -135 34 -66 17 -131 33 -145 35 -14 3 -52 10 -85 17
-33 6 -73 13 -90 15 -16 2 -43 5 -60 7 -162 23 -500 30 -645 13 -124 -14 -134
-15 -170 -21 -136 -25 -423 -117 -454 -146 -6 -5 -16 -9 -23 -9 -8 0 -19 -5
-26 -10 -20 -17 -129 -80 -138 -80 -5 0 -9 -4 -9 -10 0 -5 -5 -10 -11 -10 -6
0 -16 -6 -23 -12 -7 -7 -25 -22 -41 -33 -66 -46 -259 -248 -248 -259 4 -3 1
-6 -5 -6 -5 0 -21 -17 -33 -37 -13 -21 -25 -40 -28 -43 -24 -21 -164 -313
-176 -365 -1 -5 -5 -18 -9 -27 -4 -9 -9 -22 -10 -30 -2 -7 -6 -20 -9 -28 -3
-8 -11 -35 -18 -60 -7 -25 -14 -49 -15 -55 -2 -5 -5 -20 -8 -33 -3 -13 -7 -31
-10 -40 -6 -23 -17 -85 -23 -147 -9 -77 -8 -392 1 -465 4 -36 9 -79 11 -95 1
-17 5 -44 9 -60 3 -17 8 -48 12 -70 3 -22 9 -56 14 -75 5 -19 11 -52 14 -74 4
-21 8 -42 11 -46 3 -5 7 -21 9 -37 2 -15 16 -79 31 -141 15 -62 28 -118 29
-125 2 -6 6 -19 9 -27 6 -14 28 -92 32 -115 2 -5 13 -44 26 -85 12 -41 24 -79
25 -85 2 -5 23 -76 47 -157 25 -82 43 -148 41 -148 -3 0 0 -8 5 -18 6 -11 12
-30 15 -43 3 -13 15 -55 26 -94 12 -38 28 -92 35 -120 7 -27 27 -99 44 -160
17 -60 36 -128 43 -150 6 -22 17 -58 24 -80 7 -22 16 -58 20 -80 10 -48 9 -46
16 -65 5 -13 34 -128 43 -170 2 -8 24 -96 50 -195 25 -99 48 -188 50 -197 5
-19 14 -52 20 -78 2 -8 4 -15 5 -15 1 0 3 -11 6 -25 2 -14 10 -45 18 -70 8
-25 19 -70 26 -100 27 -119 58 -157 121 -148 75 11 87 51 64 208 -5 33 -21
163 -30 245 -3 28 -8 60 -11 73 -2 12 -7 44 -9 70 -3 26 -10 79 -15 117 -6 39
-13 88 -16 110 -8 61 -14 107 -18 135 -2 14 -7 49 -11 79 -4 30 -9 63 -11 75
-2 12 -7 46 -10 76 -3 30 -7 57 -9 60 -2 3 -6 34 -10 70 -3 36 -8 72 -11 81
-5 17 -9 48 -19 129 -3 25 -8 59 -11 75 -3 17 -7 41 -9 55 -2 14 -6 41 -10 60
-3 19 -8 46 -10 60 -3 14 -9 48 -14 75 -5 28 -9 57 -10 65 0 8 -12 79 -26 158
-13 78 -24 146 -24 150 1 4 0 9 -1 12 -4 12 -10 48 -15 95 -3 28 -8 79 -12
115 -11 88 -10 481 1 550 4 30 9 64 11 75 1 11 8 43 15 70 6 28 14 60 16 72 2
12 9 35 15 50 6 16 13 39 15 52 3 14 8 29 12 35 4 6 7 13 8 16 0 3 6 18 12 33
7 16 12 35 12 43 0 8 5 14 10 14 6 0 10 7 10 15 0 26 127 251 164 291 6 7 20
24 31 40 49 68 229 234 254 234 6 0 11 4 11 9 0 5 14 14 30 21 17 7 30 16 30
21 0 5 3 8 8 7 4 -1 34 11 67 26 100 46 117 53 200 79 84 27 176 52 235 62 19
4 40 8 45 9 6 2 33 6 60 10 28 4 61 10 75 12 23 4 47 6 185 19 260 24 883 24
1160 0 107 -10 200 -21 255 -30 14 -2 45 -7 70 -10 25 -3 56 -8 70 -11 14 -3
36 -7 50 -10 23 -4 128 -26 140 -29 21 -5 122 -26 150 -31 19 -3 73 -7 120 -9
47 -2 87 -5 90 -6 3 -1 9 -1 13 0 4 1 43 3 85 6 101 6 219 20 251 29 9 3 36 8
61 11 25 3 53 8 62 11 20 6 52 13 97 20 19 3 45 10 58 15 13 5 23 6 23 4 0 -2
12 0 28 6 15 6 38 12 52 14 14 2 50 11 80 20 59 16 225 49 300 60 25 3 56 8
70 10 149 21 301 32 695 50 210 9 676 9 790 0 50 -3 110 -8 135 -10 25 -2 45
-4 45 -5 0 -1 29 -3 65 -5 63 -3 138 -10 210 -20 19 -3 51 -7 70 -9 38 -5 85
-12 170 -26 30 -5 73 -12 95 -15 22 -2 51 -7 65 -10 114 -23 416 -23 500 0 8
2 31 7 50 10 19 3 42 8 50 10 8 2 29 7 45 10 17 2 39 7 50 9 207 45 230 48
495 51 621 7 1133 32 1455 70 22 3 60 7 85 10 25 2 84 9 132 16 90 11 123 15
243 26 93 10 473 10 555 1 69 -8 91 -12 197 -33 14 -3 33 -10 42 -14 9 -5 21
-9 26 -10 14 -1 76 -21 100 -31 78 -33 171 -75 175 -80 3 -3 19 -12 35 -20 17
-8 32 -17 35 -20 3 -3 28 -21 55 -40 73 -51 81 -58 169 -145 95 -94 108 -110
174 -207 128 -188 252 -498 298 -748 2 -14 7 -36 10 -50 3 -13 7 -40 10 -59 2
-19 6 -46 9 -60 15 -88 18 -114 32 -306 12 -170 6 -557 -12 -755 -6 -75 -17
-186 -21 -215 -2 -16 -6 -52 -8 -80 -9 -83 -16 -138 -22 -175 -3 -19 -6 -42
-6 -50 0 -8 -4 -35 -8 -60 -5 -25 -11 -72 -15 -105 -4 -33 -9 -71 -11 -85 -3
-14 -7 -43 -10 -65 -2 -22 -6 -53 -9 -70 -3 -16 -7 -50 -10 -75 -3 -25 -7 -58
-10 -75 -3 -16 -7 -52 -10 -80 -3 -27 -8 -58 -11 -67 -3 -10 -7 -35 -9 -55 -6
-69 -43 -243 -71 -341 -39 -133 12 -298 107 -347 30 -16 88 -11 128 10 23 11
81 71 109 110 12 17 60 119 81 172 30 77 64 147 74 154 5 3 8 8 7 10 -3 6 46
107 90 184 21 39 48 86 59 106 11 19 27 41 35 48 9 8 16 18 16 23 0 5 4 14 10
21 5 7 35 46 67 87 31 41 60 77 65 78 4 2 8 8 8 13 0 18 235 246 330 320 121
94 157 119 170 119 5 0 10 3 10 8 0 4 21 19 48 32 26 14 49 28 52 32 6 8 211
115 223 117 4 0 20 7 36 15 80 42 261 107 331 120 92 16 151 26 190 30 25 4
56 8 70 11 14 2 50 7 80 10 66 7 113 13 160 21 19 3 49 8 65 9 17 2 30 4 30 5
0 1 15 4 34 7 19 2 77 16 130 29 122 32 111 29 146 43 17 7 35 14 40 16 43 13
55 18 55 26 0 5 3 8 8 7 4 -1 23 6 42 16 82 43 171 112 259 200 130 131 208
168 467 221 40 8 72 13 124 19 25 3 54 8 66 10 12 2 45 7 75 11 30 3 65 8 79
10 14 2 45 6 70 10 25 3 56 8 70 10 14 3 36 7 50 10 204 37 300 101 300 201 0
39 4 45 49 78 27 20 64 55 83 78 36 44 83 128 72 128 -4 0 -2 6 3 13 30 37 39
160 18 260 -17 82 -118 206 -280 342 -97 82 -128 114 -225 234 -19 24 -51 63
-70 86 -19 23 -42 51 -50 61 -50 63 -106 130 -115 136 -5 4 -6 8 -1 8 5 0 0 8
-11 18 -11 9 -71 87 -133 172 -63 85 -117 157 -122 158 -4 2 -8 8 -8 13 0 5
-18 33 -40 62 -22 29 -44 57 -48 62 -4 6 -30 39 -57 75 -27 36 -54 68 -60 72
-5 4 -7 8 -3 8 4 0 -6 15 -21 33 -16 17 -65 75 -108 127 -167 202 -282 302
-443 384 -116 59 -136 77 -331 283 -108 114 -309 278 -401 327 -52 27 -74 34
-114 32 -76 -4 -76 -4 -173 -92 -91 -83 -108 -98 -136 -122 -37 -32 -152 -105
-192 -123 -18 -8 -33 -17 -33 -21 0 -5 -3 -7 -7 -6 -5 1 -21 -5 -38 -12 -42
-17 -100 -21 -159 -9 -28 6 -56 12 -63 13 -7 1 -16 5 -19 9 -4 4 -13 7 -19 7
-7 0 -38 11 -69 25 -31 14 -57 24 -59 22 -1 -1 -16 8 -34 21 -17 12 -34 22
-37 22 -3 0 -100 56 -215 125 -115 69 -213 125 -219 125 -5 0 -15 7 -22 15 -7
8 -16 12 -21 9 -5 -3 -9 0 -9 5 0 6 -5 11 -10 11 -6 0 -30 9 -52 20 -23 11
-48 20 -55 20 -7 0 -13 5 -13 12 0 6 -3 9 -6 5 -4 -3 -19 0 -35 9 -16 8 -29
13 -29 10 0 -2 -16 0 -36 6 -20 5 -46 12 -58 15 -25 7 -372 13 -378 7z m222
-645 c25 -5 50 -11 55 -12 26 -8 93 -30 120 -40 45 -18 309 -149 315 -157 5
-7 36 -20 46 -19 4 0 10 -4 13 -9 18 -28 300 -152 382 -167 19 -3 50 -9 69
-13 45 -8 340 -8 402 0 26 4 84 14 130 23 46 9 94 18 108 21 14 3 34 8 45 11
11 4 29 8 40 9 17 2 78 15 180 41 11 3 29 6 40 8 11 2 20 4 20 5 0 7 129 24
181 23 98 0 201 -71 304 -207 40 -53 45 -65 44 -110 0 -44 -8 -105 -18 -141
-11 -38 -39 -99 -107 -233 -42 -84 -79 -162 -82 -173 -3 -10 -6 -23 -7 -27 -1
-4 -7 -16 -13 -27 -21 -38 -18 -188 4 -257 78 -239 298 -413 511 -404 86 4 90
5 148 34 96 47 156 135 163 240 7 92 -54 188 -165 263 -50 35 -153 92 -168 94
-3 1 -30 13 -61 28 -89 43 -110 113 -64 210 22 48 91 117 118 119 169 11 313
-76 521 -317 28 -32 95 -104 148 -160 113 -117 123 -128 197 -220 31 -38 59
-71 64 -73 4 -2 7 -9 7 -15 0 -6 7 -19 17 -29 9 -10 21 -26 27 -37 66 -113
119 -228 110 -242 -3 -5 -1 -9 4 -9 11 0 11 -3 15 -108 3 -69 0 -92 -20 -140
-12 -31 -27 -58 -33 -60 -5 -2 -10 -8 -10 -13 0 -22 -142 -139 -169 -139 -6 0
-11 -5 -11 -12 0 -6 -3 -8 -7 -5 -3 4 -16 1 -27 -6 -21 -14 -153 -63 -191 -72
-151 -35 -228 -51 -295 -60 -25 -3 -56 -8 -70 -10 -51 -9 -160 -19 -315 -29
-162 -11 -216 -24 -385 -93 -91 -37 -378 -196 -461 -254 -14 -10 -29 -16 -33
-12 -3 3 -6 1 -6 -5 0 -6 -12 -17 -27 -24 -16 -8 -55 -29 -88 -48 -266 -149
-446 -208 -655 -214 -83 -3 -193 13 -248 36 -15 6 -29 12 -32 13 -18 4 -94 49
-108 63 -9 9 -29 26 -43 37 -67 53 -156 193 -214 339 -31 76 -96 290 -109 356
-2 14 -10 48 -16 75 -6 28 -14 61 -16 75 -3 14 -7 32 -9 40 -2 8 -7 31 -10 50
-3 19 -10 51 -15 70 -5 19 -12 51 -15 70 -3 19 -8 42 -10 50 -2 8 -7 29 -9 45
-3 17 -19 84 -36 150 -17 66 -32 127 -34 135 -20 79 -140 340 -157 340 -5 0
-9 5 -9 12 0 11 -70 118 -95 144 -5 6 -26 31 -45 55 -67 82 -224 234 -305 294
-22 17 -44 34 -50 38 -56 46 -251 154 -292 163 -20 4 -76 45 -107 78 -38 41
-59 91 -59 143 0 38 18 100 33 113 3 3 13 17 23 32 27 43 118 106 206 143 45
19 81 32 81 29 0 -3 6 -2 13 3 6 4 19 8 27 10 8 1 78 18 155 38 77 20 163 39
190 42 28 3 52 7 54 9 7 6 149 -6 201 -17z"/>
<path d="M6748 11246 c-1 -2 -64 -6 -138 -10 -74 -3 -153 -10 -174 -15 -22 -6
-42 -9 -45 -9 -9 2 -84 -13 -101 -19 -8 -3 -19 -7 -25 -8 -5 -1 -12 -3 -15 -4
-3 -1 -19 -4 -36 -6 -69 -10 -279 -91 -419 -163 -240 -123 -496 -327 -660
-527 -22 -27 -48 -57 -57 -67 -10 -10 -18 -22 -18 -27 0 -5 -7 -14 -15 -21
-39 -32 -172 -249 -246 -400 -69 -141 -166 -417 -183 -517 -2 -15 -5 -28 -6
-28 -2 0 -9 -33 -15 -75 -5 -36 -12 -77 -20 -120 -13 -68 -19 -184 -18 -370 0
-188 4 -251 18 -335 2 -16 7 -47 11 -69 3 -21 8 -48 10 -60 3 -11 9 -41 14
-66 5 -25 18 -79 30 -120 11 -41 22 -82 25 -90 2 -8 18 -53 35 -100 17 -47 37
-100 42 -117 6 -18 15 -33 20 -33 4 0 8 -6 8 -14 0 -34 185 -365 224 -401 6
-5 28 -34 48 -64 51 -74 278 -323 278 -305 0 2 12 -9 28 -25 15 -15 61 -53
102 -85 41 -31 80 -61 87 -66 7 -6 16 -10 22 -10 5 0 11 -4 13 -8 10 -24 337
-197 408 -217 25 -6 59 -18 75 -25 29 -13 125 -41 160 -46 17 -3 44 -9 60 -14
17 -5 50 -12 75 -15 25 -3 52 -8 60 -10 85 -23 442 -23 550 0 14 3 39 7 55 10
26 4 53 9 105 20 8 2 15 4 15 5 0 1 11 3 25 6 33 6 238 73 270 89 171 82 234
115 282 147 31 21 62 38 67 38 6 0 11 4 11 8 0 4 15 16 33 27 33 19 46 29 76
55 9 8 35 28 56 45 89 67 385 382 385 410 0 4 6 12 13 19 6 8 19 24 27 36 8
12 23 33 33 45 9 13 17 27 17 31 0 4 6 15 14 23 7 9 32 52 56 96 23 44 47 84
51 90 5 5 9 17 9 27 0 10 5 18 10 18 6 0 10 4 10 10 0 5 11 34 25 64 14 30 25
57 25 59 0 3 8 22 17 43 9 22 17 41 18 44 0 3 4 11 8 18 5 6 6 12 2 12 -3 0 2
17 11 38 8 20 18 45 20 55 6 25 11 45 28 107 29 103 57 257 73 395 15 135 8
540 -11 627 -3 13 -8 41 -12 63 -3 22 -8 54 -10 70 -3 17 -12 59 -20 94 -9 36
-17 72 -19 80 -2 9 -16 54 -30 101 -15 47 -29 95 -32 108 -3 12 -9 25 -14 28
-5 3 -9 11 -9 18 0 8 -10 35 -22 62 -12 27 -22 51 -23 54 -2 14 -101 205 -107
208 -5 2 -8 8 -8 14 0 5 -13 29 -30 53 -16 24 -30 48 -30 54 0 6 -4 11 -8 11
-5 0 -15 12 -23 28 -8 15 -16 29 -19 32 -3 3 -25 32 -49 65 -25 33 -55 70 -68
83 -13 12 -21 22 -18 22 11 0 -197 204 -266 262 -54 44 -166 125 -222 160
-154 95 -424 205 -570 234 -10 2 -26 5 -35 8 -18 6 -57 13 -112 22 -19 3 -46
7 -60 10 -14 2 -65 7 -115 10 -49 3 -95 7 -102 9 -6 2 -13 2 -15 1z m123 -489
c20 -3 53 -13 73 -21 20 -8 36 -13 36 -10 0 7 98 -44 157 -82 66 -42 179 -149
235 -222 24 -31 46 -58 51 -60 4 -2 7 -8 7 -12 0 -5 12 -26 26 -47 36 -52 150
-287 158 -326 2 -6 8 -25 15 -42 11 -28 47 -147 57 -190 2 -11 6 -29 9 -40 73
-311 87 -723 40 -1160 -3 -27 -10 -72 -15 -100 -6 -27 -12 -66 -14 -85 -3 -19
-5 -35 -6 -35 -2 0 -6 -19 -13 -60 -18 -104 -76 -291 -134 -435 -32 -77 -117
-250 -135 -275 -26 -34 -78 -118 -78 -126 0 -5 -4 -9 -10 -9 -5 0 -10 -4 -10
-10 0 -5 -8 -18 -17 -28 -10 -10 -36 -40 -58 -67 -111 -135 -264 -252 -405
-308 -76 -30 -202 -56 -251 -51 -98 10 -119 14 -181 34 -37 11 -70 25 -73 30
-3 6 -15 10 -25 10 -10 0 -20 3 -22 8 -1 4 -32 27 -66 50 -81 55 -209 186
-246 251 -5 9 -12 18 -16 21 -18 14 -160 274 -160 294 0 2 -8 21 -17 42 -9 22
-17 41 -18 44 -1 3 -5 12 -8 20 -15 36 -78 256 -82 287 -2 18 -6 37 -9 42 -3
4 -8 34 -12 66 -3 32 -8 68 -10 79 -11 48 -13 64 -19 121 -12 133 -18 256 -18
370 0 129 10 354 18 395 2 14 7 50 9 80 3 30 7 66 10 80 3 14 7 41 10 60 7 46
13 74 32 170 3 14 7 35 9 48 4 27 33 130 42 152 7 18 10 29 17 57 2 12 11 37
19 55 8 18 22 51 30 73 23 62 88 197 109 228 11 15 17 27 14 27 -5 0 30 57 59
95 8 10 15 24 15 30 0 6 8 18 18 27 22 21 42 46 42 52 0 14 217 236 231 236 3
0 23 13 43 30 60 47 201 110 289 129 77 17 169 19 248 8z"/>
<path d="M11625 11123 c-46 -15 -75 -54 -75 -100 0 -28 33 -140 50 -173 10
-18 40 -159 46 -210 2 -19 6 -62 10 -95 3 -33 6 -175 5 -315 0 -140 -1 -501
-2 -802 -1 -494 -2 -547 -17 -553 -19 -7 -24 -1 -124 145 -39 58 -75 107 -80
108 -4 2 -8 10 -8 17 0 7 -3 15 -8 17 -4 2 -26 30 -48 63 -23 33 -61 89 -85
125 -24 36 -48 69 -52 75 -13 16 -445 638 -552 795 -32 47 -65 91 -73 98 -9 6
-13 12 -9 12 3 0 -19 34 -49 76 -30 43 -62 90 -71 105 -10 16 -21 29 -25 29
-4 0 -8 5 -8 10 0 6 -18 35 -40 64 -22 29 -40 58 -40 64 0 7 -3 12 -7 12 -5 0
-24 25 -43 55 -19 30 -38 54 -42 55 -5 0 -8 6 -8 14 0 8 -4 16 -8 18 -5 2 -26
30 -47 63 -21 33 -47 70 -59 83 -27 30 -113 93 -129 96 -6 1 -21 7 -32 13 -18
9 -51 20 -95 30 -8 1 -49 3 -90 2 -41 0 -286 -1 -545 -3 -258 -2 -477 -4 -486
-4 -9 -1 -23 -16 -32 -34 -14 -29 -14 -33 6 -64 20 -30 68 -60 90 -55 5 1 37
-27 70 -61 71 -72 125 -174 152 -282 9 -38 19 -79 22 -90 3 -12 7 -772 8
-1691 2 -918 4 -1670 5 -1670 1 0 3 -18 5 -40 20 -225 115 -378 241 -389 149
-14 393 139 439 274 1 3 4 12 7 20 14 34 16 60 5 60 -8 0 -8 3 0 11 8 8 8 19
2 33 -5 11 -15 51 -23 88 -14 69 -14 133 -2 993 4 220 9 603 12 850 9 681 9
698 21 702 6 2 35 -25 64 -59 30 -35 56 -65 59 -68 16 -15 140 -170 140 -175
0 -3 11 -18 25 -33 44 -50 283 -390 374 -532 86 -136 257 -420 272 -452 7 -16
16 -28 20 -28 4 0 12 -12 18 -27 5 -16 23 -50 39 -78 42 -72 64 -111 109 -195
23 -41 57 -104 77 -140 20 -36 48 -90 63 -120 16 -30 30 -57 33 -60 3 -3 26
-45 51 -95 26 -49 59 -112 74 -140 15 -27 90 -174 168 -325 160 -314 231 -445
279 -511 37 -52 105 -129 113 -129 6 0 66 -41 75 -51 3 -3 31 -12 62 -21 169
-47 412 31 503 162 34 50 36 89 4 110 -75 48 -101 99 -104 200 -2 38 -6 73 -9
79 -4 6 -4 11 1 11 4 0 8 17 9 38 0 20 4 57 8 82 4 25 10 61 12 80 3 19 7 46
11 60 3 14 7 36 9 50 4 35 13 90 18 120 3 14 8 43 11 65 4 22 9 54 11 70 3 17
7 46 9 65 2 19 7 46 10 60 3 14 7 43 9 65 5 53 16 136 21 155 2 8 7 47 11 85
3 39 8 79 10 90 6 30 18 140 29 260 3 39 8 84 10 101 7 58 19 239 19 306 1 38
3 68 6 68 6 0 8 88 8 385 1 297 -9 487 -33 655 -17 120 -30 191 -52 289 -14
63 -26 119 -27 125 -1 6 -4 16 -8 21 -3 6 -9 26 -13 45 -4 19 -11 41 -15 50
-5 8 -19 42 -31 75 -37 98 -106 229 -149 280 -131 155 -250 246 -382 289 -54
18 -160 18 -213 -1z"/>
<path d="M2497 11114 c-1 -1 -76 -5 -167 -9 -91 -3 -178 -8 -195 -11 -16 -2
-48 -6 -70 -8 -127 -15 -147 -18 -255 -46 -47 -12 -92 -23 -100 -25 -29 -7
-185 -73 -235 -100 -130 -70 -317 -236 -364 -323 -6 -11 -17 -27 -26 -35 -29
-30 -122 -226 -141 -302 -2 -5 -10 -37 -20 -70 -9 -33 -18 -69 -20 -80 -7 -37
-15 -80 -20 -110 -10 -54 -12 -439 -3 -462 5 -13 4 -25 -2 -28 -5 -4 -6 -12
-2 -18 4 -7 8 -19 9 -27 3 -25 15 -133 19 -175 2 -22 7 -65 11 -95 4 -30 7
-70 8 -87 1 -18 3 -33 6 -33 3 0 5 -10 6 -22 0 -22 11 -103 19 -158 5 -32 15
-106 20 -145 2 -16 4 -30 5 -30 1 0 3 -9 4 -20 2 -11 7 -40 11 -65 4 -25 9
-56 10 -70 2 -14 10 -68 19 -120 23 -131 25 -143 41 -245 8 -49 17 -101 20
-115 3 -14 7 -43 10 -65 2 -22 7 -53 11 -70 6 -33 11 -61 19 -115 10 -71 14
-96 24 -159 6 -35 10 -66 9 -70 0 -3 1 -8 2 -11 4 -11 10 -48 15 -95 3 -27 7
-61 10 -75 2 -14 7 -45 9 -70 3 -25 7 -61 10 -80 3 -19 8 -60 11 -90 3 -30 7
-68 10 -85 9 -57 6 -174 -5 -195 -6 -11 -8 -20 -5 -20 6 0 -25 -61 -36 -70 -3
-3 -25 -21 -47 -40 -33 -27 -42 -41 -42 -66 0 -36 16 -52 85 -87 98 -49 164
-62 310 -62 117 1 152 5 255 30 36 9 72 18 80 20 8 1 35 9 60 16 25 7 49 12
54 10 4 -1 14 4 22 10 8 6 14 9 14 6 0 -3 16 -1 36 5 44 12 40 11 184 42 64
14 131 27 150 30 19 2 44 7 55 9 11 3 47 8 80 11 106 11 159 17 190 22 17 2
59 6 95 9 36 2 88 7 115 9 88 9 198 17 275 21 183 10 328 22 360 30 3 1 21 5
40 9 58 13 164 48 179 60 8 6 17 10 20 9 19 -7 159 76 256 151 91 71 255 260
255 295 0 5 3 11 8 13 17 8 90 179 111 263 33 131 37 314 10 440 -28 133 -101
308 -146 353 -7 7 -13 17 -13 22 0 22 -223 250 -246 250 -7 0 -14 4 -16 9 -5
13 -113 80 -202 124 -63 31 -290 119 -303 118 -2 0 -8 1 -15 3 -19 6 -68 17
-105 23 -36 6 -43 20 -15 30 63 22 158 60 222 91 41 19 78 35 83 34 4 -1 7 2
7 6 0 5 12 14 26 20 28 13 141 88 188 125 88 68 246 245 246 274 0 7 4 13 8
13 4 0 13 12 19 28 7 15 23 53 37 85 14 32 27 70 30 85 2 15 9 50 15 77 9 47
8 226 -3 270 -2 11 -11 52 -20 90 -34 148 -119 326 -206 430 -36 43 -121 126
-159 155 -18 14 -38 30 -44 35 -34 30 -157 96 -272 145 -74 32 -336 103 -362
99 -5 -1 -10 0 -13 1 -3 1 -14 3 -25 5 -11 1 -42 6 -70 10 -106 15 -528 38
-538 29z m-44 -278 c161 -22 337 -114 468 -246 171 -173 258 -393 253 -644 -4
-190 -40 -321 -125 -449 -113 -171 -305 -300 -534 -362 -5 -1 -13 -3 -17 -4
-4 -1 -22 -7 -40 -12 -56 -17 -183 -22 -221 -10 -95 32 -149 142 -151 308 -1
29 -5 53 -10 53 -6 0 -5 5 1 11 8 8 8 20 3 35 -6 15 -6 24 0 24 5 0 7 6 4 14
-8 22 -10 136 -2 136 4 0 4 10 -1 23 -5 14 -5 30 0 40 7 11 6 17 0 17 -7 0 -7
8 -1 25 5 13 6 26 2 29 -9 5 -8 59 2 74 3 6 3 13 -1 15 -10 6 -8 717 2 772 13
76 78 136 165 152 13 2 26 5 27 7 5 4 126 -1 176 -8z m9 -2032 c162 -19 320
-78 453 -168 60 -41 215 -184 215 -199 0 -4 6 -15 13 -23 32 -38 31 -37 78
-120 10 -19 16 -34 13 -34 -4 0 -1 -6 5 -14 18 -22 52 -135 66 -219 14 -89 12
-262 -3 -322 -6 -22 -13 -52 -16 -66 -2 -15 -11 -41 -20 -58 -9 -17 -16 -33
-16 -36 2 -15 -60 -127 -93 -170 -90 -118 -181 -192 -316 -260 -73 -37 -173
-70 -241 -81 -19 -3 -46 -7 -60 -10 -33 -6 -219 -6 -229 0 -4 3 -22 8 -39 11
-37 6 -96 38 -130 69 -23 22 -57 76 -54 87 0 4 -3 20 -7 37 -5 17 -6 33 -3 37
3 3 7 304 8 668 1 364 5 672 8 685 18 78 77 143 156 172 35 12 149 29 162 23
4 -2 26 -6 50 -9z"/>
<path d="M9356 6213 c-3 -4 -23 -8 -44 -9 -103 -5 -210 -52 -289 -127 -105
-100 -160 -269 -131 -397 5 -19 10 -43 13 -53 18 -75 109 -191 215 -270 76
-57 259 -177 270 -177 5 0 10 -4 10 -10 0 -5 5 -10 10 -10 17 0 188 -118 218
-150 103 -110 130 -231 73 -340 -24 -47 -96 -120 -118 -120 -7 0 -13 -4 -13
-8 0 -5 -6 -9 -12 -10 -7 0 -31 -6 -53 -11 -52 -14 -158 -12 -213 5 -23 7 -45
12 -48 12 -11 1 -99 47 -117 61 -54 44 -96 111 -97 154 0 10 -12 22 -26 27
-39 15 -125 15 -134 0 -12 -19 -1 -331 11 -347 18 -21 26 -16 43 27 22 55 47
64 116 45 68 -19 69 -19 102 -33 151 -62 339 -75 474 -34 115 36 234 142 292
262 38 78 47 212 20 304 -6 22 -11 44 -10 49 1 4 -3 7 -9 7 -5 0 -8 4 -5 9 8
12 -70 131 -85 131 -7 0 -9 3 -6 6 9 10 -237 194 -258 194 -4 0 -26 14 -50 30
-24 17 -46 30 -49 30 -2 0 -47 28 -98 61 -213 141 -282 224 -277 334 5 88 38
146 120 207 43 32 82 42 164 42 106 -1 183 -27 246 -86 35 -33 79 -110 79
-140 0 -8 8 -22 18 -30 19 -18 121 -31 141 -19 10 7 14 50 17 180 4 196 2 202
-68 156 -48 -32 -131 -37 -188 -12 -66 29 -126 45 -190 50 -19 2 -40 6 -46 10
-6 3 -14 3 -18 0z"/>
<path d="M6048 6194 c-2 -1 -19 -6 -38 -9 -162 -28 -309 -112 -436 -248 -119
-128 -178 -248 -220 -447 -3 -14 -7 -47 -8 -73 -2 -26 -5 -49 -7 -52 -5 -4 -1
-166 5 -225 4 -37 14 -86 29 -145 40 -148 120 -278 252 -407 28 -28 123 -90
170 -112 22 -11 47 -22 55 -26 9 -4 43 -13 75 -20 33 -8 66 -18 73 -23 8 -6
12 -6 12 1 0 7 10 8 28 3 30 -9 181 -6 227 4 204 43 384 166 506 347 42 61 99
179 114 233 4 17 10 35 11 40 28 85 47 357 30 435 -3 14 -9 41 -12 60 -17 101
-68 222 -137 325 -46 68 -161 185 -216 219 -56 35 -151 86 -151 81 0 -3 -17 1
-37 9 -21 8 -54 18 -73 22 -36 7 -246 14 -252 8z m227 -108 c17 -4 37 -10 45
-13 8 -3 20 -7 27 -9 7 -1 26 -12 42 -23 16 -12 32 -21 35 -21 13 0 75 -68
107 -120 47 -73 89 -184 104 -270 26 -155 26 -438 0 -560 -3 -14 -7 -38 -10
-55 -2 -16 -13 -61 -25 -100 -85 -295 -311 -459 -570 -414 -62 11 -140 40
-140 52 0 5 -4 5 -10 2 -5 -3 -15 3 -22 15 -7 11 -17 20 -23 20 -18 0 -84 83
-119 150 -39 73 -72 165 -81 225 -4 22 -10 63 -15 90 -9 52 -6 344 5 427 12
99 56 246 99 333 98 197 237 286 436 280 47 -1 99 -5 115 -9z"/>
<path d="M11053 6182 c-59 -3 -63 -5 -63 -27 0 -19 12 -29 63 -53 73 -36 115
-73 142 -127 19 -38 20 -62 21 -560 1 -550 -5 -653 -46 -787 -24 -80 -71 -135
-117 -136 -55 0 -63 -2 -63 -16 0 -8 4 -18 10 -21 18 -11 531 -8 542 3 24 24
0 40 -58 41 -48 0 -63 5 -93 29 -19 15 -38 41 -42 56 -7 27 -3 216 7 346 8 93
8 567 1 615 -3 22 -11 71 -18 110 -12 74 -14 113 -7 121 11 10 38 -10 65 -49
43 -64 183 -249 209 -278 13 -14 24 -30 24 -37 0 -7 4 -12 9 -12 4 0 27 -27
50 -60 23 -33 47 -65 54 -72 7 -7 82 -105 167 -218 85 -113 158 -209 162 -215
5 -5 36 -46 69 -90 94 -125 103 -137 117 -151 6 -7 12 -15 12 -18 0 -22 110
-126 135 -127 123 -8 162 4 195 62 22 39 22 98 0 124 -20 24 -32 118 -32 270
-1 160 7 308 16 336 3 8 8 26 10 42 3 15 9 53 15 85 17 98 20 125 27 238 3 60
8 112 10 116 3 5 2 8 -3 8 -4 0 -8 30 -8 68 -1 112 -13 180 -51 272 -23 56
-51 89 -89 105 -30 12 -323 13 -372 0 -22 -5 -33 -35 -13 -35 14 0 17 0 50
-10 18 -5 28 -5 25 0 -11 18 80 -21 100 -43 42 -46 44 -75 42 -631 -2 -597 0
-581 -72 -479 -22 31 -45 61 -50 67 -6 6 -66 85 -135 176 -68 91 -130 171
-137 178 -7 7 -13 17 -13 21 0 5 -10 19 -23 32 -13 13 -47 58 -77 99 -30 41
-65 86 -77 100 -13 14 -23 28 -23 32 0 3 -6 13 -13 20 -7 7 -33 40 -57 73 -60
80 -56 75 -90 115 -16 19 -30 38 -30 43 0 6 -8 16 -55 68 -8 9 -15 20 -15 26
0 6 -7 13 -15 17 -8 3 -15 12 -15 21 0 8 -3 15 -7 15 -5 0 -24 23 -43 50 -19
27 -39 50 -45 50 -52 3 -233 4 -282 2z"/>
<path d="M10147 6172 c-23 -3 -28 -8 -25 -25 3 -19 11 -23 65 -28 73 -7 127
-39 143 -84 6 -17 10 -100 10 -190 -1 -88 -2 -401 -4 -695 -3 -502 -4 -537
-22 -574 -24 -50 -58 -74 -113 -81 -23 -3 -47 -8 -52 -11 -13 -8 -11 -31 4
-36 6 -2 158 -4 337 -3 316 0 325 1 325 20 0 15 -8 20 -30 22 -45 3 -109 31
-134 56 -25 27 -28 63 -16 187 9 105 9 249 0 585 -5 143 -8 361 -9 485 -1 203
1 229 17 254 24 36 86 63 150 65 22 1 27 6 27 26 0 25 -1 25 -82 26 -46 0
-191 1 -323 2 -132 1 -253 1 -268 -1z"/>
<path d="M1048 6151 c-24 -12 -72 -65 -73 -81 -1 -3 -6 -15 -13 -28 -33 -59
-50 -188 -47 -359 3 -159 6 -199 21 -283 3 -19 8 -46 10 -60 2 -14 9 -46 14
-72 29 -143 30 -532 1 -587 -6 -10 -7 -21 -4 -25 3 -3 1 -6 -5 -6 -14 0 -26
-62 -17 -90 9 -29 57 -74 103 -97 34 -17 74 -18 500 -21 l463 -3 15 38 c20 47
43 154 36 171 -12 34 -78 21 -154 -30 -20 -14 -65 -31 -100 -38 -35 -7 -70
-15 -78 -18 -8 -2 -107 -5 -220 -7 -231 -3 -250 1 -275 62 -13 31 -15 125 -12
702 2 366 5 674 8 683 17 59 83 97 181 105 68 6 94 21 72 43 -5 5 -96 10 -203
12 -151 2 -201 0 -223 -11z"/>
<path d="M2230 6145 c0 -20 6 -23 54 -28 70 -7 124 -33 146 -70 17 -27 18 -71
14 -716 -2 -377 -5 -697 -8 -711 -12 -76 -45 -114 -109 -126 -23 -4 -45 -9
-49 -10 -5 -1 -12 -2 -18 -3 -5 0 -10 -10 -10 -21 0 -20 5 -20 338 -18 323 3
337 4 337 22 0 15 -8 19 -40 21 -54 2 -107 26 -134 61 -21 27 -22 34 -14 129
9 118 8 445 -3 815 -8 281 -9 453 -4 510 7 70 63 104 198 120 2 0 2 10 0 23
l-3 22 -347 1 -348 2 0 -23z"/>
<path d="M7062 6163 c-4 -1 -19 -4 -34 -7 -20 -5 -25 -10 -21 -26 3 -12 14
-20 29 -21 13 -1 33 -3 44 -4 11 -1 28 -3 38 -4 18 -1 73 -44 74 -58 0 -4 5
-19 10 -32 8 -23 16 -157 22 -376 1 -49 -2 -96 -7 -102 -5 -7 -6 -13 -1 -13 5
0 9 -20 9 -45 0 -25 -3 -45 -8 -45 -4 0 -3 -8 2 -19 6 -10 8 -21 5 -24 -9 -8
-10 -88 -2 -93 5 -3 5 -10 2 -16 -14 -22 2 -453 16 -453 1 0 3 -13 5 -29 4
-27 16 -58 53 -136 22 -44 147 -170 192 -192 76 -38 117 -50 215 -65 54 -9
292 -8 330 0 17 4 41 9 54 12 12 2 30 10 39 17 8 7 16 11 16 9 2 -8 51 12 69
27 9 8 17 12 17 7 0 -9 110 82 128 107 7 9 18 23 25 30 26 30 74 125 82 163 2
11 4 20 5 20 2 0 9 36 15 79 3 21 8 52 11 70 9 43 11 535 2 549 -4 6 -2 17 3
24 6 7 7 19 2 30 -5 10 -8 115 -8 235 l0 216 31 39 c38 47 72 64 136 68 53 3
77 21 55 42 -19 18 -545 24 -563 6 -21 -21 -6 -41 29 -40 66 2 116 -14 142
-45 29 -35 34 -77 21 -198 -12 -118 -18 -299 -20 -615 -3 -341 -6 -388 -26
-452 -36 -110 -157 -209 -305 -248 -132 -35 -306 -10 -373 52 -7 7 -19 16 -26
20 -28 18 -76 92 -94 148 -41 124 -45 178 -45 730 -1 433 1 483 16 515 22 45
71 78 127 85 25 3 51 12 58 19 30 30 -10 35 -301 38 -158 2 -290 2 -295 1z"/>
<path d="M3157 6154 c-15 -15 15 -44 46 -44 18 0 42 -3 53 -6 33 -9 79 -103
101 -204 8 -39 9 -1017 1 -1095 -26 -244 -53 -302 -146 -313 -29 -4 -53 -10
-52 -14 0 -5 0 -15 0 -23 0 -12 42 -14 283 -14 155 1 285 3 289 5 12 8 -4 42
-23 47 -10 3 -19 2 -19 -3 0 -12 -58 -2 -105 19 -43 19 -73 58 -75 97 -4 90
-6 1173 -2 1187 11 41 34 7 91 -128 18 -44 40 -96 48 -115 9 -19 21 -48 28
-65 7 -16 22 -51 34 -77 11 -26 21 -50 21 -53 0 -2 11 -28 24 -57 13 -29 42
-98 66 -153 209 -497 284 -632 343 -618 28 7 57 32 57 50 0 7 5 13 10 13 6 0
10 5 10 12 0 6 14 40 30 75 17 34 30 68 30 73 0 6 5 10 12 10 6 0 9 3 6 6 -5
5 6 34 82 199 51 112 190 438 190 446 0 5 4 9 10 9 5 0 7 7 4 15 -4 8 -1 15 5
15 6 0 11 8 11 18 0 10 6 26 14 37 7 11 14 23 14 28 1 4 10 28 21 52 11 25 20
48 20 50 0 3 8 20 18 38 9 17 17 35 18 39 0 3 3 10 8 14 4 4 7 16 7 26 0 10 5
18 10 18 6 0 10 8 10 18 0 26 29 24 35 -2 3 -12 4 -67 2 -124 -1 -56 2 -102 6
-102 5 0 5 -5 2 -10 -3 -6 -6 -133 -5 -283 1 -149 1 -284 0 -299 0 -15 -1
-105 -3 -200 -2 -152 -5 -177 -22 -207 -21 -35 -68 -68 -95 -66 -8 1 -19 -1
-25 -4 -5 -3 -26 -6 -45 -6 -28 0 -36 -4 -38 -21 -3 -20 -1 -20 343 -20 321 0
345 1 345 18 0 25 -28 36 -66 28 -20 -5 -37 -3 -43 3 -6 6 -11 8 -11 4 0 -15
-59 24 -80 53 -12 16 -18 30 -14 30 3 0 2 6 -4 13 -17 20 -16 1368 0 1421 20
63 75 94 174 98 35 1 41 4 40 22 -1 21 -5 21 -229 23 l-228 2 -15 -35 c-8 -19
-27 -63 -43 -97 -15 -34 -52 -118 -81 -187 -29 -69 -66 -153 -82 -188 -15 -34
-28 -64 -28 -67 0 -2 -12 -30 -26 -62 -15 -32 -33 -74 -41 -93 -18 -45 -25
-59 -67 -152 -19 -43 -32 -78 -29 -78 3 0 -2 -9 -12 -20 -10 -11 -16 -20 -12
-20 13 0 -131 -305 -145 -308 -10 -2 -23 15 -38 50 -12 29 -33 78 -47 108 -14
30 -29 64 -33 75 -5 11 -24 55 -43 97 -19 42 -32 79 -29 82 3 3 0 6 -6 6 -7 0
-12 8 -12 18 0 10 -4 22 -9 28 -5 5 -18 32 -29 59 -11 28 -32 77 -47 110 -15
33 -35 78 -45 100 -10 22 -41 94 -70 160 -29 66 -67 153 -86 193 -19 41 -34
76 -34 80 0 3 -14 36 -32 74 l-32 68 -232 0 c-127 0 -234 -3 -237 -6z"/>
</g>
</svg>
